<?xml version="1.0" encoding="utf-8"?>
<!-- Generator: Adobe Illustrator 16.0.0, SVG Export Plug-In . SVG Version: 6.00 Build 0)  -->
<!DOCTYPE svg PUBLIC "-//W3C//DTD SVG 1.1//EN" "http://www.w3.org/Graphics/SVG/1.1/DTD/svg11.dtd">
<svg version="1.1" id="Layer_1" xmlns="http://www.w3.org/2000/svg" xmlns:xlink="http://www.w3.org/1999/xlink" x="0px" y="0px"
	 width="50px" height="50px" viewBox="0 0 50 50" enable-background="new 0 0 50 50" xml:space="preserve">
<g>
	<path fill-rule="evenodd" clip-rule="evenodd" fill="#191918" d="M5.576,26.473c0.012-3.758,1.039-7.161,3.616-9.984
		c2.025-2.218,4.542-3.408,7.566-3.601c2.198-0.141,4.261,0.149,6.198,1.252c1.487,0.847,3.053,0.655,4.61,0.195
		c1.076-0.317,2.072-0.852,3.133-1.211c3.303-1.12,6.334-0.475,9.146,1.459c1.121,0.769,2.066,1.743,3.047,2.675
		c0.232,0.223,0.098,0.31-0.078,0.445c-1.109,0.865-2.129,1.822-2.969,2.961c-2.727,3.706-2.344,8.738,0.932,12.189
		c0.951,1,2.035,1.834,3.256,2.473c0.402,0.213,0.439,0.461,0.361,0.83c-0.313,1.455-0.963,2.768-1.717,4.029
		c-1.426,2.387-3.141,4.525-5.447,6.127c-1.238,0.861-2.578,1.455-4.123,1.484c-0.953,0.02-1.814-0.283-2.656-0.68
		c-1.285-0.609-2.582-1.148-4.033-1.25c-1.35-0.092-2.623,0.145-3.857,0.668c-1.167,0.494-2.338,0.955-3.605,1.18
		c-1.918,0.34-3.542-0.209-5.002-1.422c-1.875-1.555-3.227-3.52-4.375-5.631c-1.996-3.668-3.313-7.568-3.848-11.719
		C5.625,28.125,5.562,27.303,5.576,26.473z"/>
	<path fill-rule="evenodd" clip-rule="evenodd" fill="#1B1C1A" d="M33.574,3.458c-0.023,4.267-2.82,8.195-6.619,9.403
		c-0.729,0.232-1.474,0.331-2.237,0.365c-0.428,0.021-0.516-0.143-0.528-0.534c-0.128-4.188,2.69-8.384,6.653-9.876
		c0.729-0.274,1.475-0.466,2.238-0.612c0.346-0.066,0.445,0.056,0.449,0.37C33.535,2.903,33.563,3.233,33.574,3.458z"/>
</g>
</svg>
