<?xml version="1.0" encoding="utf-8"?>
<!-- Generator: Adobe Illustrator 16.0.0, SVG Export Plug-In . SVG Version: 6.00 Build 0)  -->
<!DOCTYPE svg PUBLIC "-//W3C//DTD SVG 1.1//EN" "http://www.w3.org/Graphics/SVG/1.1/DTD/svg11.dtd">
<svg version="1.1" id="Layer_1" xmlns="http://www.w3.org/2000/svg" xmlns:xlink="http://www.w3.org/1999/xlink" x="0px" y="0px"
	 width="50px" height="50px" viewBox="0 0 50 50" enable-background="new 0 0 50 50" xml:space="preserve">
<g>
	<path fill-rule="evenodd" clip-rule="evenodd" fill="#3C1E1E" d="M11.053,46.524c-0.072,0-0.143,0-0.215,0
		c-0.028-0.034-0.073-0.027-0.109-0.04c-0.282-0.101-0.472-0.391-0.449-0.688c0.008-0.109,0.043-0.21,0.07-0.313
		c0.711-2.652,1.421-5.307,2.134-7.958c0.02-0.074,0.005-0.109-0.064-0.145c-0.514-0.26-1.018-0.538-1.51-0.835
		c-2.241-1.354-4.214-3.016-5.817-5.096c-1.868-2.424-3.041-5.133-3.334-8.198c-0.126-1.315-0.072-2.623,0.157-3.922
		c0.378-2.143,1.196-4.109,2.39-5.922c1.557-2.361,3.581-4.247,5.945-5.779c1.897-1.229,3.934-2.162,6.087-2.842
		c2.308-0.729,4.672-1.145,7.089-1.271c1.596-0.083,3.19-0.042,4.779,0.129c1.086,0.117,2.164,0.297,3.23,0.539
		c2.379,0.54,4.649,1.368,6.791,2.538c2.39,1.305,4.504,2.954,6.255,5.051c1.305,1.564,2.323,3.293,2.995,5.221
		c0.456,1.31,0.727,2.656,0.808,4.042c0.024,0.417,0.018,0.835,0.022,1.252c-0.02,0.437-0.048,0.873-0.099,1.309
		c-0.134,1.16-0.405,2.288-0.806,3.387c-0.694,1.901-1.727,3.605-3.033,5.145c-1.233,1.453-2.657,2.691-4.234,3.757
		c-1.887,1.274-3.922,2.248-6.078,2.968c-1.471,0.491-2.975,0.851-4.508,1.09c-1.047,0.163-2.099,0.271-3.155,0.319
		c-1.749,0.083-3.491,0.011-5.226-0.228c-0.363-0.05-0.363-0.049-0.666,0.156c-0.052,0.036-0.105,0.071-0.158,0.107
		c-2.766,1.867-5.53,3.737-8.298,5.603C11.724,46.119,11.424,46.38,11.053,46.524z"/>
</g>
</svg>
