<?xml version="1.0" encoding="utf-8"?>
<!-- Generator: Adobe Illustrator 16.0.0, SVG Export Plug-In . SVG Version: 6.00 Build 0)  -->
<!DOCTYPE svg PUBLIC "-//W3C//DTD SVG 1.1//EN" "http://www.w3.org/Graphics/SVG/1.1/DTD/svg11.dtd">
<svg version="1.1" id="Layer_1" xmlns="http://www.w3.org/2000/svg" xmlns:xlink="http://www.w3.org/1999/xlink" x="0px" y="0px"
	 width="50px" height="50px" viewBox="0 0 50 50" enable-background="new 0 0 50 50" xml:space="preserve">
<path fill-rule="evenodd" clip-rule="evenodd" fill="#E68637" d="M36.236,11.306c-0.425,0.483-0.877,0.939-1.361,1.362
	c-0.58-0.39-1.076-0.875-1.511-1.415c-0.599-0.744-1.276-1.407-1.933-2.093c-0.846-0.885-1.741-1.747-2.474-2.743
	c-0.506-0.689-1.217-1.192-1.716-1.89c-0.34-0.475-0.682-0.948-1.063-1.391c1.877,0.093,3.73,0.313,5.498,1.006
	c0.077,0.03,0.169,0.025,0.254,0.037c0.488,1.535,1.032,3.03,2.036,4.339c0.617,0.806,1.377,1.472,1.996,2.267
	C36.084,10.942,36.308,11.048,36.236,11.306z"/>
<path fill-rule="evenodd" clip-rule="evenodd" fill="#E47C34" d="M24.114,7.939c0.307-0.805,0.614-1.609,0.921-2.414
	c0.259-0.137,0.387,0.068,0.509,0.218c0.191,0.235,0.427,0.402,0.682,0.558c0.904,0.554,1.754,1.17,2.449,1.993
	c0.391,0.463,0.915,0.797,1.38,1.187c1.35,1.13,2.51,2.448,3.711,3.725c0.104,0.109,0.239,0.217,0.168,0.404
	c-0.351,0.41-0.728,0.791-1.14,1.139c-0.236,0.076-0.354-0.109-0.477-0.24c-1.393-1.487-3.048-2.684-4.52-4.084
	c-0.938-0.893-2.078-1.503-3.216-2.103C24.401,8.226,24.182,8.173,24.114,7.939z"/>
<path fill-rule="evenodd" clip-rule="evenodd" fill="#E48135" d="M33.934,13.61c-1.379-1.535-2.738-3.089-4.38-4.356
	c-0.863-0.666-1.499-1.576-2.406-2.199c-0.227-0.155-0.438-0.353-0.688-0.454c-0.576-0.233-0.896-0.791-1.424-1.075
	c0.263-0.71,0.53-1.418,0.786-2.13c0.064-0.18,0.127-0.327,0.358-0.258c0.368,0.131,0.541,0.457,0.746,0.749
	c0.358,0.512,0.771,0.976,1.187,1.442c1.024,1.148,2.119,2.234,3.065,3.455c0.423,0.546,1.116,0.813,1.504,1.412
	c0.605,0.934,1.47,1.643,2.194,2.474C34.59,13.011,34.278,13.327,33.934,13.61z"/>
<path fill-rule="evenodd" clip-rule="evenodd" fill="#E27632" d="M24.114,7.939c2.057,0.983,3.811,2.357,5.476,3.919
	c1.045,0.98,2.123,1.941,3.204,2.891c-0.358,0.418-0.744,0.808-1.164,1.165c-0.128-0.023-0.216-0.107-0.306-0.191
	c-1.862-1.762-3.885-3.322-5.993-4.778c-0.475-0.328-1.006-0.551-1.499-0.847c-0.147-0.089-0.328-0.128-0.421-0.293
	C23.646,9.183,23.88,8.561,24.114,7.939z"/>
<path fill-rule="evenodd" clip-rule="evenodd" fill="#E68E38" d="M36.236,11.306c-0.538-0.674-1.144-1.287-1.743-1.903
	c-1.264-1.296-1.845-2.983-2.598-4.572c-0.115-0.243,0.002-0.437,0.035-0.651c1.283,0.375,2.511,0.88,3.664,1.56
	c0.238,1.433,0.764,2.735,1.719,3.849c0.106,0.125,0.249,0.257,0.179,0.461C37.103,10.499,36.686,10.919,36.236,11.306z"/>
<path fill-rule="evenodd" clip-rule="evenodd" fill="#E27131" d="M23.411,9.804c1.078,0.379,1.976,1.063,2.92,1.679
	c1.473,0.961,2.733,2.189,4.139,3.235c0.44,0.327,0.838,0.734,1.16,1.195c-0.279,0.34-0.588,0.651-0.929,0.929
	c-0.326,0.056-0.511-0.184-0.709-0.364c-1.807-1.647-3.771-3.08-5.841-4.377c-0.429-0.268-0.96-0.335-1.324-0.714
	C22.966,10.839,23.193,10.323,23.411,9.804z"/>
<path fill-rule="evenodd" clip-rule="evenodd" fill="#DD4529" d="M30.532,27.735c-0.804-0.791-1.602-1.587-2.413-2.369
	c-0.174-0.168-0.14-0.262,0.017-0.407c0.431-0.401,0.848-0.817,1.27-1.227c0.225-0.079,0.408,0.047,0.592,0.134
	c1.295,0.612,2.638,1.073,4.049,1.332c0.341,0.124,0.676,0.266,1.042,0.309c0.191,0.022,0.374,0.085,0.454,0.294
	c-0.047,0.397-0.316,0.598-0.669,0.663c-0.299,0.056-0.539,0.187-0.761,0.377c-1.066,0.2-2.11,0.482-3.126,0.868
	C30.84,27.766,30.687,27.787,30.532,27.735z"/>
<path fill-rule="evenodd" clip-rule="evenodd" fill="#DD4729" d="M17.815,13.382c-0.327,1.034-0.714,2.045-1.15,3.038
	c-0.786-0.13-1.566-0.298-2.223-0.775c-0.506-0.369-0.91-0.856-1.347-1.303c-0.095-0.098-0.193-0.208-0.124-0.368
	c0.73-0.794,1.494-1.555,2.287-2.287c0.088-0.044,0.176-0.028,0.245,0.029c0.667,0.565,1.442,0.971,2.161,1.461
	C17.736,13.227,17.792,13.293,17.815,13.382z"/>
<path fill-rule="evenodd" clip-rule="evenodd" fill="#DD4C2A" d="M25.677,21.866c-0.458,0.52-0.946,1.009-1.467,1.466
	c-0.21,0.076-0.318-0.088-0.441-0.199c-1.008-0.905-2.106-1.677-3.324-2.281c-0.349-0.174-0.736-0.31-0.959-0.671
	c0.205-0.642,0.436-1.274,0.724-1.885c0.327-0.081,0.551,0.156,0.81,0.272c1.495,0.674,2.752,1.715,4.072,2.658
	C25.329,21.396,25.578,21.566,25.677,21.866z"/>
<path fill-rule="evenodd" clip-rule="evenodd" fill="#E16A31" d="M22.827,11.387c1.325,0.434,2.458,1.209,3.548,2.045
	c0.62,0.476,1.259,0.92,1.897,1.37c0.864,0.611,1.506,1.493,2.429,2.04c-0.289,0.35-0.605,0.669-0.956,0.956
	c-0.811-0.512-1.487-1.192-2.206-1.815c-1.433-1.24-3.058-2.167-4.718-3.046c-0.167-0.089-0.36-0.137-0.487-0.293
	C22.498,12.225,22.663,11.806,22.827,11.387z"/>
<path fill-rule="evenodd" clip-rule="evenodd" fill="#9C2824" d="M3.13,25.758c-0.073-0.681-0.065-1.359,0.087-2.031
	c0.604-0.087,1.117,0.226,1.629,0.437c2.469,1.018,4.941,2.025,7.474,2.878c0.099,0.034,0.199,0.065,0.263,0.157
	c-0.054,0.334-0.195,0.637-0.342,0.938c-0.198,0.163-0.4,0.063-0.592-0.003c-1.826-0.619-3.668-1.188-5.469-1.878
	c-0.799-0.307-1.646-0.43-2.467-0.651C3.484,25.543,3.31,25.653,3.13,25.758z"/>
<path fill-rule="evenodd" clip-rule="evenodd" fill="#E47C35" d="M37.159,15.978c0.28-0.342,0.594-0.652,0.935-0.935
	c0.333-0.05,0.557,0.172,0.79,0.34c1.081,0.779,2.3,1.1,3.611,1.214c0.895,0.077,1.767,0.004,2.644-0.119
	c0.105-0.015,0.209-0.019,0.306,0.034c0.268,0.499,0.468,1.024,0.608,1.572c-2.496,0.407-4.916,0.167-7.235-0.881
	c-0.476-0.215-0.91-0.51-1.35-0.789C37.316,16.319,37.122,16.221,37.159,15.978z"/>
<path fill-rule="evenodd" clip-rule="evenodd" fill="#DD4C2A" d="M17.815,13.382c-0.893-0.504-1.763-1.042-2.557-1.695
	c1.723-1.677,3.444-3.354,5.12-4.986c-0.243,0.644-0.516,1.382-0.798,2.117C18.994,10.34,18.403,11.86,17.815,13.382z"/>
<path fill-rule="evenodd" clip-rule="evenodd" fill="#E27032" d="M46.356,19.026c-0.041,0.309,0.241,0.535,0.218,0.841
	c-0.521,0.437-1.192,0.467-1.784,0.429c-1.215-0.079-2.438,0.01-3.646-0.234c-1.152-0.233-2.26-0.572-3.327-1.063
	c-0.648-0.298-1.336-0.514-1.87-1.018c-0.138-0.129-0.323-0.216-0.366-0.425c0.25-0.313,0.535-0.593,0.846-0.846
	c0.657,0.238,1.22,0.655,1.815,1.002c1.394,0.813,2.919,1.132,4.482,1.253c1.033,0.081,2.085,0.104,3.124-0.073
	C46.023,18.863,46.237,18.794,46.356,19.026z"/>
<path fill-rule="evenodd" clip-rule="evenodd" fill="#DF5A2C" d="M28.28,19.263c-0.279,0.339-0.587,0.65-0.928,0.928
	c-0.247,0.125-0.395-0.049-0.541-0.191c-1.526-1.477-3.265-2.645-5.172-3.569c-0.218-0.105-0.447-0.203-0.569-0.436
	c0.134-0.432,0.274-0.861,0.493-1.259c0.207-0.168,0.4-0.047,0.58,0.045c0.879,0.453,1.757,0.905,2.555,1.503
	c1.124,0.841,2.303,1.611,3.333,2.575C28.151,18.971,28.348,19.035,28.28,19.263z"/>
<path fill-rule="evenodd" clip-rule="evenodd" fill="#DB402A" d="M30.532,27.735c1.171-0.429,2.324-0.921,3.598-0.96
	c0.304-0.101,0.601,0.015,0.849,0.128c0.515,0.234,1.105,0.282,1.563,0.651c0.094,0.266-0.121,0.368-0.273,0.495
	c-0.755,0.632-1.597,1.146-2.387,1.731c-0.274,0.157-0.511,0.381-0.813,0.488C32.19,29.456,31.347,28.609,30.532,27.735z"/>
<path fill-rule="evenodd" clip-rule="evenodd" fill="#DC3A27" d="M19.71,27.833c-1.668,1.626-3.337,3.251-5.002,4.874
	c0.811-2.115,1.624-4.238,2.437-6.359c0.185-0.135,0.365-0.073,0.532,0.027c0.65,0.39,1.235,0.878,1.9,1.245
	C19.651,27.661,19.692,27.745,19.71,27.833z"/>
<path fill-rule="evenodd" clip-rule="evenodd" fill="#DD4529" d="M19.486,20.182c1.7,0.863,3.327,1.834,4.724,3.15
	c-0.463,0.523-0.954,1.019-1.479,1.479c-0.646-0.404-1.146-0.989-1.783-1.411c-0.508-0.336-1.017-0.651-1.594-0.854
	c-0.225-0.079-0.457-0.172-0.61-0.378C18.942,21.489,19.2,20.831,19.486,20.182z"/>
<path fill-rule="evenodd" clip-rule="evenodd" fill="#E06931" d="M35.581,17.557c1.479,1.147,3.188,1.789,4.979,2.226
	c0.754,0.184,1.519,0.33,2.31,0.3c1.084-0.041,2.176,0.241,3.251-0.109c0.147-0.048,0.302-0.072,0.453-0.106
	c0.123,0.374,0.24,0.75,0.231,1.151c-0.648,0.169-1.3,0.299-1.975,0.209c-0.705-0.107-1.419-0.138-2.129-0.162
	c-1.698-0.059-3.316-0.427-4.841-1.169c-0.828-0.404-1.709-0.715-2.439-1.303c-0.17-0.137-0.408-0.231-0.355-0.521
	C35.237,17.9,35.408,17.729,35.581,17.557z"/>
<path fill-rule="evenodd" clip-rule="evenodd" fill="#E27634" d="M46.356,19.026c-1.173,0.138-2.354,0.173-3.525,0.091
	c-1.628-0.113-3.224-0.408-4.654-1.295c-0.588-0.364-1.254-0.603-1.75-1.112c0.214-0.274,0.459-0.517,0.732-0.732
	c1.404,1.167,3.058,1.729,4.834,2.007c1.136,0.179,2.265,0.23,3.401,0.004c0.216-0.043,0.454-0.04,0.658,0.095
	C46.201,18.384,46.293,18.7,46.356,19.026z"/>
<path fill-rule="evenodd" clip-rule="evenodd" fill="#902322" d="M3.334,28.248c-0.121-0.26-0.097-0.537-0.096-0.812
	c-0.097-0.774,0.026-0.857,0.8-0.751c1.938,0.269,3.767,0.95,5.647,1.433c0.634,0.162,1.217,0.503,1.848,0.703
	c0.161,0.051,0.334,0.131,0.299,0.362c-0.061,0.296-0.156,0.579-0.316,0.838c-0.268,0.164-0.509,0.002-0.744-0.082
	c-1.756-0.626-3.55-1.1-5.394-1.38c-0.498-0.076-1-0.123-1.501-0.168C3.687,28.375,3.494,28.378,3.334,28.248z"/>
<path fill-rule="evenodd" clip-rule="evenodd" fill="#DF612F" d="M28.28,19.263c-0.602-0.518-1.165-1.089-1.812-1.543
	c-1.404-0.984-2.733-2.089-4.318-2.797c-0.189-0.084-0.365-0.208-0.587-0.188c0.1-0.437,0.276-0.845,0.455-1.253
	c0.249-0.15,0.433,0.041,0.619,0.138c1.682,0.874,3.255,1.909,4.712,3.13c0.626,0.524,1.215,1.08,1.785,1.661
	C28.879,18.725,28.597,19.011,28.28,19.263z"/>
<path fill-rule="evenodd" clip-rule="evenodd" fill="#DD4B2A" d="M34.026,25.31c-1.644-0.227-3.146-0.865-4.621-1.578
	c0.491-0.554,1.017-1.075,1.568-1.569c0.183-0.117,0.333-0.004,0.481,0.077c0.53,0.292,1.088,0.533,1.605,0.852
	c0.574,0.354,1.272,0.314,1.879,0.573c0.158,0.067,0.336,0.084,0.491,0.166c0.298,0.21,0.599,0.415,0.965,0.501
	c0.132,0.031,0.274,0.077,0.291,0.253c-0.016,0.07-0.048,0.151-0.117,0.155c-0.515,0.028-1.015,0.261-1.514,0.236
	C34.632,24.956,34.326,25.066,34.026,25.31z"/>
<path fill-rule="evenodd" clip-rule="evenodd" fill="#DF512B" d="M35.387,23.949c-0.59-0.181-1.191-0.323-1.78-0.495
	c-0.843-0.247-1.564-0.787-2.352-1.176c-0.09-0.045-0.187-0.077-0.281-0.115c0.46-0.523,0.954-1.013,1.476-1.475
	c0.186,0.003,0.32,0.114,0.46,0.217c1.338,0.992,2.894,1.513,4.437,2.062c0.381,0.099,0.742,0.251,1.105,0.395
	c0.193,0.076,0.444,0.135,0.417,0.438c-1.022,0.389-2.07,0.368-3.128,0.207C35.622,23.987,35.515,23.903,35.387,23.949z"/>
<path fill-rule="evenodd" clip-rule="evenodd" fill="#962623" d="M11.833,29.184c-0.054-0.121-0.153-0.172-0.275-0.217
	c-1.396-0.517-2.816-0.952-4.247-1.366c-1.083-0.313-2.175-0.542-3.276-0.759c-0.73-0.144-0.769-0.139-0.796,0.595
	c-0.145-0.553-0.116-1.116-0.109-1.678c-0.009-0.369,0.244-0.401,0.493-0.327c0.911,0.272,1.853,0.413,2.753,0.746
	c1.933,0.716,3.879,1.399,5.865,1.96C12.145,28.501,12.021,28.854,11.833,29.184z"/>
<path fill-rule="evenodd" clip-rule="evenodd" fill="#B43222" d="M13.866,23.861c-0.136,0.389-0.235,0.793-0.455,1.15
	c-2.188-0.931-4.375-1.867-6.396-3.134c-0.385-0.241-0.906-0.407-0.952-0.995c0.24-0.305,0.515-0.576,0.818-0.819
	c0.189-0.096,0.333,0,0.473,0.114c1.21,0.989,2.606,1.667,3.979,2.387c0.725,0.381,1.432,0.796,2.22,1.04
	C13.689,23.646,13.806,23.72,13.866,23.861z"/>
<path fill-rule="evenodd" clip-rule="evenodd" fill="#8A2021" d="M3.334,28.248c1.658-0.004,3.257,0.362,4.86,0.737
	c1.135,0.267,2.2,0.739,3.322,1.036c-0.093,0.371-0.209,0.733-0.406,1.065c-0.421-0.022-0.808-0.18-1.206-0.296
	c-1.78-0.52-3.557-1.051-5.448-0.941c-0.282,0.017-0.55,0.042-0.795,0.188C3.472,29.456,3.362,28.859,3.334,28.248z"/>
<path fill-rule="evenodd" clip-rule="evenodd" fill="#DF522B" d="M25.677,21.866c-0.805-0.769-1.772-1.328-2.651-2
	c-0.845-0.646-1.87-1.056-2.816-1.569c0.151-0.418,0.302-0.837,0.453-1.256c0.167-0.148,0.328-0.051,0.486,0.018
	c1.973,0.86,3.676,2.124,5.273,3.543c0.097,0.085,0.248,0.157,0.183,0.336C26.326,21.277,26.019,21.589,25.677,21.866z"/>
<path fill-rule="evenodd" clip-rule="evenodd" fill="#AD2E23" d="M6.063,20.882c0.478,0.703,1.224,1.071,1.932,1.444
	c1.59,0.839,3.203,1.642,4.877,2.308c0.202,0.08,0.437,0.142,0.539,0.377c-0.045,0.301-0.169,0.572-0.316,0.834
	c-2.317-0.9-4.613-1.852-6.811-3.021c-0.45-0.239-0.924-0.492-1.182-0.982C5.391,21.491,5.712,21.172,6.063,20.882z"/>
<path fill-rule="evenodd" clip-rule="evenodd" fill="#A72B24" d="M5.103,21.842c1.45,1.133,3.13,1.824,4.804,2.539
	c0.973,0.416,1.945,0.834,2.928,1.223c0.118,0.047,0.21,0.121,0.26,0.241c-0.043,0.301-0.17,0.572-0.315,0.834
	c-2.268-0.871-4.536-1.74-6.741-2.762c-0.553-0.256-1.055-0.602-1.561-0.94c-0.106-0.071-0.264-0.128-0.196-0.315
	C4.524,22.357,4.798,22.084,5.103,21.842z"/>
<path fill-rule="evenodd" clip-rule="evenodd" fill="#A22924" d="M4.283,22.662c0.883,0.68,1.875,1.157,2.889,1.612
	c1.678,0.751,3.395,1.403,5.112,2.054c0.189,0.07,0.403,0.135,0.496,0.352c0,0.198-0.088,0.362-0.197,0.52
	c-0.902-0.176-1.75-0.529-2.609-0.837c-2.276-0.814-4.462-1.864-6.756-2.635C3.54,23.34,3.896,22.986,4.283,22.662z"/>
<path fill-rule="evenodd" clip-rule="evenodd" fill="#72181A" d="M13.074,40.063c0.317-0.316,0.634-0.634,0.951-0.951
	c0.747,0.444,1.154,1.191,1.597,1.883c0.706,1.102,0.806,2.389,0.933,3.649c0.025,0.245,0.071,0.619-0.36,0.677
	c-0.682-0.203-1.28-0.574-1.878-0.943c0.624-1.378-0.005-2.489-0.759-3.575C13.389,40.561,13.159,40.359,13.074,40.063z"/>
<path fill-rule="evenodd" clip-rule="evenodd" fill="#DC3D27" d="M19.71,27.833c-0.696-0.377-1.345-0.83-1.989-1.288
	c-0.173-0.123-0.36-0.201-0.577-0.197c0.316-0.838,0.633-1.675,0.949-2.513c0.149-0.077,0.275-0.001,0.389,0.075
	c0.866,0.584,1.8,1.07,2.594,1.762c0.15,0.131,0.365,0.235,0.294,0.5C20.848,26.757,20.295,27.312,19.71,27.833z"/>
<path fill-rule="evenodd" clip-rule="evenodd" fill="#841E20" d="M3.661,30.038c-0.009-0.24,0.099-0.336,0.345-0.334
	c1.386,0.005,2.751,0.032,4.111,0.453c0.833,0.259,1.689,0.497,2.547,0.696c0.173,0.04,0.338,0.076,0.446,0.233
	c-0.049,0.33-0.193,0.625-0.335,0.922c-0.393,0.083-0.758-0.064-1.119-0.163c-1.614-0.439-3.256-0.657-4.926-0.699
	c-0.286-0.008-0.597,0.024-0.847-0.183C3.755,30.668,3.673,30.361,3.661,30.038z"/>
<path fill-rule="evenodd" clip-rule="evenodd" fill="#CF344B" d="M45.202,34.417c-0.199,0.512-0.449,0.999-0.74,1.464
	c-0.759,0.029-1.493,0.158-2.199,0.465c-0.418,0.182-0.778,0.45-1.177,0.653c-0.292,0.149-0.569,0.334-0.9,0.389
	c-0.387-0.327-0.743-0.682-1.069-1.068c0.036-0.141,0.113-0.266,0.23-0.339c1.192-0.737,2.301-1.651,3.753-1.851
	c0.604-0.083,1.209,0.062,1.814,0.087C45.036,34.222,45.142,34.299,45.202,34.417z"/>
<path fill-rule="evenodd" clip-rule="evenodd" fill="#DD4128" d="M21.371,26.172c-0.377-0.514-0.916-0.834-1.432-1.176
	c-0.605-0.402-1.229-0.775-1.845-1.161c0.217-0.555,0.434-1.11,0.65-1.666c1.564,0.527,2.908,1.384,3.987,2.642
	C22.309,25.295,21.857,25.751,21.371,26.172z"/>
<path fill-rule="evenodd" clip-rule="evenodd" fill="#791A1C" d="M16.194,45.321c0.202-0.175,0.268-0.42,0.237-0.656
	c-0.18-1.382-0.285-2.792-1.151-3.972c-0.398-0.542-0.835-1.055-1.255-1.581c0.246-0.307,0.522-0.582,0.829-0.828
	c0.233-0.064,0.356,0.105,0.474,0.244c0.56,0.66,1.134,1.311,1.658,1.995c0.334,0.437,0.355,1.034,0.527,1.558
	c-0.038,0.991-0.18,1.974-0.223,2.966c-0.009,0.224,0.007,0.544-0.358,0.586C16.665,45.581,16.418,45.477,16.194,45.321z"/>
<path fill-rule="evenodd" clip-rule="evenodd" fill="#C0351F" d="M14.562,21.973c-0.104,0.369-0.209,0.738-0.402,1.073
	c-0.72-0.153-1.361-0.482-2.009-0.824c-1.305-0.688-2.604-1.381-3.799-2.253c-0.263-0.191-0.573-0.333-0.737-0.639
	c0.289-0.351,0.61-0.67,0.96-0.959c0.707,0.438,1.416,0.88,2.096,1.354c1.065,0.743,2.24,1.258,3.394,1.821
	C14.26,21.64,14.57,21.631,14.562,21.973z"/>
<path fill-rule="evenodd" clip-rule="evenodd" fill="#E06630" d="M29.134,18.41c-0.28-0.011-0.409-0.243-0.58-0.407
	c-1.874-1.797-3.969-3.277-6.293-4.435c-0.076-0.038-0.162-0.058-0.243-0.086c0.105-0.279,0.21-0.559,0.315-0.838
	c0.891,0.229,1.612,0.794,2.405,1.216c1.797,0.955,3.239,2.371,4.783,3.654c0.091,0.075,0.15,0.188,0.224,0.284
	C29.571,18.032,29.367,18.236,29.134,18.41z"/>
<path fill-rule="evenodd" clip-rule="evenodd" fill="#6E1618" d="M13.074,40.063c0.843,0.809,1.418,1.795,1.653,2.918
	c0.092,0.44-0.018,1.007-0.411,1.396c-1.207-0.6-2.261-1.421-3.243-2.197C11.74,41.476,12.406,40.769,13.074,40.063z"/>
<path fill-rule="evenodd" clip-rule="evenodd" fill="#E68637" d="M45.444,16.513c-0.868,0.264-1.75,0.286-2.654,0.24
	c-0.945-0.048-1.853-0.208-2.734-0.545c-0.722-0.276-1.3-0.792-1.962-1.165c0.286-0.348,0.604-0.663,0.95-0.95
	c0.891,0.509,1.773,1.016,2.793,1.259c0.788,0.188,1.547,0.186,2.325,0.012c0.244-0.054,0.504-0.184,0.754,0
	C45.153,15.719,45.324,16.104,45.444,16.513z"/>
<path fill-rule="evenodd" clip-rule="evenodd" fill="#74181B" d="M5.845,35.818c-0.385-0.599-0.699-1.233-0.929-1.908
	c-0.024-0.272,0.196-0.303,0.371-0.339c1.513-0.311,2.959-0.017,4.377,0.509c0.149,0.056,0.296,0.14,0.183,0.345
	c-0.123,0.472-0.279,0.93-0.514,1.358c-0.233,0.147-0.486,0.076-0.707,0.009c-0.811-0.249-1.613-0.165-2.418,0.004
	C6.087,35.821,5.966,35.825,5.845,35.818z"/>
<path fill-rule="evenodd" clip-rule="evenodd" fill="#E7933A" d="M39.881,13.256c0.668-0.68,1.34-1.356,2.002-2.042
	c0.165-0.169,0.271-0.153,0.412,0.027c0.737,0.943,1.464,1.893,2.005,2.968c-0.48,0.412-1.065,0.405-1.626,0.324
	c-0.856-0.124-1.712-0.298-2.439-0.826C40.073,13.589,39.839,13.533,39.881,13.256z"/>
<path fill-rule="evenodd" clip-rule="evenodd" fill="#791B1C" d="M9.847,34.425c-0.011-0.146-0.105-0.182-0.235-0.225
	c-0.789-0.259-1.586-0.547-2.408-0.581c-0.761-0.031-1.575-0.181-2.287,0.291c-0.288-0.533-0.501-1.096-0.648-1.684
	c0.368-0.266,0.8-0.209,1.201-0.188c1.385,0.067,2.762,0.232,4.124,0.486c0.299,0.057,0.773-0.015,0.774,0.531
	C10.245,33.532,10.074,33.988,9.847,34.425z"/>
<path fill-rule="evenodd" clip-rule="evenodd" fill="#CB3B24" d="M15.398,19.764c-0.124,0.478-0.288,0.941-0.521,1.377
	c-0.72-0.528-1.552-0.854-2.327-1.28c-0.934-0.512-1.789-1.141-2.694-1.695c-0.22-0.134-0.496-0.284-0.443-0.634
	c0.241-0.305,0.515-0.576,0.818-0.819c0.189-0.097,0.332,0,0.47,0.113c1.322,1.085,2.775,1.955,4.325,2.667
	C15.166,19.558,15.316,19.616,15.398,19.764z"/>
<path fill-rule="evenodd" clip-rule="evenodd" fill="#D3373C" d="M37.336,34.539c-0.273-0.215-0.519-0.456-0.732-0.731
	c0.119-0.308,0.373-0.505,0.611-0.701c0.997-0.814,2.014-1.606,3.116-2.279c0.346-0.211,0.723-0.341,1.103-0.471
	c1.112-0.127,2.222-0.301,3.345-0.28c0.222,0.003,0.454-0.021,0.643,0.136c0.022,0.372-0.296,0.323-0.497,0.366
	c-0.913,0.204-1.832,0.375-2.705,0.729c-0.111,0.046-0.246,0.058-0.336,0.134c-0.762,0.639-1.714,0.972-2.501,1.566
	c-0.531,0.502-1.147,0.902-1.676,1.407C37.605,34.509,37.495,34.604,37.336,34.539z"/>
<path fill-rule="evenodd" clip-rule="evenodd" fill="#B72E69" d="M36.638,39.474c0.432,0.331,0.798,0.728,1.151,1.138
	c0.109,0.13,0.06,0.264-0.008,0.384c-0.445,0.787-0.65,1.625-0.557,2.53c0.006,0.05-0.021,0.1-0.039,0.148
	c-0.506,0.341-0.984,0.729-1.591,0.89c-0.495-0.589-0.559-1.29-0.522-2.018c0.272-0.948,0.718-1.823,1.174-2.693
	C36.333,39.684,36.42,39.51,36.638,39.474z"/>
<path fill-rule="evenodd" clip-rule="evenodd" fill="#D94427" d="M12.971,13.974c0.816,0.901,1.547,1.911,2.878,2.13
	c0.282,0.046,0.544,0.208,0.816,0.315c-0.181,0.573-0.357,1.148-0.638,1.684c-0.938-0.448-1.851-0.944-2.755-1.457
	c-0.522-0.296-0.921-0.729-1.328-1.155c-0.093-0.098-0.198-0.205-0.125-0.366C12.171,14.709,12.557,14.327,12.971,13.974z"/>
<path fill-rule="evenodd" clip-rule="evenodd" fill="#BA3421" d="M7.614,19.33c0.865,0.57,1.698,1.197,2.6,1.697
	c1.205,0.667,2.388,1.388,3.694,1.856c0.098,0.036,0.201,0.057,0.25,0.163c-0.098,0.271-0.195,0.543-0.293,0.814
	c-2.246-0.881-4.359-2.012-6.35-3.374c-0.209-0.144-0.335-0.417-0.635-0.424C7.093,19.787,7.34,19.544,7.614,19.33z"/>
<path fill-rule="evenodd" clip-rule="evenodd" fill="#C73922" d="M9.412,17.533c0.146,0.266,0.373,0.443,0.623,0.608
	c1.416,0.935,2.857,1.826,4.393,2.555c0.199,0.094,0.44,0.155,0.448,0.445c-0.047,0.299-0.152,0.577-0.315,0.832
	c-0.898-0.453-1.811-0.878-2.69-1.365c-1.078-0.596-2.101-1.285-3.109-1.992c-0.08-0.057-0.125-0.163-0.187-0.246
	C8.822,18.059,9.102,17.78,9.412,17.533z"/>
<path fill-rule="evenodd" clip-rule="evenodd" fill="#D03447" d="M45.202,34.417c-1.66-0.381-3.199-0.12-4.572,0.904
	c-0.487,0.364-1.079,0.562-1.514,0.998c-0.202-0.202-0.403-0.404-0.606-0.607c-0.056-0.138,0.018-0.239,0.111-0.318
	c1.116-0.958,2.335-1.76,3.767-2.142c0.817-0.218,1.678-0.258,2.53-0.229c0.274,0.01,0.561,0.017,0.764,0.254
	C45.573,33.678,45.402,34.054,45.202,34.417z"/>
<path fill-rule="evenodd" clip-rule="evenodd" fill="#DF572C" d="M26.605,20.938c-1.636-1.481-3.375-2.813-5.407-3.716
	c-0.173-0.078-0.33-0.199-0.535-0.181c0.135-0.349,0.271-0.698,0.407-1.047c2.155,1.037,4.182,2.264,5.885,3.973
	c0.112,0.113,0.225,0.221,0.397,0.224C27.134,20.469,26.886,20.72,26.605,20.938z"/>
<path fill-rule="evenodd" clip-rule="evenodd" fill="#E79139" d="M37.492,10.05c-0.342-0.474-0.676-0.954-1.027-1.42
	c-0.515-0.683-0.581-1.542-0.931-2.288c-0.104-0.219,0.044-0.402,0.061-0.603c1.274,0.609,2.406,1.436,3.511,2.304
	c0.183,0.145,0.19,0.251,0.023,0.411C38.578,8.981,38.037,9.518,37.492,10.05z"/>
<path fill-rule="evenodd" clip-rule="evenodd" fill="#7E1D1E" d="M10.367,33.056c-0.17-0.357-0.542-0.36-0.837-0.402
	c-1.354-0.185-2.713-0.338-4.073-0.473c-0.391-0.037-0.792,0.028-1.189,0.046c-0.19-0.401-0.313-0.824-0.384-1.263
	c2.348,0.009,4.649,0.326,6.891,1.045C10.64,32.358,10.571,32.733,10.367,33.056z"/>
<path fill-rule="evenodd" clip-rule="evenodd" fill="#CD3250" d="M40.186,37.388c1.026-0.685,2.088-1.302,3.302-1.59
	c0.318-0.076,0.658-0.04,0.975,0.083c-0.589,1.147-1.346,2.181-2.133,3.194c-0.176,0.226-0.285,0.228-0.475,0.024
	C41.307,38.52,40.743,37.957,40.186,37.388z"/>
<path fill-rule="evenodd" clip-rule="evenodd" fill="#851E20" d="M15.585,37.551c0.217-0.277,0.465-0.523,0.742-0.741
	c0.291,0.057,0.499,0.249,0.676,0.46c1.006,1.198,1.794,2.546,2.61,3.874c0.064,0.104,0.083,0.228,0.092,0.351
	c-0.049,0.41-0.066,0.81,0.059,1.222c0.107,0.354,0.037,0.716-0.225,1.013c-0.289,0.075-0.294-0.173-0.355-0.33
	c-0.42-1.086-0.975-2.097-1.651-3.042c-0.429-0.842-1.117-1.497-1.637-2.273C15.782,37.912,15.62,37.77,15.585,37.551z"/>
<path fill-rule="evenodd" clip-rule="evenodd" fill="#D43B3B" d="M45.436,30.334c-0.041-0.028-0.082-0.081-0.124-0.085
	c-1.333-0.076-2.646,0.095-3.958,0.296c-0.115-0.114-0.378-0.085-0.337-0.352c0.556-0.563,1.208-0.985,1.912-1.336
	c0.339-0.087,0.683-0.151,1.034-0.138c0.766,0.03,1.53,0.063,2.297,0.004c0.22-0.018,0.457-0.034,0.641,0.146
	c-0.027,0.54-0.154,1.059-0.319,1.57C46.175,30.677,45.794,30.635,45.436,30.334z"/>
<path fill-rule="evenodd" clip-rule="evenodd" fill="#6D1618" d="M5.845,35.818c0.657-0.349,1.371-0.397,2.084-0.331
	c0.473,0.045,0.936,0.193,1.403,0.296c-0.398,1.1-0.796,2.2-1.23,3.398C7.207,38.083,6.436,37.014,5.845,35.818z"/>
<path fill-rule="evenodd" clip-rule="evenodd" fill="#D13544" d="M45.682,33.277c-2.537-0.446-4.708,0.361-6.644,1.951
	c-0.182,0.149-0.438,0.23-0.528,0.483c-0.14-0.139-0.278-0.278-0.419-0.418c-0.069-0.184,0.044-0.307,0.163-0.405
	c1.488-1.229,3.045-2.349,4.996-2.71c0.852-0.157,1.713-0.311,2.589-0.302c0.117,0.01,0.224,0.045,0.308,0.133
	C46.03,32.446,45.894,32.875,45.682,33.277z"/>
<path fill-rule="evenodd" clip-rule="evenodd" fill="#E68C39" d="M39.881,13.256c0.592,0.452,1.209,0.812,1.966,0.979
	c0.837,0.185,1.638,0.242,2.453-0.026c0.251,0.361,0.477,0.735,0.616,1.155c-0.354,0.069-0.707,0.138-1.061,0.208
	c-1.66,0.326-3.076-0.345-4.467-1.1c-0.142-0.077-0.23-0.25-0.345-0.378C39.292,13.784,39.573,13.507,39.881,13.256z"/>
<path fill-rule="evenodd" clip-rule="evenodd" fill="#DE572D" d="M37.271,23.111c-1.233-0.36-2.35-1.004-3.542-1.468
	c-0.5-0.195-0.87-0.614-1.279-0.955c0.248-0.31,0.528-0.588,0.837-0.837c0.675,0.6,1.554,0.815,2.321,1.239
	c1.079,0.596,2.238,0.934,3.429,1.206c0.195,0.044,0.517-0.039,0.527,0.33c-0.393,0.256-0.843,0.278-1.286,0.31
	C37.934,22.961,37.592,22.973,37.271,23.111z"/>
<path fill-rule="evenodd" clip-rule="evenodd" fill="#DC5D31" d="M46.989,21.961c0.085,0.379,0.153,0.759,0.124,1.15
	c-1.019,0.272-2.053,0.148-3.082,0.116c-0.153-0.004-0.308-0.041-0.461-0.058c-0.791-0.014-1.57-0.112-2.345-0.265
	c-0.402-0.198-0.816-0.379-1.124-0.724c-0.075-0.084-0.211-0.16-0.052-0.287c0.889-0.224,1.787-0.072,2.682-0.063
	c0.154,0.001,0.311,0.033,0.466-0.001c0.52-0.042,1.035-0.04,1.554,0.043c0.43,0.069,0.86,0.026,1.292-0.031
	C46.363,21.798,46.699,21.724,46.989,21.961z"/>
<path fill-rule="evenodd" clip-rule="evenodd" fill="#DA5032" d="M47.198,24.054c0.005,0.349,0.009,0.698,0.014,1.047
	c-0.771,0.404-1.602,0.25-2.41,0.238c-0.396-0.007-0.797-0.044-1.196-0.033c-0.503-0.177-1.027-0.158-1.549-0.173
	c-0.193-0.006-0.378-0.06-0.561-0.121c-0.645-0.035-0.847-0.663-1.289-0.97c-0.06-0.041-0.005-0.125,0.06-0.166
	c0.761-0.166,1.526-0.072,2.289-0.057c0.19,0.004,0.381,0.044,0.573,0.02c1.29,0.099,2.582,0.19,3.879,0.144
	C47.08,23.981,47.144,24.009,47.198,24.054z"/>
<path fill-rule="evenodd" clip-rule="evenodd" fill="#D73B2E" d="M33.067,30.27c0.165-0.298,0.475-0.408,0.75-0.563
	c1.216-0.702,2.59-0.625,3.915-0.793c0.309,0.424-0.132,0.631-0.271,0.925c-0.489,0.407-1.019,0.764-1.543,1.122
	c-0.426,0.291-0.661,0.804-1.177,0.985C34.153,31.417,33.594,30.858,33.067,30.27z"/>
<path fill-rule="evenodd" clip-rule="evenodd" fill="#D53F38" d="M46.9,28.869c-1.357,0.118-2.725-0.108-4.081,0.104
	c-0.363,0.057-0.71,0.015-1.033-0.172c-0.063-0.38,0.225-0.6,0.396-0.875c0.758-0.486,1.64-0.438,2.48-0.574
	c0.652-0.019,1.308,0.035,1.958-0.072c0.173-0.029,0.345-0.005,0.483,0.123C46.937,27.879,47.125,28.402,46.9,28.869z"/>
<path fill-rule="evenodd" clip-rule="evenodd" fill="#D23740" d="M46.146,32.01c-0.098,0-0.195,0-0.291,0
	c-0.842-0.201-1.693-0.074-2.534-0.021c-1.205,0.079-2.346,0.478-3.475,0.889c-0.188,0.068-0.37,0.223-0.587,0.075
	c0.215-0.294,0.557-0.408,0.854-0.574c0.501-0.28,0.987-0.566,1.455-0.907c0.546-0.397,1.235-0.541,1.889-0.709
	s1.319-0.286,1.979-0.428c0.379,0.08,0.758,0.135,1.146,0.105C46.508,30.983,46.336,31.498,46.146,32.01z"/>
<path fill-rule="evenodd" clip-rule="evenodd" fill="#D13441" d="M39.26,32.952c0.822-0.323,1.654-0.62,2.508-0.85
	c1.17-0.315,2.366-0.338,3.565-0.293c0.185,0.007,0.378,0.059,0.522,0.2c-2.687,0.021-5.062,0.878-7.094,2.647
	c-0.231,0.201-0.546,0.319-0.671,0.637c-0.28-0.222-0.533-0.473-0.755-0.755C37.978,34.01,38.618,33.481,39.26,32.952z"/>
<path fill-rule="evenodd" clip-rule="evenodd" fill="#D74734" d="M47.104,27.403c-0.832,0.135-1.669,0.102-2.505,0.105
	c-0.77-0.122-1.532-0.279-2.307-0.372c-0.188-0.022-0.387-0.001-0.544-0.14c-0.095-0.415-0.046-0.771,0.403-0.956
	c0.62-0.111,1.246-0.058,1.868-0.053c0.901,0.006,1.797,0.143,2.699,0.108c0.173-0.006,0.348,0.02,0.48,0.156
	c-0.001,0.037-0.002,0.073-0.003,0.109c-0.091,0.247,0.024,0.515-0.075,0.761C47.115,27.216,47.109,27.31,47.104,27.403z"/>
<path fill-rule="evenodd" clip-rule="evenodd" fill="#DE5C2E" d="M39.993,21.96c0.384,0.279,0.768,0.558,1.151,0.837
	c-0.555,0.169-1.071,0.042-1.57-0.209c-0.406-0.206-0.861-0.231-1.294-0.327c-1.137-0.249-2.154-0.771-3.186-1.276
	c-0.569-0.28-1.241-0.371-1.657-0.923c-0.053-0.069-0.101-0.141-0.151-0.211c0.173-0.172,0.344-0.344,0.515-0.516
	c0.409,0.011,0.681,0.313,1.011,0.485c1.327,0.695,2.669,1.348,4.136,1.702C39.315,21.611,39.688,21.709,39.993,21.96z"/>
<path fill-rule="evenodd" clip-rule="evenodd" fill="#D23F26" d="M15.398,19.764c-1.542-0.611-2.957-1.442-4.282-2.438
	c-0.286-0.214-0.505-0.533-0.886-0.612c0.254-0.317,0.54-0.602,0.856-0.855c0.248,0.067,0.397,0.273,0.578,0.428
	c1.076,0.918,2.302,1.588,3.56,2.211c0.189,0.094,0.5,0.101,0.487,0.438C15.668,19.234,15.545,19.503,15.398,19.764z"/>
<path fill-rule="evenodd" clip-rule="evenodd" fill="#8B2021" d="M19.58,41.432c-0.242-0.717-0.762-1.267-1.135-1.905
	c-0.583-0.998-1.237-1.947-2.117-2.717c0.214-0.275,0.459-0.518,0.733-0.732c0.759,0.511,1.286,1.234,1.797,1.971
	c0.117,0.169,0.186,0.371,0.294,0.549c0.579,0.852,1.073,1.739,1.23,2.778c-0.11,0.216-0.04,0.473-0.155,0.689
	C19.836,42.031,19.767,41.671,19.58,41.432z"/>
<path fill-rule="evenodd" clip-rule="evenodd" fill="#DF602F" d="M39.993,21.96c-2.204-0.545-4.308-1.328-6.192-2.625
	c0.175-0.174,0.349-0.348,0.523-0.522c0.331-0.151,0.584,0.067,0.813,0.223c1.316,0.893,2.794,1.412,4.283,1.908
	c1.041,0.339,2.051,0.796,3.18,0.774c0.205-0.004,0.429,0,0.533,0.242c-0.247,0.142-0.496,0-0.737-0.014
	C41.594,21.899,40.794,21.966,39.993,21.96z"/>
<path fill-rule="evenodd" clip-rule="evenodd" fill="#B92F5D" d="M34.229,37.066c0.468,0.363,0.866,0.796,1.255,1.24
	c0.019,0.048,0.043,0.108,0.019,0.149c-0.488,0.785-0.94,1.592-1.417,2.385c-0.053,0.087-0.152,0.138-0.255,0.169
	c-0.265,0.05-0.529,0.084-0.773-0.077c-0.286-0.628-0.295-1.273-0.127-1.931c0.221-0.626,0.606-1.157,0.976-1.699
	C33.986,37.187,34.08,37.088,34.229,37.066z"/>
<path fill-rule="evenodd" clip-rule="evenodd" fill="#D63832" d="M34.742,31.946c0.729-0.896,1.677-1.521,2.634-2.135
	c0.511-0.358,1.079-0.394,1.671-0.303c0.3,0.209,0.035,0.354-0.071,0.495c-0.521,0.702-1.174,1.269-1.882,1.775
	c-0.439,0.315-0.826,0.684-1.118,1.144c-0.062,0.057-0.127,0.091-0.21,0.046C35.395,32.657,35.053,32.317,34.742,31.946z"/>
<path fill-rule="evenodd" clip-rule="evenodd" fill="#DD6331" d="M43.134,21.96c-0.544-0.215-1.14-0.02-1.686-0.21
	c-0.695-0.243-1.438-0.351-2.083-0.732c0.131-0.143,0.31-0.161,0.481-0.15c1.652,0.106,3.308,0.156,4.961,0.255
	c0.672,0.083,1.324-0.226,1.998-0.104c-0.017,0.33,0.244,0.604,0.184,0.943C45.704,22.12,44.419,21.955,43.134,21.96z"/>
<path fill-rule="evenodd" clip-rule="evenodd" fill="#B92D64" d="M33.921,40.908c0.507-0.876,0.97-1.777,1.563-2.602
	c0.44,0.332,0.781,0.767,1.153,1.167c-0.521,0.796-0.904,1.66-1.255,2.542c-0.062,0.157-0.065,0.341-0.205,0.463
	c-0.512-0.355-0.849-0.887-1.32-1.282C33.826,41.088,33.841,40.99,33.921,40.908z"/>
<path fill-rule="evenodd" clip-rule="evenodd" fill="#E06630" d="M44.808,21.123c-1.814-0.035-3.628-0.069-5.442-0.104
	c-1.36-0.347-2.65-0.862-3.851-1.595c-0.382-0.234-0.743-0.506-1.19-0.609c0.217-0.277,0.464-0.524,0.742-0.741
	c0.356,0.472,0.871,0.75,1.375,0.998c1.461,0.719,2.929,1.421,4.567,1.686c1.065,0.173,2.138,0.161,3.205,0.264
	C44.414,21.039,44.636,20.942,44.808,21.123z"/>
<path fill-rule="evenodd" clip-rule="evenodd" fill="#C6352F" d="M24.17,28.967c0.314-0.318,0.592-0.836,0.953-0.901
	c0.385-0.069,0.651,0.513,0.964,0.813c0.497,0.479,0.962,0.99,1.44,1.488c-0.302,0.585-0.732,0.967-1.44,0.906
	C25.357,30.581,24.551,29.95,24.17,28.967z"/>
<path fill-rule="evenodd" clip-rule="evenodd" fill="#D54025" d="M15.712,18.936c-0.771-0.424-1.552-0.832-2.313-1.274
	c-0.852-0.495-1.674-1.032-2.313-1.803c0.212-0.276,0.458-0.52,0.732-0.733c0.575,0.788,1.317,1.379,2.19,1.792
	c0.612,0.29,1.154,0.71,1.807,0.917c0.125,0.04,0.204,0.13,0.21,0.27C15.982,18.403,15.859,18.674,15.712,18.936z"/>
<path fill-rule="evenodd" clip-rule="evenodd" fill="#BA2F55" d="M34.229,37.066c-0.419,0.595-0.847,1.184-1.146,1.853
	c-0.337,0.504-0.777,0.864-1.381,0.996c-0.266-0.114-0.402-0.339-0.502-0.595c-0.038-0.187-0.036-0.372,0.009-0.557
	c0.716-0.879,1.073-2.012,1.975-2.758C33.607,36.286,33.858,36.735,34.229,37.066z"/>
<path fill-rule="evenodd" clip-rule="evenodd" fill="#7E1C1E" d="M15.585,37.551c0.726,0.868,1.489,1.708,2.005,2.729
	c0.64,0.77,0.732,1.734,0.927,2.659c0.069,0.324-0.02,0.652-0.138,0.964c-0.269,0.121-0.267-0.122-0.32-0.255
	c-0.227-0.563-0.471-1.121-0.678-1.694c-0.116-0.358-0.351-0.681-0.323-1.084c0.003-0.048-0.014-0.112-0.046-0.145
	c-0.77-0.771-1.324-1.729-2.159-2.441C15.067,38.009,15.312,37.767,15.585,37.551z"/>
<path fill-rule="evenodd" clip-rule="evenodd" fill="#891C21" d="M20.208,42.06c0.064-0.205-0.255-0.474,0.105-0.628
	c0.274-0.045,0.345,0.189,0.449,0.351c0.262,0.405,0.494,0.83,0.733,1.25c0.499,1.078,0.416,2.229,0.417,3.366
	c0,0.363-0.146,0.617-0.583,0.487c-0.245,0.013-0.478-0.033-0.704-0.127c-0.073-0.082-0.1-0.184-0.086-0.289
	c0.157-1.208-0.061-2.381-0.317-3.553C20.162,42.641,20.04,42.347,20.208,42.06z"/>
<path fill-rule="evenodd" clip-rule="evenodd" fill="#AF2955" d="M32.454,46.007c-0.452,0.143-0.907,0.283-1.36,0.426
	c-0.264-0.19-0.324-0.491-0.388-0.774c-0.139-0.626-0.239-1.261-0.272-1.903c0.033-0.314,0.08-0.627,0.165-0.934
	c0.295-0.297,0.544-0.687,1.067-0.53c0.174,0.326,0.232,0.686,0.314,1.04c0.169,0.742,0.161,1.52,0.478,2.231
	C32.52,45.7,32.567,45.86,32.454,46.007z"/>
<path fill-rule="evenodd" clip-rule="evenodd" fill="#B32E27" d="M20.724,32.413c0.214-0.275,0.459-0.519,0.733-0.733
	c0.351,0.133,0.624,0.407,0.838,0.669c0.569,0.696,1.362,1.172,1.851,1.938c0.122,0.249,0.296,0.479,0.304,0.772
	c-0.052,0.23-0.093,0.466-0.256,0.654c-0.186,0.104-0.362,0.063-0.535-0.033c-0.716-0.699-1.476-1.36-2.059-2.184
	c-0.164-0.23-0.358-0.418-0.576-0.593C20.869,32.781,20.656,32.678,20.724,32.413z"/>
<path fill-rule="evenodd" clip-rule="evenodd" fill="#B22B5A" d="M32.454,46.007c-0.479-1.201-0.547-2.494-0.835-3.738
	c-0.136-0.164-0.117-0.32,0.024-0.47c0.303-0.17,0.613-0.327,0.908-0.513c0.148-0.093,0.332-0.244,0.489,0.009
	c-0.019,1.273,0.17,2.532,0.307,3.793c0.022,0.203,0.093,0.417-0.056,0.605C33.014,45.798,32.733,45.903,32.454,46.007z"/>
<path fill-rule="evenodd" clip-rule="evenodd" fill="#801B1E" d="M18.323,43.944c0.234-0.856-0.17-1.655-0.228-2.486
	c-0.03-0.439-0.439-0.74-0.505-1.178c0.576,0.568,0.837,1.333,1.25,2.002c0.282,0.457,0.397,0.979,0.634,1.453
	c0.411,0.836,0.331,1.711,0.195,2.589c-0.016,0.101-0.088,0.192-0.224,0.146c-0.394-0.044-0.764-0.167-1.123-0.33
	c-0.057-0.068-0.101-0.149-0.087-0.234c0.096-0.577,0.138-1.152,0.001-1.729C18.218,44.095,18.262,44.009,18.323,43.944z"/>
<path fill-rule="evenodd" clip-rule="evenodd" fill="#851C20" d="M19.446,46.471c0.249-0.66,0.212-1.342,0.102-2.015
	c-0.04-0.242-0.068-0.479-0.073-0.721c0.183-0.441,0.295-0.886,0.06-1.341c-0.171-0.333,0.098-0.64,0.045-0.963
	c0.272,0.146,0.425,0.412,0.628,0.628c0.208,1.271,0.61,2.514,0.533,3.829c-0.017,0.298-0.096,0.578-0.115,0.87
	C20.212,46.747,19.828,46.616,19.446,46.471z"/>
<path fill-rule="evenodd" clip-rule="evenodd" fill="#8F1D23" d="M21.33,46.886c0.33,0.009,0.463-0.146,0.452-0.479
	c-0.024-0.731,0.043-1.475-0.068-2.191c-0.062-0.399-0.229-0.81-0.354-1.213c-0.276-0.628,0.057-1.211,0.131-1.813
	c0.215-0.224,0.301,0.019,0.392,0.129c0.322,0.388,0.601,0.804,0.727,1.304c0.035,0.145,0.05,0.291,0.047,0.439
	c0.142,1.106,0.001,2.212,0.007,3.318c0.002,0.239,0.032,0.491-0.153,0.692C22.098,47.13,21.716,46.99,21.33,46.886z"/>
<path fill-rule="evenodd" clip-rule="evenodd" fill="#D43638" d="M35.766,32.969c0.048-0.04,0.096-0.081,0.145-0.122
	c1.341-1.293,2.973-2.058,4.728-2.6c0.131-0.04,0.264-0.092,0.401-0.017c0.105,0.104,0.21,0.209,0.314,0.314
	c-1.03,0.277-1.833,0.949-2.659,1.569c-0.716,0.538-1.395,1.127-2.091,1.693C36.295,33.558,36.014,33.279,35.766,32.969z"/>
<path fill-rule="evenodd" clip-rule="evenodd" fill="#D84B33" d="M47.199,26.252c-1.705,0.053-3.406-0.184-5.112-0.104
	c-0.131,0.068-0.255,0.108-0.338-0.067c0.55-0.398,1.099-0.794,1.803-0.875c0.477-0.184,0.955-0.02,1.432-0.002
	c0.745,0.027,1.488-0.004,2.229-0.102C47.207,25.485,47.204,25.869,47.199,26.252z"/>
<path fill-rule="evenodd" clip-rule="evenodd" fill="#922222" d="M19.057,38.604c-0.488-0.982-1.313-1.699-1.996-2.527
	c0.175-0.237,0.383-0.443,0.619-0.62c0.438-0.008,0.621,0.36,0.83,0.627c0.919,1.174,1.967,2.259,2.618,3.626
	c0.064,0.116,0.121,0.233,0.042,0.364C20.231,39.921,19.631,39.281,19.057,38.604z"/>
<path fill-rule="evenodd" clip-rule="evenodd" fill="#C2342D" d="M24.17,28.967c0.549,0.808,1.253,1.481,1.9,2.206
	c0.037,0.405,0.177,0.805,0.056,1.218c-0.497,0.147-0.849-0.237-1.275-0.355c-0.143-0.039-0.266-0.15-0.38-0.255
	c-0.341-0.477-0.702-0.938-1.135-1.339c-0.119-0.111-0.277-0.226-0.204-0.437C23.478,29.659,23.824,29.313,24.17,28.967z"/>
<path fill-rule="evenodd" clip-rule="evenodd" fill="#B32C5F" d="M33.292,45.693c-0.139-1.182-0.282-2.363-0.414-3.547
	c-0.036-0.312,0.001-0.623,0.101-0.924c-0.105-0.152-0.036-0.245,0.105-0.314c0.278,0,0.559,0,0.837,0c0,0.104,0,0.209,0,0.314
	c0.237,0.389-0.003,0.808,0.083,1.216c0.168,0.792,0.147,1.613,0.362,2.4c0.032,0.115,0.036,0.239-0.027,0.353
	C34.034,45.451,33.66,45.566,33.292,45.693z"/>
<path fill-rule="evenodd" clip-rule="evenodd" fill="#C43434" d="M26.07,32.429c0.066-0.419-0.271-0.839,0-1.256
	c0.696,0.111,1.002-0.482,1.457-0.807c0.396,0.297,0.729,0.657,1.05,1.032c0.133,0.157,0.049,0.313-0.05,0.419
	c-0.443,0.478-0.785,1.044-1.278,1.478c-0.459-0.08-0.717-0.491-1.115-0.672C26.079,32.569,26.034,32.513,26.07,32.429z"/>
<path fill-rule="evenodd" clip-rule="evenodd" fill="#AD2B25" d="M20.724,32.413c0.675,0.563,1.138,1.319,1.761,1.931
	c0.403,0.397,0.785,0.815,1.177,1.226c0.174,0.286,0.194,0.566-0.029,0.839c-0.375,0.215-0.641-0.045-0.927-0.212
	c-0.736-1.01-1.695-1.822-2.478-2.791c-0.085-0.104-0.2-0.202-0.132-0.364C20.275,32.801,20.486,32.593,20.724,32.413z"/>
<path fill-rule="evenodd" clip-rule="evenodd" fill="#B52C63" d="M34.339,45.191c-0.373-1.299-0.563-2.616-0.418-3.969
	c0.58,0.258,0.893,0.782,1.257,1.256c-0.042,0.731,0.186,1.409,0.417,2.085C35.226,44.873,34.821,45.11,34.339,45.191z"/>
<path fill-rule="evenodd" clip-rule="evenodd" fill="#A22724" d="M18.84,34.297c0.141-0.202,0.313-0.372,0.514-0.516
	c0.283-0.066,0.39,0.179,0.551,0.317c1.094,0.95,1.919,2.141,2.868,3.222c0.067,0.139,0.112,0.283,0.096,0.44
	c-0.052,0.147-0.132,0.276-0.265,0.366c-0.331,0.064-0.581-0.08-0.77-0.327c-0.223-0.293-0.494-0.538-0.742-0.806
	c-0.664-0.793-1.224-1.677-2.062-2.314C18.91,34.589,18.77,34.49,18.84,34.297z"/>
<path fill-rule="evenodd" clip-rule="evenodd" fill="#A72924" d="M22.72,37.349c-0.296-0.215-0.545-0.471-0.756-0.772
	c-0.737-1.054-1.645-1.95-2.609-2.795c0.217-0.277,0.465-0.522,0.742-0.74c0.349,0.403,0.672,0.832,1.051,1.205
	c0.58,0.571,1.124,1.167,1.573,1.847C22.75,36.512,22.75,36.93,22.72,37.349z"/>
<path fill-rule="evenodd" clip-rule="evenodd" fill="#DB5632" d="M47.198,24.054c-0.25,0.081-0.505,0.117-0.77,0.107
	c-1.101-0.04-2.204-0.019-3.295-0.212c-0.194-0.462,0.089-0.712,0.418-0.942c1.053,0.131,2.104,0.179,3.16,0.021
	c0.126-0.019,0.268,0.053,0.401,0.083C47.211,23.42,47.221,23.735,47.198,24.054z"/>
<path fill-rule="evenodd" clip-rule="evenodd" fill="#9C2723" d="M18.84,34.297c0.716,0.648,1.385,1.342,1.964,2.12
	c0.124,0.167,0.261,0.32,0.346,0.513c0.495,0.49,0.262,1.084,0.233,1.649c-0.039,0.038-0.084,0.056-0.139,0.052
	c-0.458-0.316-0.609-0.869-0.992-1.259c-0.623-0.632-1.182-1.326-1.795-1.97c-0.125-0.13-0.318-0.239-0.245-0.477
	C18.391,34.685,18.602,34.478,18.84,34.297z"/>
<path fill-rule="evenodd" clip-rule="evenodd" fill="#962523" d="M18.212,34.926c0.751,0.84,1.482,1.702,2.263,2.515
	c0.337,0.351,0.49,0.797,0.779,1.164c0.066,0.254,0.059,0.514,0.033,0.769c-0.016,0.159,0.006,0.363-0.242,0.383
	c-0.134-0.137-0.223-0.3-0.318-0.466c-0.822-1.43-1.87-2.684-3.047-3.833C17.827,35.25,18.005,35.073,18.212,34.926z"/>
<path fill-rule="evenodd" clip-rule="evenodd" fill="#7B1A1D" d="M18.323,43.944c0.218,0.732,0.184,1.464,0,2.196
	c-0.487-0.104-0.951-0.274-1.391-0.508c0.199-0.155,0.219-0.409,0.219-0.606c0.001-1.03,0.174-2.047,0.23-3.072
	c0.444,0.51,0.584,1.163,0.831,1.766C18.245,43.799,18.245,43.889,18.323,43.944z"/>
<path fill-rule="evenodd" clip-rule="evenodd" fill="#BB304E" d="M33.185,36.006c-0.694,0.854-1.091,1.916-1.88,2.704
	c-0.281-0.316-0.531-0.651-0.695-1.046c0.426-0.938,0.904-1.84,1.737-2.496C32.659,35.413,32.938,35.694,33.185,36.006z"/>
<path fill-rule="evenodd" clip-rule="evenodd" fill="#B9302A" d="M24.081,34.313c-0.875-0.879-1.749-1.756-2.624-2.634
	c0.176-0.237,0.383-0.442,0.62-0.62c0.437,0.027,0.671,0.378,0.955,0.629c0.412,0.363,0.78,0.774,1.205,1.126
	c0.13,0.272,0.371,0.481,0.451,0.783C24.604,33.938,24.487,34.248,24.081,34.313z"/>
<path fill-rule="evenodd" clip-rule="evenodd" fill="#B82D6E" d="M37.186,43.674c-0.329-0.914-0.003-1.739,0.364-2.552
	c0.076-0.171,0.224-0.311,0.239-0.511c0.434,0.42,0.859,0.847,1.304,1.256c0.223,0.206,0.151,0.336-0.05,0.488
	C38.438,42.813,37.854,43.303,37.186,43.674z"/>
<path fill-rule="evenodd" clip-rule="evenodd" fill="#C23338" d="M27.222,33.266c0.316-0.475,0.661-0.927,1.067-1.328
	c0.151-0.15,0.266-0.32,0.288-0.539c0.471,0.372,0.853,0.831,1.254,1.271c-0.166,0.474-0.49,0.827-0.866,1.143
	c-0.576,0.212-1.105-0.009-1.643-0.171C27.204,33.539,27.108,33.431,27.222,33.266z"/>
<path fill-rule="evenodd" clip-rule="evenodd" fill="#A8264B" d="M30.049,46.665c-0.26,0.149-0.55,0.166-0.836,0.195
	c-0.281-1.016-0.6-2.022-0.565-3.097c0.029-0.487,0.178-0.94,0.406-1.371c0.043-0.042,0.095-0.058,0.154-0.046
	c0.304,0.402,0.552,0.83,0.614,1.344c0.005,0.805,0.221,1.582,0.295,2.377C30.136,46.273,30.208,46.482,30.049,46.665z"/>
<path fill-rule="evenodd" clip-rule="evenodd" fill="#95212B" d="M24.257,47.201c-0.233-0.009-0.467-0.018-0.699-0.026
	c-0.229-0.265-0.133-0.593-0.172-0.893c-0.078-0.597-0.179-1.19-0.179-1.795c0.185-0.676,0.133-1.385,0.291-2.065
	c0.334-0.154,0.323,0.174,0.384,0.315c0.171,0.396,0.218,0.839,0.401,1.235c0.035,1.078,0.304,2.141,0.233,3.228
	C24.429,47.249,24.343,47.244,24.257,47.201z"/>
<path fill-rule="evenodd" clip-rule="evenodd" fill="#BE322B" d="M24.186,32.847c-0.286-0.103-0.486-0.316-0.687-0.53
	c-0.435-0.462-0.91-0.881-1.422-1.257c0.352-0.352,0.704-0.703,1.056-1.055c0.421,0.592,1.089,0.983,1.368,1.69
	C24.478,32.103,24.385,32.489,24.186,32.847z"/>
<path fill-rule="evenodd" clip-rule="evenodd" fill="#BC3049" d="M32.347,35.168c-0.002,0.11-0.046,0.201-0.129,0.271
	c-0.713,0.603-1.046,1.471-1.541,2.225c-0.056,0.1-0.121,0.168-0.243,0.094c-0.15-0.37-0.296-0.742-0.433-1.118
	c0.351-0.868,0.949-1.574,1.508-2.308C31.822,34.576,32.099,34.857,32.347,35.168z"/>
<path fill-rule="evenodd" clip-rule="evenodd" fill="#A62646" d="M28.792,43.735c-0.046,0.875,0.185,1.705,0.412,2.537
	c0.055,0.197,0.169,0.39,0.009,0.588c-0.411,0.116-0.83,0.173-1.255,0.203c0.091-0.392-0.049-0.774-0.038-1.164
	c0.056-0.666-0.046-1.335,0.047-2.001c0.025-0.187,0.015-0.377,0.125-0.543C28.506,43.147,28.618,43.497,28.792,43.735z"/>
<path fill-rule="evenodd" clip-rule="evenodd" fill="#BC3143" d="M31.509,34.331c-0.122,0.525-0.548,0.86-0.813,1.299
	c-0.204,0.335-0.43,0.658-0.646,0.985c-0.203,0.31-0.516,0.274-0.82,0.265c-0.108-0.048-0.173-0.135-0.208-0.244
	c-0.065-0.396,0.184-0.689,0.34-1.009c0.129-0.263,0.261-0.524,0.393-0.786c0.344-0.425,0.871-0.63,1.233-1.033
	C31.194,33.948,31.366,34.126,31.509,34.331z"/>
<path fill-rule="evenodd" clip-rule="evenodd" fill="#9E2339" d="M26.909,47.17c-0.279,0.01-0.559,0.021-0.839,0.031
	c-0.168-0.197-0.178-0.445-0.214-0.682c-0.123-0.799-0.279-1.596-0.231-2.411c0.089-0.271,0.021-0.596,0.272-0.813
	c0.303,0.035,0.362,0.305,0.454,0.514c0.219,0.49,0.431,0.984,0.662,1.47c0.065,0.438,0.062,0.883,0.127,1.322
	C27.172,46.818,27.163,47.053,26.909,47.17z"/>
<path fill-rule="evenodd" clip-rule="evenodd" fill="#911F27" d="M23.348,44.467c0.026,0.907,0.268,1.796,0.209,2.708
	c-0.036-0.002-0.072-0.003-0.108-0.004c-0.209-0.092-0.442,0.021-0.651-0.078c-0.096-0.007-0.192-0.015-0.288-0.021
	c-0.05-1.356,0.14-2.713,0-4.069c0.178-0.052,0.262,0.075,0.307,0.199C22.975,43.632,23.264,44.007,23.348,44.467z"/>
<path fill-rule="evenodd" clip-rule="evenodd" fill="#A22540" d="M26.909,47.17c0.223-0.366,0.031-0.729,0.004-1.097
	c-0.022-0.29-0.005-0.582-0.006-0.873c-0.187-0.54-0.111-1.06,0.107-1.571c0.283-0.042,0.33,0.194,0.414,0.369
	c0.293,0.616,0.608,1.229,0.63,1.934c0,0.204-0.001,0.404,0.077,0.603c0.083,0.213,0.02,0.398-0.178,0.529
	C27.609,47.1,27.26,47.134,26.909,47.17z"/>
<path fill-rule="evenodd" clip-rule="evenodd" fill="#AB2850" d="M30.049,46.665c-0.121-0.83-0.228-1.664-0.37-2.491
	c-0.034-0.2-0.042-0.37,0.056-0.544c0.305-0.177,0.573-0.063,0.837,0.105c0.077,0.917,0.203,1.825,0.522,2.697
	C30.747,46.514,30.42,46.688,30.049,46.665z"/>
<path fill-rule="evenodd" clip-rule="evenodd" fill="#9A2234" d="M25.755,44.049c-0.036,1.065,0.264,2.096,0.315,3.152l-0.032,0.02
	L26.007,47.2c-0.323,0.071-0.648,0.043-0.974,0.019c-0.176-0.157-0.185-0.377-0.158-0.576c0.13-0.961,0.096-1.924,0.057-2.888
	c0.095-0.245,0.262-0.155,0.415-0.079C25.516,43.76,25.656,43.884,25.755,44.049z"/>
<path fill-rule="evenodd" clip-rule="evenodd" fill="#C0323F" d="M30.986,33.808c-0.166,0.586-0.77,0.679-1.147,1.028
	c-0.398-0.053-0.704-0.253-0.926-0.587c-0.059-0.201-0.06-0.395,0.088-0.564c0.277-0.338,0.554-0.678,0.83-1.016
	C30.266,32.999,30.631,33.397,30.986,33.808z"/>
<path fill-rule="evenodd" clip-rule="evenodd" fill="#9E2339" d="M25.02,47.172c0.329,0.009,0.658,0.019,0.987,0.028
	c-0.583,0.103-1.167,0.1-1.75,0.001c0.077-0.011,0.154-0.022,0.231-0.033C24.667,47.029,24.844,47.048,25.02,47.172z"/>
<path fill-rule="evenodd" clip-rule="evenodd" fill="#D84B33" d="M47.121,27.122c0.019-0.255-0.091-0.521,0.075-0.761
	C47.207,26.618,47.232,26.877,47.121,27.122z"/>
<path fill-rule="evenodd" clip-rule="evenodd" fill="#95212B" d="M22.798,47.093c0.218,0.014,0.45-0.082,0.651,0.078
	C23.227,47.186,23.007,47.193,22.798,47.093z"/>
<path fill-rule="evenodd" clip-rule="evenodd" fill="#DA452C" d="M36.539,27.613c-0.803-0.279-1.606-0.559-2.409-0.838
	c0.029-0.309,0.275-0.41,0.506-0.403c0.429,0.015,0.647-0.237,0.855-0.539c0.049-0.05,0.111-0.101,0.178-0.094
	c0.991,0.108,2.003-0.086,2.979,0.209c0.231,0.137,0.145,0.315,0.053,0.482c-0.188,0.341-0.376,0.686-0.699,0.928
	c-0.301,0.132-0.619,0.202-0.93,0.304C36.892,27.723,36.703,27.767,36.539,27.613z"/>
<path fill-rule="evenodd" clip-rule="evenodd" fill="#DB4A2B" d="M38.737,26.043c-1.073-0.209-2.174,0.002-3.246-0.209
	c-0.246-0.321-0.651-0.136-0.95-0.299c-0.163-0.09-0.343-0.151-0.515-0.225c0.169-0.427,0.431-0.663,0.915-0.444
	c0.045,0.021,0.113,0.038,0.151,0.019c0.489-0.246,1.041-0.17,1.55-0.308c0.695-0.093,1.327,0.172,1.974,0.354
	c0.189,0.302,0.444,0.579,0.393,0.978C38.948,26.016,38.87,26.087,38.737,26.043z"/>
<path fill-rule="evenodd" clip-rule="evenodd" fill="#D83F2F" d="M36.539,27.613c0.518,0.038,0.945-0.353,1.465-0.314
	c0.372-0.241,0.745-0.16,1.119-0.005c0.244,0.174,0.434,0.379,0.404,0.709c-0.515,0.434-1.052,0.831-1.732,0.971
	c-0.913,0.242-1.865,0.232-2.789,0.41c-0.405,0.077-0.769,0.309-1.188,0.323c0.799-0.592,1.595-1.186,2.398-1.771
	C36.343,27.844,36.469,27.759,36.539,27.613z"/>
<path fill-rule="evenodd" clip-rule="evenodd" fill="#DC4E2D" d="M38.632,24.996c-0.674-0.089-1.333-0.243-1.989-0.418
	c-0.423-0.2-0.921-0.251-1.256-0.628c0.143-0.16,0.313-0.091,0.485-0.071c0.812,0.095,1.628,0.187,2.421-0.087
	c0.193-0.067,0.375,0.044,0.548-0.051c0.482-0.113,0.947-0.112,1.361,0.209c0.292,0.207,0.667,0.307,0.768,0.742
	c0.044,0.19,0.369,0.011,0.488,0.2C40.526,25.213,39.587,25.31,38.632,24.996z"/>
<path fill-rule="evenodd" clip-rule="evenodd" fill="#DC562F" d="M40.202,23.949c-0.453-0.069-0.906-0.14-1.361-0.209
	c-0.468-0.347-1.019-0.488-1.57-0.628c0.225-0.245,0.496-0.351,0.831-0.315c0.506,0.053,0.978-0.16,1.473-0.208
	c0.523,0.07,1.047,0.14,1.57,0.209c0.808,0.002,1.595,0.263,2.407,0.21c-0.181,0.295-0.423,0.563-0.418,0.942
	c-0.264,0.26-0.523-0.022-0.789-0.011C41.632,23.97,40.916,23.949,40.202,23.949z"/>
<path fill-rule="evenodd" clip-rule="evenodd" fill="#D43936" d="M41.039,30.23c-0.568,0.207-1.13,0.433-1.705,0.619
	c-1.177,0.378-2.12,1.145-3.106,1.842c-0.1,0.07-0.185,0.157-0.317,0.155c0.36-0.762,1.089-1.153,1.711-1.633
	c0.603-0.464,1.028-1.071,1.534-1.611c0.056-0.188,0.218-0.266,0.372-0.337c0.711-0.331,1.457-0.51,2.245-0.501
	c0.359,0.018,0.708,0.087,1.047,0.209C42.226,29.393,41.633,29.812,41.039,30.23z"/>
<path fill-rule="evenodd" clip-rule="evenodd" fill="#D94B30" d="M38.632,24.996c0.945,0.044,1.886-0.025,2.826-0.104
	c0.505,0.124,1.018,0.101,1.53,0.11c0.202,0.004,0.403,0.058,0.563,0.204c-0.603,0.258-1.123,0.692-1.779,0.837
	c-0.098,0.116-0.234,0.145-0.372,0.148c-0.636,0.023-1.272,0.035-1.908-0.008c-0.206-0.014-0.409-0.063-0.546-0.245
	C38.989,25.575,38.564,25.368,38.632,24.996z"/>
<path fill-rule="evenodd" clip-rule="evenodd" fill="#D63D32" d="M41.772,28.765c-0.867,0.296-1.828,0.298-2.617,0.838
	c-0.606-0.036-1.193,0.076-1.779,0.209c0.102-0.298,0.392-0.502,0.419-0.838c0.556-0.318,1.082-0.688,1.674-0.941
	c0.122-0.111,0.271-0.152,0.43-0.157c0.623-0.019,1.245-0.02,1.867,0c0.155,0.006,0.312,0.03,0.426,0.157
	C42.111,28.311,41.955,28.545,41.772,28.765z"/>
<path fill-rule="evenodd" clip-rule="evenodd" fill="#D74133" d="M42.191,28.032c-0.908,0-1.814,0-2.723,0
	c-0.011-0.257-0.196-0.426-0.313-0.629c0.697-0.377,1.464-0.478,2.236-0.555c0.142-0.014,0.272,0.041,0.381,0.137
	c0.973,0.011,1.925,0.129,2.826,0.523C43.782,27.621,42.944,27.628,42.191,28.032z"/>
<path fill-rule="evenodd" clip-rule="evenodd" fill="#D94530" d="M41.772,26.985c-0.732-0.061-1.417,0.188-2.114,0.341
	c-0.168,0.037-0.33,0.084-0.503,0.077c-0.375-0.14-0.766-0.101-1.151-0.104c0.194-0.447,0.585-0.78,0.733-1.256
	c0.069-0.035,0.139-0.07,0.209-0.104c0.936,0.196,1.884,0.067,2.826,0.104c0.075,0.123,0.199,0.102,0.314,0.105
	C41.798,26.358,41.893,26.712,41.772,26.985z"/>
<path fill-rule="evenodd" clip-rule="evenodd" fill="#8F2022" d="M19.057,38.604c0.675,0.521,1.293,1.124,2.093,1.466
	c0.248,0.306,0.541,0.594,0.418,1.047c0.086,0.646-0.295,1.239-0.209,1.885c-0.392-0.495-0.563-1.137-1.046-1.57
	C20.08,40.406,19.578,39.501,19.057,38.604z"/>
<path fill-rule="evenodd" clip-rule="evenodd" fill="#B52C58" d="M33.084,40.908c-0.035,0.104-0.069,0.209-0.105,0.314
	c-0.46,0.125-0.765,0.563-1.256,0.628c-0.263-0.663-0.263-1.327,0-1.989c0.498-0.251,0.94-0.581,1.361-0.942
	C32.851,39.581,33.042,40.245,33.084,40.908z"/>
<path fill-rule="evenodd" clip-rule="evenodd" fill="#B52B4D" d="M30.467,37.768c0.069-0.035,0.139-0.069,0.21-0.104
	c0.22,0.342,0.554,0.617,0.628,1.047c0,0.209,0,0.418,0,0.628c-0.256,0.549-0.341,1.203-0.956,1.526
	c-0.148-0.005-0.268-0.062-0.363-0.174c-0.247-0.54-0.257-1.13-0.349-1.702C29.796,38.501,29.975,38.027,30.467,37.768z"/>
<path fill-rule="evenodd" clip-rule="evenodd" fill="#B22B53" d="M30.361,40.803c0.479-0.382,0.509-1.054,0.943-1.465
	c0.14,0.174,0.278,0.349,0.418,0.523c0,0.662,0,1.326,0,1.989c-0.153,0.109-0.09,0.273-0.104,0.418
	c-0.367,0.081-0.61,0.383-0.942,0.524c-0.143-0.121-0.187-0.295-0.193-0.46c-0.016-0.395-0.048-0.779-0.2-1.149
	C30.229,41.054,30.254,40.912,30.361,40.803z"/>
<path fill-rule="evenodd" clip-rule="evenodd" fill="#AE284E" d="M30.361,40.803c0.164,0.654,0.297,1.313,0.315,1.99
	c0.05,0.323-0.081,0.626-0.105,0.942c-0.29,0.051-0.554-0.1-0.837-0.105c-0.114-0.444-0.456-0.793-0.523-1.257
	c0.041-0.597,0.377-1.082,0.61-1.606c0.033-0.075,0.133-0.105,0.228-0.068C30.152,40.733,30.257,40.768,30.361,40.803z"/>
<path fill-rule="evenodd" clip-rule="evenodd" fill="#B22C2F" d="M24.186,35.674c0.009-0.229,0.055-0.447,0.209-0.629
	c0.366-0.141,0.601,0.174,0.893,0.275c0.304,0.107,0.583,0.296,0.836,0.506c0.132,0.149,0.196,0.325,0.217,0.52
	c-0.061,0.461-0.143,0.918-0.351,1.341c-0.122,0.09-0.255,0.096-0.396,0.06c-0.083-0.028-0.166-0.068-0.215-0.139
	c-0.396-0.563-0.778-1.134-1.186-1.688C24.142,35.852,24.138,35.757,24.186,35.674z"/>
<path fill-rule="evenodd" clip-rule="evenodd" fill="#AC2A2E" d="M24.186,35.674c0.453,0.663,0.907,1.325,1.36,1.989
	c0.14,0.285,0.008,0.492-0.196,0.68c-0.358,0.132-0.659-0.02-0.956-0.192c-0.324-0.56-0.737-1.077-0.837-1.744
	c0.162-0.263,0.089-0.555,0.104-0.837C23.824,35.669,24.002,35.686,24.186,35.674z"/>
<path fill-rule="evenodd" clip-rule="evenodd" fill="#B82E2F" d="M26.07,35.884c-0.559-0.28-1.117-0.559-1.675-0.839
	c-0.1-0.246-0.28-0.457-0.314-0.731c0.22-0.213,0.44-0.425,0.523-0.733c0.425,0.039,0.656,0.42,1.018,0.572
	c0.346,0.233,0.586,0.543,0.672,0.959C26.298,35.391,26.396,35.699,26.07,35.884z"/>
<path fill-rule="evenodd" clip-rule="evenodd" fill="#952223" d="M21.568,41.117c-0.139-0.349-0.279-0.697-0.418-1.047
	c-0.035-0.104-0.07-0.209-0.104-0.314c0.277-0.346-0.068-0.805,0.209-1.151l0,0c0.786,0.591,1.313,1.348,1.501,2.324
	c0.155,0.497-0.02,0.982-0.055,1.472c-0.007,0.1-0.046,0.205-0.189,0.183C22.266,42.051,21.946,41.564,21.568,41.117z"/>
<path fill-rule="evenodd" clip-rule="evenodd" fill="#962126" d="M22.511,42.583c0.104-0.555,0.241-1.105,0.105-1.675
	c0.333-0.142,0.498,0.134,0.712,0.287c0.184,0.372,0.465,0.726,0.229,1.179c0.033,0.707-0.031,1.405-0.209,2.093
	c-0.396-0.422-0.454-1.036-0.837-1.465C22.511,42.862,22.511,42.722,22.511,42.583z"/>
<path fill-rule="evenodd" clip-rule="evenodd" fill="#BD312E" d="M25.546,34.208c-0.366-0.131-0.646-0.392-0.942-0.628
	c-0.145-0.241-0.407-0.415-0.418-0.733c-0.007-0.414,0.063-0.807,0.314-1.151c0.483,0.331,1.068,0.442,1.57,0.733
	c0.034,0.034,0.069,0.07,0.104,0.104C26.083,33.136,26.071,33.769,25.546,34.208z"/>
<path fill-rule="evenodd" clip-rule="evenodd" fill="#BD3132" d="M25.546,34.208c0.345-0.507,0.349-1.143,0.628-1.675
	c0.401,0.17,0.709,0.473,1.047,0.732c0.035,0.105,0.069,0.209,0.104,0.314c0.213,0.438,0.018,0.817-0.174,1.197
	c-0.293,0.209-0.587,0.416-0.978,0.268C26.069,34.688,25.799,34.455,25.546,34.208z"/>
<path fill-rule="evenodd" clip-rule="evenodd" fill="#A62729" d="M23.558,36.406c0.306,0.545,0.639,1.077,0.837,1.676
	c0.139,0.314,0.163,0.633,0.03,0.957c-0.116,0.098-0.252,0.109-0.395,0.094c-0.566-0.309-1.004-0.733-1.206-1.365
	c-0.071-0.13-0.121-0.267-0.104-0.419c-0.195-0.419-0.191-0.837,0-1.256C22.997,36.202,23.232,36.425,23.558,36.406z"/>
<path fill-rule="evenodd" clip-rule="evenodd" fill="#9C2523" d="M23.244,41.223c-0.229-0.064-0.377-0.295-0.628-0.314
	c-0.095-0.877-0.707-1.456-1.208-2.098c-0.052-0.067-0.102-0.137-0.153-0.206c0.016-0.561,0.2-1.133-0.104-1.675
	c0.215,0.201,0.479,0.368,0.633,0.608c0.208,0.322,0.469,0.493,0.832,0.544c0.393,0.766,0.623,1.589,0.845,2.415
	C23.479,40.767,23.462,41.024,23.244,41.223z"/>
<path fill-rule="evenodd" clip-rule="evenodd" fill="#A02528" d="M23.348,40.489c-0.209-0.813-0.612-1.567-0.733-2.407
	c0-0.151,0.07-0.256,0.209-0.314c0.363,0.438,0.691,0.908,1.151,1.256c0.396,0.554,0.362,1.195,0.376,1.827
	C23.908,41.035,23.629,40.757,23.348,40.489z"/>
<path fill-rule="evenodd" clip-rule="evenodd" fill="#BD3039" d="M27.116,34.731c0.07-0.384,0.141-0.768,0.21-1.151
	c0.562-0.017,1.099,0.362,1.675,0.104c0,0.21,0,0.419,0,0.629c0.023,0.026,0.057,0.063,0.046,0.087
	c-0.264,0.549-0.503,1.116-1.074,1.434C27.557,35.568,27.182,35.271,27.116,34.731z"/>
<path fill-rule="evenodd" clip-rule="evenodd" fill="#B12948" d="M30.049,40.698c-0.413,0.261-0.29,0.787-0.556,1.126
	c-0.125,0.159-0.19,0.365-0.282,0.549c-0.035,0-0.07,0-0.104,0c-0.302-0.371-0.318-0.841-0.445-1.272
	c0.043-0.789,0.218-1.549,0.511-2.283c0.219-0.139,0.397-0.058,0.563,0.102C29.839,39.512,29.943,40.105,30.049,40.698z"/>
<path fill-rule="evenodd" clip-rule="evenodd" fill="#AA2744" d="M28.792,41.117c0.098,0.421,0.282,0.819,0.314,1.256
	c-0.011,0.476-0.352,0.875-0.314,1.362c-0.21-0.141-0.419-0.28-0.628-0.42c-0.321-0.39-0.352-0.869-0.413-1.339
	c0.13-0.41,0.116-0.875,0.45-1.21C28.501,40.711,28.623,40.952,28.792,41.117z"/>
<path fill-rule="evenodd" clip-rule="evenodd" fill="#9B232C" d="M23.348,40.489c0.314,0.14,0.628,0.278,0.942,0.419
	c0.257,0.103,0.304,0.367,0.434,0.568c0.198,0.508,0.262,1.034,0.223,1.576c-0.09,0.437-0.257,0.809-0.761,0.892
	c-0.373-0.396-0.252-0.973-0.522-1.404c-0.035-0.057-0.071-0.111-0.106-0.166c0.012-0.416-0.179-0.776-0.314-1.151
	C23.278,40.978,23.313,40.733,23.348,40.489z"/>
<path fill-rule="evenodd" clip-rule="evenodd" fill="#972130" d="M24.186,43.944c0.269-0.235,0.591-0.43,0.628-0.838
	c0.316,0.075,0.261,0.301,0.209,0.523c0.244,1.181,0.02,2.361-0.003,3.542c-0.177-0.001-0.354-0.002-0.531-0.004
	c-0.046-0.733-0.303-1.438-0.239-2.192C24.278,44.646,24.179,44.291,24.186,43.944z"/>
<path fill-rule="evenodd" clip-rule="evenodd" fill="#B82D46" d="M29.734,38.919c-0.175-0.035-0.35-0.069-0.523-0.104
	c-0.23-0.178-0.314-0.438-0.403-0.697c-0.02-0.315,0.047-0.622,0.121-0.923c0.037-0.151,0.033-0.366,0.282-0.369
	c0.279-0.069,0.558-0.139,0.838-0.21c0.248,0.345,0.432,0.712,0.418,1.152C30.223,38.151,29.978,38.535,29.734,38.919z"/>
<path fill-rule="evenodd" clip-rule="evenodd" fill="#A52540" d="M27.85,41.954c0.104,0.455,0.209,0.908,0.314,1.361
	c-0.115,0.869-0.09,1.743-0.105,2.616c-0.205-0.811-0.618-1.538-0.942-2.302c-0.096-0.087-0.124-0.203-0.138-0.324
	c0.037-0.527,0.012-1.067,0.286-1.552C27.537,41.595,27.712,41.721,27.85,41.954z"/>
<path fill-rule="evenodd" clip-rule="evenodd" fill="#B62D3F" d="M29.211,36.825c-0.252,0.419-0.198,0.911-0.314,1.36
	c-0.064,0.356-0.331,0.373-0.612,0.37c-0.348-0.266-0.563-0.626-0.729-1.022c-0.056-0.261-0.13-0.519-0.136-0.787
	c0.057-0.335,0.222-0.601,0.51-0.787c0.45,0.113,0.853,0.316,1.178,0.656C29.141,36.687,29.176,36.756,29.211,36.825z"/>
<path fill-rule="evenodd" clip-rule="evenodd" fill="#BC303F" d="M29.106,36.615c-0.402-0.177-0.809-0.344-1.152-0.628
	c-0.055-0.069-0.065-0.14,0-0.209c0.455-0.413,0.742-0.945,1.047-1.465c0.279,0.175,0.559,0.349,0.838,0.522
	c-0.059,0.458-0.383,0.795-0.551,1.202C29.211,36.226,29.084,36.396,29.106,36.615z"/>
<path fill-rule="evenodd" clip-rule="evenodd" fill="#A22439" d="M27.116,43.315c0,0.105,0,0.21,0,0.314
	c-0.155,0.512-0.188,1.041-0.209,1.57c-0.475-0.549-0.559-1.291-0.942-1.885c-0.434-0.583-0.38-1.278-0.446-1.946
	c0.029-0.178,0.089-0.335,0.288-0.387c0.646,0.539,0.878,1.322,1.209,2.046C27.059,43.12,27.047,43.232,27.116,43.315z"/>
<path fill-rule="evenodd" clip-rule="evenodd" fill="#9F2432" d="M25.651,41.326c0,0.681,0.181,1.331,0.314,1.989
	c-0.208,0.205-0.023,0.522-0.21,0.733c-0.305-0.034-0.445-0.355-0.732-0.419c-0.131-0.15-0.042-0.388-0.209-0.523
	c0.043-0.572-0.068-1.125-0.209-1.675c0.146-0.378,0.53-0.253,0.797-0.376C25.585,41.054,25.577,41.228,25.651,41.326z"/>
<path fill-rule="evenodd" clip-rule="evenodd" fill="#AB2835" d="M25.337,38.291c0.07-0.209,0.14-0.419,0.209-0.628
	c0.14,0,0.28,0,0.419,0c0.538,0.146,0.714,0.623,0.958,1.041c0.098,0.283,0.144,0.576,0.195,0.869
	c0.008,0.186-0.045,0.342-0.204,0.449c-0.303,0.102-0.612,0.14-0.93,0.105C25.491,39.614,25.408,38.955,25.337,38.291z"/>
<path fill-rule="evenodd" clip-rule="evenodd" fill="#B22B38" d="M26.803,38.71c-0.217-0.399-0.495-0.748-0.837-1.047
	c0.023-0.473,0.168-0.917,0.314-1.361c0.508-0.126,0.88,0.151,1.256,0.419c0.006,0.283,0.158,0.547,0.105,0.837
	C27.373,37.951,27.323,38.501,26.803,38.71z"/>
<path fill-rule="evenodd" clip-rule="evenodd" fill="#B82D37" d="M27.535,36.721c-0.419-0.14-0.837-0.279-1.256-0.419
	c-0.069-0.14-0.14-0.279-0.209-0.418c0.161-0.265,0.089-0.557,0.104-0.839c0.314-0.104,0.628-0.209,0.941-0.313
	c0.213,0.403,0.561,0.696,0.838,1.047c0,0.069,0,0.14,0,0.209C27.826,36.238,27.584,36.424,27.535,36.721z"/>
<path fill-rule="evenodd" clip-rule="evenodd" fill="#A72730" d="M25.337,38.291c0.209,0.593,0.418,1.187,0.628,1.779
	c0.194,0.34,0.092,0.646-0.104,0.942c-0.139,0.059-0.209,0.164-0.21,0.313c-0.069-0.069-0.139-0.139-0.209-0.209
	c-0.139-0.051-0.228-0.157-0.28-0.284c-0.247-0.606-0.651-1.146-0.767-1.809c0-0.314,0-0.629,0-0.942
	C24.714,38.129,24.998,38.334,25.337,38.291z"/>
<path fill-rule="evenodd" clip-rule="evenodd" fill="#A2252E" d="M24.395,39.024c0.433,0.655,0.667,1.41,1.047,2.093
	c-0.244,0.198-0.58,0.152-0.837,0.314c-0.168-0.137-0.209-0.35-0.314-0.523c-0.104-0.628-0.209-1.256-0.314-1.885
	C24.116,39.023,24.255,39.024,24.395,39.024z"/>
<path fill-rule="evenodd" clip-rule="evenodd" fill="#B02B42" d="M28.269,38.5c0.239-0.044,0.453-0.14,0.628-0.314
	c0.174,0.175,0.27,0.39,0.314,0.629c-0.024,0.602-0.277,1.155-0.364,1.745c-0.027,0.188-0.05,0.371-0.055,0.558
	c-0.244,0.011-0.331-0.24-0.523-0.314c-0.247-0.311-0.342-0.683-0.438-1.056C27.856,39.289,27.928,38.848,28.269,38.5z"/>
<path fill-rule="evenodd" clip-rule="evenodd" fill="#AB293E" d="M27.954,39.756c0.068,0.36,0.324,0.664,0.314,1.047
	c-0.255,0.343-0.213,0.792-0.419,1.151c-0.175-0.069-0.35-0.139-0.523-0.209c-0.332-0.548-0.467-1.142-0.419-1.779
	c0.071-0.13,0.121-0.267,0.104-0.419C27.368,39.43,27.695,39.438,27.954,39.756z"/>
<path fill-rule="evenodd" clip-rule="evenodd" fill="#A62639" d="M26.907,39.966c0.14,0.593,0.279,1.186,0.419,1.779
	c-0.098,0.521-0.214,1.037-0.21,1.57c-0.418-0.768-0.837-1.534-1.255-2.303c0.035-0.314,0.069-0.629,0.104-0.942
	C26.271,39.967,26.588,39.95,26.907,39.966z"/>
<path fill-rule="evenodd" clip-rule="evenodd" fill="#B12B3C" d="M27.954,39.756c-0.313-0.069-0.628-0.139-0.942-0.209
	c-0.069-0.278-0.139-0.559-0.209-0.837c0.381-0.311,0.39-0.89,0.838-1.152c0.209,0.314,0.418,0.628,0.628,0.942
	C28.199,38.928,27.927,39.305,27.954,39.756z"/>
</svg>
