<?xml version="1.0" encoding="utf-8"?>
<!-- Generator: Adobe Illustrator 16.0.0, SVG Export Plug-In . SVG Version: 6.00 Build 0)  -->
<!DOCTYPE svg PUBLIC "-//W3C//DTD SVG 1.1//EN" "http://www.w3.org/Graphics/SVG/1.1/DTD/svg11.dtd">
<svg version="1.1" id="Layer_1" xmlns="http://www.w3.org/2000/svg" xmlns:xlink="http://www.w3.org/1999/xlink" x="0px" y="0px"
	 width="412px" height="136px" viewBox="0 0 412 136" enable-background="new 0 0 412 136" xml:space="preserve">
<g>
	<path fill-rule="evenodd" clip-rule="evenodd" fill="#FFFFFF" d="M43.368,3.92c4.587,3.469,9.167,6.949,13.762,10.406
		c6.549,4.926,13.102,9.847,19.676,14.739c0.706,0.525,1.028,1.045,1.025,1.963c-0.037,10.519-0.017,21.037-0.041,31.555
		c-0.001,0.516-0.107,1.172-0.427,1.524c-2.524,2.778-5.113,5.498-7.787,8.348c-0.995-0.918-1.944-1.794-2.973-2.743
		c2.184-2.321,4.343-4.559,6.417-6.873c0.426-0.475,0.751-1.234,0.755-1.865c0.047-9.318,0.042-18.637,0.008-27.956
		c-0.002-0.52-0.21-1.245-0.584-1.528c-9.947-7.522-19.929-15-29.977-22.538c-0.323,0.217-0.651,0.421-0.963,0.648
		C32.339,16.826,22.427,24.06,12.491,31.26c-0.639,0.463-0.819,0.939-0.817,1.681c0.021,9.358,0.023,18.717-0.003,28.075
		c-0.002,0.786,0.232,1.332,0.789,1.875c2.259,2.202,4.475,4.449,6.729,6.701c-1,0.931-1.948,1.814-2.963,2.76
		c-2.687-2.691-5.489-5.48-8.255-8.306c-0.235-0.24-0.309-0.723-0.309-1.094C7.645,52.194,7.636,41.436,7.686,30.677
		c0.002-0.508,0.439-1.176,0.875-1.496c11.123-8.15,22.274-16.263,33.415-24.39c0.336-0.246,0.609-0.579,0.911-0.871
		C43.048,3.92,43.208,3.92,43.368,3.92z"/>
	<path fill-rule="evenodd" clip-rule="evenodd" fill="#FFFFFF" d="M1.128,97.28c0.732-0.962,1.353-2.043,2.225-2.855
		c1.004-0.935,2.381-1.19,3.716-0.928c0.79,0.155,1.153-0.139,1.593-0.659c4.745-5.615,9.507-11.216,14.265-16.819
		c0.176-0.208,0.359-0.408,0.761-0.863c0,0.688,0,1.1,0,1.512c0,9.913-0.009,19.825,0.028,29.738
		c0.001,0.499,0.276,1.152,0.649,1.469c1.887,1.602,2.578,4.024,1.667,6.264c-0.861,2.116-3.121,3.482-5.367,3.245
		c-2.331-0.246-4.262-1.975-4.668-4.179c-0.463-2.51,0.633-4.726,2.908-5.873c0.213-0.107,0.434-0.201,0.694-0.32
		c0-6.821,0-13.648,0-20.655c-0.304,0.291-0.531,0.474-0.717,0.69c-2.411,2.827-4.833,5.646-7.202,8.508
		c-0.269,0.324-0.422,0.945-0.316,1.347c0.802,3.044-0.549,5.92-3.276,6.815c-2.867,0.94-5.618-0.484-6.766-3.501
		c-0.041-0.107-0.128-0.196-0.194-0.295C1.128,99.04,1.128,98.16,1.128,97.28z"/>
	<path fill-rule="evenodd" clip-rule="evenodd" fill="#FFFFFF" d="M41.928,135.92c-0.25-0.112-0.5-0.228-0.752-0.336
		c-1.926-0.823-3.09-2.265-3.307-4.348c-0.227-2.18,0.6-3.954,2.503-5.063c0.719-0.42,0.848-0.882,0.847-1.612
		c-0.014-20.038-0.012-40.077-0.012-60.115c0-0.469,0-0.938,0-1.462c1.382,0,2.64,0,4.04,0c0,0.569,0,1.078,0,1.585
		c0,19.958,0.003,39.917-0.012,59.875c0,0.843,0.134,1.423,0.934,1.964c1.685,1.141,2.407,2.874,2.157,4.896
		c-0.249,2.02-1.382,3.446-3.263,4.261c-0.25,0.108-0.491,0.237-0.736,0.356C43.528,135.92,42.728,135.92,41.928,135.92z"/>
	<path fill-rule="evenodd" clip-rule="evenodd" fill="#FFFFFF" d="M131.507,60.962c-3.286,3.041-6.583,6.07-9.838,9.146
		c-0.254,0.24-0.287,0.801-0.289,1.213c-0.02,4.439-0.012,8.879-0.012,13.318c0,0.438,0,0.874,0,1.396c-3.847,0-7.623,0-11.46,0
		c0-20.503,0-40.968,0-61.513c3.791,0,7.568,0,11.431,0c0,10.39,0,20.735,0,31.443c0.616-0.609,1.024-0.998,1.415-1.403
		c9.408-9.756,18.819-19.507,28.205-29.284c0.613-0.639,1.229-0.865,2.091-0.854c3.519,0.042,7.04,0.016,10.559,0.02
		c0.272,0,0.543,0.032,1.069,0.064c-8.696,9.261-17.239,18.36-25.853,27.534c9.107,11.3,18.193,22.573,27.467,34.08
		c-1.893,0-3.478,0-5.064,0c-2.44,0-4.88-0.03-7.319,0.017c-0.796,0.016-1.312-0.241-1.826-0.854
		c-6.707-7.994-13.441-15.965-20.17-23.94c-0.251-0.298-0.517-0.584-0.776-0.876C131.26,60.631,131.383,60.796,131.507,60.962z"/>
	<path fill-rule="evenodd" clip-rule="evenodd" fill="#FFFFFF" d="M219.487,86.033c-3.703,0-7.319,0-10.972,0
		c0-21.75,0-43.444,0-65.206c3.646,0,7.225,0,10.931,0c0,7.777,0,15.51,0,23.457c0.328-0.229,0.484-0.315,0.612-0.431
		c4.65-4.199,10.252-5.495,16.317-5.286c3.145,0.109,6.178,0.768,8.989,2.255c5.84,3.088,8.514,8.205,9.175,14.538
		c0.216,2.061,0.212,4.149,0.218,6.225c0.023,7.637,0.01,15.274,0.01,22.912c0,0.477,0,0.954,0,1.526c-3.687,0-7.3,0-11.04,0
		c0-0.503,0-0.974,0-1.443c0-7.997,0.027-15.994-0.024-23.991c-0.01-1.545-0.176-3.127-0.539-4.626
		c-1.284-5.306-5.606-8.17-11.488-7.749c-7.333,0.525-11.966,5.188-12.114,12.56c-0.159,7.914-0.061,15.833-0.074,23.75
		C219.487,84.997,219.487,85.473,219.487,86.033z"/>
	<path fill-rule="evenodd" clip-rule="evenodd" fill="#FFFFFF" d="M303.168,39.135c3.727,0,7.275,0,10.932,0
		c0,15.62,0,31.223,0,46.906c-3.436,0-6.852,0-10.387,0c0-1.874,0-3.689,0-5.303c-2.023,1.362-3.938,2.955-6.103,4.052
		c-7.104,3.601-17.899,2.203-23.578-2.936c-3.613-3.271-5.086-7.577-5.516-12.273c-0.225-2.462-0.211-4.95-0.22-7.426
		c-0.025-7.198-0.009-14.396-0.009-21.595c0-0.435,0-0.871,0-1.393c3.701,0,7.318,0,11.04,0c0,0.529,0,1.003,0,1.478
		c0,7.758-0.018,15.516,0.016,23.274c0.006,1.432,0.091,2.887,0.351,4.292c1.135,6.13,5.175,9.204,11.411,8.778
		c7.134-0.486,11.716-4.982,11.918-12.183c0.225-7.991,0.111-15.992,0.145-23.988C303.17,40.302,303.168,39.788,303.168,39.135z"/>
	<path fill-rule="evenodd" clip-rule="evenodd" fill="#FFFFFF" d="M368.808,39.154c0,0.55-0.001,1.026,0,1.503
		c0.012,8.279,0.015,16.558,0.049,24.836c0.004,0.953,0.118,1.919,0.301,2.856c1.18,6.04,5.332,9.126,11.552,8.625
		c7.191-0.578,11.686-5.211,11.826-12.554c0.152-7.916,0.059-15.837,0.072-23.756c0.001-0.473,0-0.946,0-1.502
		c3.68,0,7.262,0,10.942,0c0,15.615,0,31.219,0,46.89c-3.412,0-6.798,0-10.349,0c0-1.827,0-3.637,0-5.692
		c-0.333,0.254-0.457,0.324-0.551,0.423c-4.813,5.054-10.856,6.412-17.54,5.821c-3.1-0.273-6.054-1.07-8.761-2.645
		c-5.299-3.082-7.611-7.991-8.32-13.825c-0.201-1.661-0.246-3.349-0.251-5.024c-0.024-8.199-0.011-16.398-0.011-24.598
		c0-0.433,0-0.867,0-1.359C361.487,39.154,365.108,39.154,368.808,39.154z"/>
	<path fill-rule="evenodd" clip-rule="evenodd" fill="#FFFFFF" d="M196.297,75.663c1.002,2.553,1.961,4.916,2.832,7.312
		c0.103,0.281-0.171,0.889-0.453,1.09c-2.135,1.525-4.591,2.191-7.16,2.499c-3.089,0.37-6.15,0.217-9.138-0.684
		c-5.61-1.69-9.145-6.147-9.642-12.146c-0.129-1.552-0.199-3.112-0.201-4.669c-0.016-12.916-0.009-25.832-0.009-38.748
		c0-0.477,0-0.953,0-1.533c3.687,0,7.302,0,11.055,0c0,3.463,0,6.961,0,10.626c4.258,0,8.382,0,12.552,0c0,3.022,0,5.877,0,8.873
		c-4.166,0-8.262,0-12.425,0c-0.025,0.526-0.06,0.916-0.06,1.306c-0.003,7.038-0.008,14.076,0.006,21.114
		c0.001,0.715,0.06,1.443,0.205,2.143c0.607,2.938,2.646,4.624,5.642,4.756C191.925,77.708,194.179,77.208,196.297,75.663z"/>
	<path fill-rule="evenodd" clip-rule="evenodd" fill="#FFFFFF" d="M328.527,20.808c3.735,0,7.283,0,11.04,0c0,0.523,0,1.02,0,1.517
		c0,15.677-0.003,31.353,0.008,47.03c0.001,0.996,0.066,1.998,0.182,2.987c0.371,3.177,2.471,5.178,5.674,5.223
		c1.527,0.021,3.06-0.298,4.747-0.479c0.107,1.611,0.231,3.424,0.349,5.238c0.033,0.519,0.044,1.038,0.067,1.558
		c0.085,1.843,0.091,1.862-1.676,2.283c-3.363,0.801-6.745,0.813-10.093-0.031c-5.817-1.468-9.506-5.821-10.089-11.837
		c-0.131-1.351-0.198-2.712-0.2-4.068c-0.013-15.957-0.009-31.913-0.009-47.869C328.527,21.885,328.527,21.412,328.527,20.808z"/>
	<path fill-rule="evenodd" clip-rule="evenodd" fill="#FFFFFF" d="M62.288,75.266c1.355,1.558,2.476,2.835,3.586,4.121
		c3.812,4.415,7.605,8.845,11.45,13.23c0.363,0.413,1.022,0.75,1.568,0.79c2.366,0.173,4.294,1.632,4.927,3.887
		c0.62,2.207-0.296,4.601-2.242,5.861c-1.887,1.222-4.453,1.081-6.158-0.339c-1.859-1.546-2.563-4.024-1.514-6.149
		c0.492-0.996,0.265-1.536-0.386-2.261c-1.895-2.11-3.72-4.282-5.575-6.428c-0.46-0.531-0.931-1.054-1.561-1.765
		c-0.045,0.587-0.093,0.924-0.093,1.261c-0.004,6.194,0.008,12.39-0.018,18.584c-0.003,0.756,0.198,1.199,0.881,1.617
		c2.055,1.257,2.913,3.666,2.246,5.941c-0.648,2.211-2.69,3.758-4.994,3.782c-2.319,0.023-4.375-1.457-5.083-3.661
		c-0.721-2.245,0.077-4.73,2.1-5.991c0.754-0.47,0.876-0.981,0.875-1.747c-0.016-9.712-0.01-19.424-0.01-29.136
		C62.288,76.447,62.288,76.03,62.288,75.266z"/>
	<path fill-rule="evenodd" clip-rule="evenodd" fill="#FFFFFF" d="M20.202,57.657c1.004-0.987,1.911-1.879,2.875-2.828
		c0.271,0.25,0.563,0.501,0.834,0.772c3.14,3.136,6.256,6.294,9.429,9.396c0.662,0.647,0.886,1.301,0.884,2.201
		c-0.023,15.67-0.011,31.339-0.032,47.009c-0.001,0.857,0.196,1.437,0.906,2.017c1.813,1.48,2.297,3.963,1.353,6.095
		c-0.976,2.205-3.156,3.372-5.687,3.044c-2.129-0.275-3.886-2.007-4.317-4.254c-0.432-2.246,0.656-4.58,2.777-5.584
		c0.815-0.385,0.957-0.861,0.956-1.647c-0.017-15.029-0.019-30.06,0.005-45.09c0.001-0.823-0.213-1.407-0.805-1.988
		C26.33,63.807,23.321,60.772,20.202,57.657z"/>
	<path fill-rule="evenodd" clip-rule="evenodd" fill="#FFFFFF" d="M62.745,54.84c1.073,0.929,2.029,1.756,3.074,2.661
		c-1.295,1.509-2.534,2.954-3.776,4.396c-1.355,1.574-2.767,3.104-4.044,4.74c-0.446,0.571-0.795,1.399-0.797,2.111
		c-0.045,15.069-0.027,30.139-0.054,45.208c-0.002,0.859,0.233,1.343,0.989,1.798c2.036,1.228,2.894,3.668,2.228,5.945
		c-0.621,2.121-2.6,3.651-4.79,3.701c-2.517,0.059-4.511-1.275-5.267-3.521c-0.76-2.261-0.007-4.729,1.997-6.017
		c0.735-0.472,0.875-0.982,0.874-1.755c-0.016-15.629-0.005-31.258-0.028-46.887c-0.001-0.854,0.213-1.504,0.78-2.149
		c2.717-3.09,5.392-6.218,8.08-9.334C62.241,55.469,62.458,55.191,62.745,54.84z"/>
	<path fill-rule="evenodd" clip-rule="evenodd" fill="#FFFFFF" d="M128.688,113.604c0.796,0,1.387,0,2.068,0
		c0,3.492,0,6.941,0,10.446c-0.628,0-1.206,0-1.837,0c-0.046-0.525-0.086-0.988-0.128-1.469c-6.646,3.753-13.305,0.714-15.59-3.68
		c-2.502-4.813-1.049-11.16,3.346-14.118c4.457-2.999,11.402-2.46,14.404,1.226c-0.451,0.356-0.915,0.722-1.271,1.004
		c-1.453-0.631-2.904-1.539-4.48-1.896c-6.92-1.571-12.555,4.527-10.552,11.304c1.634,5.526,8.963,7.776,13.396,4.077
		c0.358-0.299,0.596-0.929,0.615-1.416C128.731,117.292,128.688,115.497,128.688,113.604z"/>
	<path fill-rule="evenodd" clip-rule="evenodd" fill="#FFFFFF" d="M148.951,110.883c0-0.942,0-1.693,0-2.522
		c0.715,0,1.364,0,2.075,0c0,5.244,0,10.421,0,15.678c-0.668,0-1.284,0-2.002,0c0-0.831,0-1.655,0-2.875
		c-1.777,2.184-3.796,3.112-6.292,3.053c-2.478-0.06-4.508-0.968-6.045-2.9c-2.458-3.091-2.15-8.32,0.619-11.021
		C140.418,107.26,144.62,107.424,148.951,110.883z M143.043,122.278c3.387,0.021,5.863-2.535,5.884-6.073
		c0.021-3.525-2.451-6.148-5.81-6.164c-3.392-0.016-5.851,2.537-5.869,6.095C137.229,119.711,139.632,122.258,143.043,122.278z"/>
	<path fill-rule="evenodd" clip-rule="evenodd" fill="#FFFFFF" d="M357.803,110.977c0-1.018,0-1.802,0-2.64c0.714,0,1.339,0,2.045,0
		c0,5.222,0,10.433,0,15.713c-0.647,0-1.264,0-2.009,0c0-0.856,0-1.672,0-2.846c-2.012,2.522-4.421,3.271-7.202,2.955
		c-1.944-0.221-3.579-1.079-4.868-2.558c-2.674-3.066-2.481-8.486,0.392-11.3C349.306,107.223,353.996,107.423,357.803,110.977z
		 M357.768,116.226c0.012-3.57-2.399-6.155-5.769-6.185c-3.41-0.03-5.839,2.481-5.871,6.07c-0.032,3.6,2.333,6.135,5.754,6.167
		C355.287,122.311,357.756,119.771,357.768,116.226z"/>
	<path fill-rule="evenodd" clip-rule="evenodd" fill="#FFFFFF" d="M327.288,124.065c-0.766,0-1.388,0-2.085,0
		c0-7.419,0-14.791,0-22.214c0.683,0,1.308,0,2.074,0c0,2.912,0,5.799,0,8.979c1.784-2.1,3.879-2.771,6.254-2.707
		c3.385,0.09,5.799,2.084,6.023,5.447c0.23,3.451,0.051,6.93,0.051,10.474c-0.657,0-1.313,0-2.117,0c0-1.628,0-3.219,0-4.81
		c-0.001-1.439,0.021-2.88-0.006-4.319c-0.053-2.873-1.432-4.494-4.017-4.765c-2.967-0.311-5.356,1.195-5.927,3.85
		c-0.216,1.003-0.226,2.061-0.241,3.095C327.265,119.371,327.288,121.649,327.288,124.065z"/>
	<path fill-rule="evenodd" clip-rule="evenodd" fill="#FFFFFF" d="M181.8,115.721c-4.249,0.832-8.467,1.657-12.837,2.512
		c0.542,1.762,1.598,2.961,3.259,3.563c2.708,0.98,5.182,0.569,7.45-1.545c0.384,0.431,0.766,0.858,1.202,1.349
		c-0.226,0.254-0.402,0.507-0.631,0.699c-2.695,2.275-5.779,2.437-8.906,1.306c-2.917-1.056-4.534-3.352-4.831-6.438
		c-0.322-3.347,0.673-6.188,3.699-7.993c4.8-2.864,10.814,0.024,11.59,5.535C181.837,115.015,181.8,115.331,181.8,115.721z
		 M168.768,116.598c3.607-0.701,7.213-1.401,10.821-2.103c-0.645-3.131-3.378-4.966-6.349-4.4
		C170.146,110.684,168.184,113.472,168.768,116.598z"/>
	<path fill-rule="evenodd" clip-rule="evenodd" fill="#FFFFFF" d="M274.768,116.095c0.01,4.775-3.211,8.09-7.874,8.105
		c-4.795,0.016-8.184-3.266-8.205-7.945c-0.022-4.714,3.352-8.124,8.048-8.135C271.432,108.11,274.759,111.414,274.768,116.095z
		 M272.567,116.192c0.003-3.577-2.396-6.136-5.767-6.151c-3.453-0.016-5.891,2.545-5.873,6.17c0.019,3.583,2.414,6.073,5.837,6.067
		C270.199,122.272,272.565,119.79,272.567,116.192z"/>
	<path fill-rule="evenodd" clip-rule="evenodd" fill="#FFFFFF" d="M211.571,124.2c-4.717,0.008-8.134-3.376-8.122-8.044
		c0.011-4.625,3.407-8.02,8.041-8.036c4.733-0.017,8.096,3.345,8.077,8.076C219.549,120.916,216.276,124.192,211.571,124.2z
		 M211.393,122.277c3.435,0.07,5.892-2.374,5.975-5.942c0.082-3.545-2.296-6.195-5.645-6.294c-3.427-0.101-5.952,2.411-6.062,6.027
		C205.556,119.54,208.019,122.208,211.393,122.277z"/>
	<path fill-rule="evenodd" clip-rule="evenodd" fill="#FFFFFF" d="M376.048,124.059c-0.825,0-1.448,0-2.135,0
		c0-5.24,0-10.418,0-15.688c0.646,0,1.29,0,2.005,0c0.035,0.781,0.067,1.513,0.109,2.443c2.039-2.308,4.463-3.009,7.239-2.574
		c2.859,0.448,4.771,2.115,4.978,5.002c0.256,3.563,0.062,7.157,0.062,10.808c-0.613,0-1.231,0-2.018,0c0-1.213,0-2.396-0.001-3.58
		c0-1.839,0.047-3.679-0.013-5.516c-0.096-2.996-1.562-4.622-4.247-4.824c-3.039-0.228-5.351,1.358-5.781,4.167
		c-0.233,1.526-0.166,3.103-0.192,4.657C376.026,120.625,376.048,122.296,376.048,124.059z"/>
	<path fill-rule="evenodd" clip-rule="evenodd" fill="#FFFFFF" d="M291.619,122.173c0.311-0.54,0.588-1.021,0.922-1.599
		c1.94,1.301,4.053,1.885,6.336,1.688c0.743-0.064,1.51-0.212,2.195-0.492c0.882-0.361,1.493-1.157,1.23-2.088
		c-0.188-0.666-0.77-1.396-1.378-1.724c-0.815-0.439-1.823-0.527-2.753-0.752c-1.047-0.253-2.118-0.423-3.142-0.748
		c-1.494-0.475-2.604-1.363-2.817-3.064c-0.225-1.795,0.354-3.204,1.888-4.21c2.399-1.572,7.024-1.383,9.916,0.482
		c-0.286,0.529-0.577,1.067-0.901,1.667c-2.063-1.151-4.159-1.672-6.397-1.11c-0.597,0.149-1.224,0.434-1.68,0.835
		c-1.065,0.937-0.935,2.589,0.317,3.237c0.935,0.483,2.021,0.69,3.054,0.963c1.156,0.305,2.355,0.463,3.487,0.833
		c1.309,0.429,2.354,1.246,2.582,2.72c0.255,1.645-0.111,3.086-1.53,4.145C300.283,124.942,294.16,124.57,291.619,122.173z"/>
	<path fill-rule="evenodd" clip-rule="evenodd" fill="#FFFFFF" d="M276.922,122.235c0.249-0.447,0.457-0.831,0.675-1.208
		c0.077-0.134,0.181-0.254,0.318-0.445c1.927,1.33,4.056,1.87,6.348,1.681c0.704-0.059,1.426-0.215,2.082-0.471
		c0.896-0.35,1.52-1.123,1.286-2.057c-0.169-0.67-0.734-1.497-1.334-1.748c-1.234-0.517-2.611-0.693-3.929-1.012
		c-0.659-0.159-1.331-0.282-1.974-0.493c-1.596-0.523-2.723-1.485-2.891-3.282c-0.175-1.874,0.54-3.338,2.209-4.164
		c3.247-1.608,6.423-0.992,9.677,0.503c-0.331,0.625-0.617,1.165-0.837,1.58c-1.466-0.38-2.817-0.878-4.209-1.042
		c-0.992-0.116-2.065,0.11-3.052,0.377c-1.003,0.271-1.597,1.051-1.612,2.14c-0.015,1.074,0.643,1.735,1.575,2.026
		c1.176,0.367,2.398,0.585,3.601,0.869c0.66,0.156,1.326,0.292,1.977,0.481c1.605,0.469,2.819,1.338,3.021,3.15
		c0.212,1.909-0.556,3.336-2.261,4.251C284.744,124.899,279.566,124.378,276.922,122.235z"/>
	<path fill-rule="evenodd" clip-rule="evenodd" fill="#FFFFFF" d="M244.439,111.335c-0.483,0.331-0.973,0.667-1.46,1.002
		c-2.467-2.985-6.549-3.014-9.018-0.521c-2.19,2.211-2.131,6.542,0.033,8.768c2.348,2.413,5.959,2.212,8.986-0.542
		c0.478,0.32,0.968,0.649,1.449,0.973c-1.344,2.613-4.767,3.814-8.308,2.977c-3.617-0.855-5.96-3.857-5.995-7.681
		c-0.036-3.914,2.265-7.027,5.855-7.923C239.511,107.509,243.025,108.714,244.439,111.335z"/>
	<path fill-rule="evenodd" clip-rule="evenodd" fill="#FFFFFF" d="M321.158,111.34c-0.476,0.325-0.96,0.657-1.44,0.986
		c-2.592-3.056-6.809-2.97-9.191-0.322c-2.146,2.384-1.863,6.721,0.451,8.835c1.913,1.747,6.169,2.337,8.661-0.84
		c0.498,0.333,1.009,0.674,1.512,1.01c-1.277,2.574-4.711,3.813-8.178,3.015c-3.688-0.851-6.063-3.808-6.085-7.583
		c-0.024-4.129,2.233-7.205,5.929-8.08C316.32,107.531,319.824,108.757,321.158,111.34z"/>
	<path fill-rule="evenodd" clip-rule="evenodd" fill="#FFFFFF" d="M163.747,108.261c0,0.706,0,1.211,0,1.837
		c-1.563,0-3.068,0-4.739,0c0,1.504,0,2.891,0,4.277c0,1.6-0.009,3.2,0.001,4.8c0.018,2.816,1.982,3.984,4.517,2.692
		c0.14-0.071,0.272-0.155,0.497-0.286c0.26,0.504,0.509,0.986,0.787,1.522c-1.774,1.385-3.696,1.431-5.599,0.705
		c-1.782-0.68-2.376-2.226-2.369-4.064c0.017-4.6,0.004-9.199,0.008-13.799c0-0.352,0.039-0.702,0.063-1.115
		c0.684,0,1.302,0,2.074,0c0,1.123,0,2.219,0,3.431C160.637,108.261,162.14,108.261,163.747,108.261z"/>
	<path fill-rule="evenodd" clip-rule="evenodd" fill="#FFFFFF" d="M201.064,121.585c0.271,0.533,0.5,0.986,0.769,1.514
		c-1.701,1.357-3.563,1.384-5.452,0.773c-1.627-0.525-2.462-1.866-2.488-3.482c-0.08-5.15-0.029-10.303-0.029-15.541
		c0.708,0,1.358,0,2.145,0c0,1.122,0,2.22,0,3.413c1.635,0,3.14,0,4.72,0c0,0.637,0,1.174,0,1.823c-1.507,0-3.015,0-4.721,0
		c0,0.681,0,1.258,0,1.834c0,2.278-0.001,4.557,0,6.835C196.01,122.127,197.963,123.287,201.064,121.585z"/>
	<path fill-rule="evenodd" clip-rule="evenodd" fill="#FFFFFF" d="M248.681,108.325c0.686,0,1.278,0,1.981,0
		c0,0.785,0,1.566,0,2.347c1.572-1.823,3.504-2.557,5.872-2.521c0,0.7,0,1.322,0,2.017c-0.289,0.025-0.555,0.057-0.822,0.072
		c-2.624,0.153-4.494,1.743-4.738,4.358c-0.219,2.339-0.153,4.705-0.203,7.059c-0.017,0.757-0.003,1.514-0.003,2.366
		c-0.717,0-1.363,0-2.087,0C248.681,118.815,248.681,113.641,248.681,108.325z"/>
	<path fill-rule="evenodd" clip-rule="evenodd" fill="#FFFFFF" d="M367.967,124.04c-0.247,0.031-0.438,0.07-0.629,0.074
		c-0.437,0.011-0.873,0.004-1.42,0.004c0-5.268,0-10.471,0-15.756c0.651,0,1.309,0,2.049,0
		C367.967,113.577,367.967,118.783,367.967,124.04z"/>
	<path fill-rule="evenodd" clip-rule="evenodd" fill="#FFFFFF" d="M366.962,101.804c0.938,0.019,1.603,0.689,1.558,1.57
		c-0.045,0.878-0.771,1.516-1.689,1.455c-0.941-0.062-1.447-0.596-1.48-1.523C365.317,102.41,366.018,101.785,366.962,101.804z"/>
</g>
</svg>
