<svg width="412" height="136" viewBox="0 0 412 136" fill="none" xmlns="http://www.w3.org/2000/svg">
<path d="M17.5799 70.8206L9.43837 62.6791V30.5921L42.9621 6.16766L75.528 30.5921V62.6791L67.8655 70.8206M21.4111 55.9743L31.9472 66.5104V123.089M6.13135 98.4001L21.4111 80.3988L21.4111 113.725M42.9621 62.6791V134.001M64.0342 55.9743L54.9349 66.5104V123.089M64.0342 113.725V80.3988L79.5802 98.4001" stroke="black" stroke-width="4"/>
<circle cx="6.13135" cy="98.465" r="5.24351" fill="black"/>
<circle cx="20.9133" cy="111.873" r="5.24351" fill="black"/>
<circle cx="31.4003" cy="119.931" r="5.24351" fill="black"/>
<circle cx="42.8558" cy="130.418" r="5.24351" fill="black"/>
<circle cx="55.0574" cy="119.931" r="5.24351" fill="black"/>
<circle cx="64.1024" cy="111.873" r="5.24351" fill="black"/>
<circle cx="78.4886" cy="98.465" r="5.24351" fill="black"/>
<path d="M130.869 60.0696L121.101 70.1016V85.8536H109.661V24.2536H121.101V55.8456L151.549 24.2536H164.397L138.525 51.7976L165.981 85.8536H152.605L130.869 60.0696ZM199.115 83.3016C197.824 84.3576 196.24 85.1496 194.363 85.6776C192.544 86.2056 190.608 86.4696 188.555 86.4696C183.392 86.4696 179.403 85.1202 176.587 82.4216C173.771 79.7229 172.363 75.7922 172.363 70.6296V28.4776H183.363V39.2136H195.947V48.0136H183.363V70.3656C183.363 72.6536 183.92 74.4136 185.035 75.6456C186.208 76.8189 187.821 77.4056 189.875 77.4056C192.339 77.4056 194.392 76.7602 196.035 75.4696L199.115 83.3016ZM234.871 38.3336C240.796 38.3336 245.548 40.0642 249.127 43.5256C252.705 46.9869 254.495 52.1202 254.495 58.9256V85.8536H243.495V60.3336C243.495 56.2269 242.527 53.1469 240.591 51.0936C238.655 48.9816 235.897 47.9256 232.319 47.9256C228.271 47.9256 225.073 49.1576 222.727 51.6216C220.38 54.0269 219.207 57.5176 219.207 62.0936V85.8536H208.207V20.5576H219.207V44.3176C221.025 42.3816 223.255 40.9149 225.895 39.9176C228.593 38.8616 231.585 38.3336 234.871 38.3336ZM313.945 38.8616V85.8536H303.473V79.8696C301.713 81.9816 299.513 83.6242 296.873 84.7976C294.233 85.9122 291.388 86.4696 288.337 86.4696C282.06 86.4696 277.102 84.7389 273.465 81.2776C269.886 77.7576 268.097 72.5656 268.097 65.7016V38.8616H279.097V64.2056C279.097 68.4296 280.036 71.5976 281.913 73.7096C283.849 75.7629 286.577 76.7896 290.097 76.7896C294.028 76.7896 297.137 75.5869 299.425 73.1816C301.772 70.7176 302.945 67.1976 302.945 62.6216V38.8616H313.945ZM343.835 86.4696C338.966 86.4696 335.153 85.1496 332.395 82.5096C329.697 79.8109 328.347 76.0269 328.347 71.1576V20.5576H339.347V70.3656C339.347 75.0589 341.547 77.4056 345.947 77.4056C347.414 77.4056 348.734 77.1122 349.907 76.5256L350.435 85.3256C348.382 86.0882 346.182 86.4696 343.835 86.4696ZM403.406 38.8616V85.8536H392.934V79.8696C391.174 81.9816 388.974 83.6242 386.334 84.7976C383.694 85.9122 380.849 86.4696 377.798 86.4696C371.521 86.4696 366.563 84.7389 362.926 81.2776C359.347 77.7576 357.558 72.5656 357.558 65.7016V38.8616H368.558V64.2056C368.558 68.4296 369.497 71.5976 371.374 73.7096C373.31 75.7629 376.038 76.7896 379.558 76.7896C383.489 76.7896 386.598 75.5869 388.886 73.1816C391.233 70.7176 392.406 67.1976 392.406 62.6216V38.8616H403.406Z" fill="black"/>
<path d="M128.45 113.318H130.58V123.818H128.63V122.048C127.83 122.688 126.89 123.178 125.81 123.518C124.75 123.838 123.61 123.998 122.39 123.998C120.51 123.998 118.76 123.578 117.14 122.738C115.54 121.898 114.25 120.678 113.27 119.078C112.29 117.478 111.8 115.578 111.8 113.378C111.8 111.338 112.28 109.508 113.24 107.888C114.2 106.248 115.52 104.968 117.2 104.048C118.88 103.108 120.78 102.638 122.9 102.638C124.5 102.638 125.97 102.898 127.31 103.418C128.65 103.918 129.78 104.668 130.7 105.668L129.32 107.078C127.66 105.438 125.55 104.618 122.99 104.618C121.29 104.618 119.75 104.998 118.37 105.758C117.01 106.498 115.94 107.538 115.16 108.878C114.38 110.218 113.99 111.718 113.99 113.378C113.99 115.158 114.38 116.708 115.16 118.028C115.96 119.328 117.01 120.328 118.31 121.028C119.63 121.708 121.04 122.048 122.54 122.048C123.64 122.048 124.7 121.868 125.72 121.508C126.76 121.128 127.67 120.558 128.45 119.798V113.318ZM150.813 108.038V123.818H148.773V120.698C148.133 121.758 147.283 122.568 146.223 123.128C145.183 123.688 144.003 123.968 142.683 123.968C141.203 123.968 139.863 123.628 138.663 122.948C137.463 122.268 136.523 121.318 135.843 120.098C135.163 118.878 134.823 117.488 134.823 115.928C134.823 114.368 135.163 112.978 135.843 111.758C136.523 110.538 137.463 109.598 138.663 108.938C139.863 108.258 141.203 107.918 142.683 107.918C143.963 107.918 145.113 108.188 146.133 108.728C147.173 109.248 148.023 110.018 148.683 111.038V108.038H150.813ZM142.863 122.078C143.963 122.078 144.953 121.828 145.833 121.328C146.733 120.808 147.433 120.078 147.933 119.138C148.453 118.198 148.713 117.128 148.713 115.928C148.713 114.728 148.453 113.658 147.933 112.718C147.433 111.778 146.733 111.058 145.833 110.558C144.953 110.038 143.963 109.778 142.863 109.778C141.743 109.778 140.733 110.038 139.833 110.558C138.953 111.058 138.253 111.778 137.733 112.718C137.233 113.658 136.983 114.728 136.983 115.928C136.983 117.128 137.233 118.198 137.733 119.138C138.253 120.078 138.953 120.808 139.833 121.328C140.733 121.828 141.743 122.078 142.863 122.078ZM164.515 122.858C164.115 123.218 163.625 123.498 163.045 123.698C162.465 123.878 161.855 123.968 161.215 123.968C159.735 123.968 158.595 123.568 157.795 122.768C156.995 121.968 156.595 120.838 156.595 119.378V104.588H158.725V108.038H163.495V109.838H158.725V119.258C158.725 120.198 158.955 120.918 159.415 121.418C159.875 121.898 160.545 122.138 161.425 122.138C162.385 122.138 163.165 121.868 163.765 121.328L164.515 122.858ZM174.569 122.078C175.549 122.078 176.449 121.908 177.269 121.568C178.109 121.208 178.819 120.688 179.399 120.008L180.599 121.388C179.899 122.228 179.029 122.868 177.989 123.308C176.949 123.748 175.799 123.968 174.539 123.968C172.919 123.968 171.479 123.628 170.219 122.948C168.959 122.248 167.979 121.288 167.279 120.068C166.579 118.848 166.229 117.468 166.229 115.928C166.229 114.388 166.559 113.008 167.219 111.788C167.899 110.568 168.829 109.618 170.009 108.938C171.189 108.258 172.529 107.918 174.029 107.918C175.429 107.918 176.689 108.238 177.809 108.878C178.949 109.518 179.849 110.408 180.509 111.548C181.189 112.688 181.549 113.988 181.589 115.448L168.629 117.968C169.029 119.248 169.749 120.258 170.789 120.998C171.849 121.718 173.109 122.078 174.569 122.078ZM174.029 109.748C172.929 109.748 171.939 110.008 171.059 110.528C170.199 111.028 169.519 111.738 169.019 112.658C168.539 113.558 168.299 114.598 168.299 115.778C168.299 116.078 168.309 116.298 168.329 116.438L179.459 114.278C179.219 112.958 178.609 111.878 177.629 111.038C176.649 110.178 175.449 109.748 174.029 109.748ZM201.546 122.858C201.146 123.218 200.656 123.498 200.076 123.698C199.496 123.878 198.886 123.968 198.246 123.968C196.766 123.968 195.626 123.568 194.826 122.768C194.026 121.968 193.626 120.838 193.626 119.378V104.588H195.756V108.038H200.526V109.838H195.756V119.258C195.756 120.198 195.986 120.918 196.446 121.418C196.906 121.898 197.576 122.138 198.456 122.138C199.416 122.138 200.196 121.868 200.796 121.328L201.546 122.858ZM211.301 123.968C209.781 123.968 208.411 123.628 207.191 122.948C205.971 122.248 205.011 121.288 204.311 120.068C203.611 118.848 203.261 117.468 203.261 115.928C203.261 114.388 203.611 113.008 204.311 111.788C205.011 110.568 205.971 109.618 207.191 108.938C208.411 108.258 209.781 107.918 211.301 107.918C212.821 107.918 214.191 108.258 215.411 108.938C216.631 109.618 217.581 110.568 218.261 111.788C218.961 113.008 219.311 114.388 219.311 115.928C219.311 117.468 218.961 118.848 218.261 120.068C217.581 121.288 216.631 122.248 215.411 122.948C214.191 123.628 212.821 123.968 211.301 123.968ZM211.301 122.078C212.421 122.078 213.421 121.828 214.301 121.328C215.201 120.808 215.901 120.078 216.401 119.138C216.901 118.198 217.151 117.128 217.151 115.928C217.151 114.728 216.901 113.658 216.401 112.718C215.901 111.778 215.201 111.058 214.301 110.558C213.421 110.038 212.421 109.778 211.301 109.778C210.181 109.778 209.171 110.038 208.271 110.558C207.391 111.058 206.691 111.778 206.171 112.718C205.671 113.658 205.421 114.728 205.421 115.928C205.421 117.128 205.671 118.198 206.171 119.138C206.691 120.078 207.391 120.808 208.271 121.328C209.171 121.828 210.181 122.078 211.301 122.078ZM238.051 123.968C236.491 123.968 235.091 123.628 233.851 122.948C232.631 122.268 231.671 121.318 230.971 120.098C230.271 118.858 229.921 117.468 229.921 115.928C229.921 114.388 230.271 113.008 230.971 111.788C231.671 110.568 232.631 109.618 233.851 108.938C235.091 108.258 236.491 107.918 238.051 107.918C239.411 107.918 240.621 108.188 241.681 108.728C242.761 109.248 243.611 110.018 244.231 111.038L242.641 112.118C242.121 111.338 241.461 110.758 240.661 110.378C239.861 109.978 238.991 109.778 238.051 109.778C236.911 109.778 235.881 110.038 234.961 110.558C234.061 111.058 233.351 111.778 232.831 112.718C232.331 113.658 232.081 114.728 232.081 115.928C232.081 117.148 232.331 118.228 232.831 119.168C233.351 120.088 234.061 120.808 234.961 121.328C235.881 121.828 236.911 122.078 238.051 122.078C238.991 122.078 239.861 121.888 240.661 121.508C241.461 121.128 242.121 120.548 242.641 119.768L244.231 120.848C243.611 121.868 242.761 122.648 241.681 123.188C240.601 123.708 239.391 123.968 238.051 123.968ZM250.455 111.128C250.955 110.068 251.695 109.268 252.675 108.728C253.675 108.188 254.905 107.918 256.365 107.918V109.988L255.855 109.958C254.195 109.958 252.895 110.468 251.955 111.488C251.015 112.508 250.545 113.938 250.545 115.778V123.818H248.415V108.038H250.455V111.128ZM266.525 123.968C265.005 123.968 263.635 123.628 262.415 122.948C261.195 122.248 260.235 121.288 259.535 120.068C258.835 118.848 258.485 117.468 258.485 115.928C258.485 114.388 258.835 113.008 259.535 111.788C260.235 110.568 261.195 109.618 262.415 108.938C263.635 108.258 265.005 107.918 266.525 107.918C268.045 107.918 269.415 108.258 270.635 108.938C271.855 109.618 272.805 110.568 273.485 111.788C274.185 113.008 274.535 114.388 274.535 115.928C274.535 117.468 274.185 118.848 273.485 120.068C272.805 121.288 271.855 122.248 270.635 122.948C269.415 123.628 268.045 123.968 266.525 123.968ZM266.525 122.078C267.645 122.078 268.645 121.828 269.525 121.328C270.425 120.808 271.125 120.078 271.625 119.138C272.125 118.198 272.375 117.128 272.375 115.928C272.375 114.728 272.125 113.658 271.625 112.718C271.125 111.778 270.425 111.058 269.525 110.558C268.645 110.038 267.645 109.778 266.525 109.778C265.405 109.778 264.395 110.038 263.495 110.558C262.615 111.058 261.915 111.778 261.395 112.718C260.895 113.658 260.645 114.728 260.645 115.928C260.645 117.128 260.895 118.198 261.395 119.138C261.915 120.078 262.615 120.808 263.495 121.328C264.395 121.828 265.405 122.078 266.525 122.078ZM283.114 123.968C281.834 123.968 280.604 123.788 279.424 123.428C278.264 123.048 277.354 122.578 276.694 122.018L277.654 120.338C278.314 120.858 279.144 121.288 280.144 121.628C281.144 121.948 282.184 122.108 283.264 122.108C284.704 122.108 285.764 121.888 286.444 121.448C287.144 120.988 287.494 120.348 287.494 119.528C287.494 118.948 287.304 118.498 286.924 118.178C286.544 117.838 286.064 117.588 285.484 117.428C284.904 117.248 284.134 117.078 283.174 116.918C281.894 116.678 280.864 116.438 280.084 116.198C279.304 115.938 278.634 115.508 278.074 114.908C277.534 114.308 277.264 113.478 277.264 112.418C277.264 111.098 277.814 110.018 278.914 109.178C280.014 108.338 281.544 107.918 283.504 107.918C284.524 107.918 285.544 108.058 286.564 108.338C287.584 108.598 288.424 108.948 289.084 109.388L288.154 111.098C286.854 110.198 285.304 109.748 283.504 109.748C282.144 109.748 281.114 109.988 280.414 110.468C279.734 110.948 279.394 111.578 279.394 112.358C279.394 112.958 279.584 113.438 279.964 113.798C280.364 114.158 280.854 114.428 281.434 114.608C282.014 114.768 282.814 114.938 283.834 115.118C285.094 115.358 286.104 115.598 286.864 115.838C287.624 116.078 288.274 116.488 288.814 117.068C289.354 117.648 289.624 118.448 289.624 119.468C289.624 120.848 289.044 121.948 287.884 122.768C286.744 123.568 285.154 123.968 283.114 123.968ZM297.792 123.968C296.512 123.968 295.282 123.788 294.102 123.428C292.942 123.048 292.032 122.578 291.372 122.018L292.332 120.338C292.992 120.858 293.822 121.288 294.822 121.628C295.822 121.948 296.862 122.108 297.942 122.108C299.382 122.108 300.442 121.888 301.122 121.448C301.822 120.988 302.172 120.348 302.172 119.528C302.172 118.948 301.982 118.498 301.602 118.178C301.222 117.838 300.742 117.588 300.162 117.428C299.582 117.248 298.812 117.078 297.852 116.918C296.572 116.678 295.542 116.438 294.762 116.198C293.982 115.938 293.312 115.508 292.752 114.908C292.212 114.308 291.942 113.478 291.942 112.418C291.942 111.098 292.492 110.018 293.592 109.178C294.692 108.338 296.222 107.918 298.182 107.918C299.202 107.918 300.222 108.058 301.242 108.338C302.262 108.598 303.102 108.948 303.762 109.388L302.832 111.098C301.532 110.198 299.982 109.748 298.182 109.748C296.822 109.748 295.792 109.988 295.092 110.468C294.412 110.948 294.072 111.578 294.072 112.358C294.072 112.958 294.262 113.438 294.642 113.798C295.042 114.158 295.532 114.428 296.112 114.608C296.692 114.768 297.492 114.938 298.512 115.118C299.772 115.358 300.782 115.598 301.542 115.838C302.302 116.078 302.952 116.488 303.492 117.068C304.032 117.648 304.302 118.448 304.302 119.468C304.302 120.848 303.722 121.948 302.562 122.768C301.422 123.568 299.832 123.968 297.792 123.968ZM314.779 123.968C313.219 123.968 311.819 123.628 310.579 122.948C309.359 122.268 308.399 121.318 307.699 120.098C306.999 118.858 306.649 117.468 306.649 115.928C306.649 114.388 306.999 113.008 307.699 111.788C308.399 110.568 309.359 109.618 310.579 108.938C311.819 108.258 313.219 107.918 314.779 107.918C316.139 107.918 317.349 108.188 318.409 108.728C319.489 109.248 320.339 110.018 320.959 111.038L319.369 112.118C318.849 111.338 318.189 110.758 317.389 110.378C316.589 109.978 315.719 109.778 314.779 109.778C313.639 109.778 312.609 110.038 311.689 110.558C310.789 111.058 310.079 111.778 309.559 112.718C309.059 113.658 308.809 114.728 308.809 115.928C308.809 117.148 309.059 118.228 309.559 119.168C310.079 120.088 310.789 120.808 311.689 121.328C312.609 121.828 313.639 122.078 314.779 122.078C315.719 122.078 316.589 121.888 317.389 121.508C318.189 121.128 318.849 120.548 319.369 119.768L320.959 120.848C320.339 121.868 319.489 122.648 318.409 123.188C317.329 123.708 316.119 123.968 314.779 123.968ZM332.949 107.918C334.929 107.918 336.499 108.498 337.659 109.658C338.839 110.798 339.429 112.468 339.429 114.668V123.818H337.299V114.878C337.299 113.238 336.889 111.988 336.069 111.128C335.249 110.268 334.079 109.838 332.559 109.838C330.859 109.838 329.509 110.348 328.509 111.368C327.529 112.368 327.039 113.758 327.039 115.538V123.818H324.909V101.558H327.039V110.798C327.619 109.878 328.419 109.168 329.439 108.668C330.459 108.168 331.629 107.918 332.949 107.918ZM359.671 108.038V123.818H357.631V120.698C356.991 121.758 356.141 122.568 355.081 123.128C354.041 123.688 352.861 123.968 351.541 123.968C350.061 123.968 348.721 123.628 347.521 122.948C346.321 122.268 345.381 121.318 344.701 120.098C344.021 118.878 343.681 117.488 343.681 115.928C343.681 114.368 344.021 112.978 344.701 111.758C345.381 110.538 346.321 109.598 347.521 108.938C348.721 108.258 350.061 107.918 351.541 107.918C352.821 107.918 353.971 108.188 354.991 108.728C356.031 109.248 356.881 110.018 357.541 111.038V108.038H359.671ZM351.721 122.078C352.821 122.078 353.811 121.828 354.691 121.328C355.591 120.808 356.291 120.078 356.791 119.138C357.311 118.198 357.571 117.128 357.571 115.928C357.571 114.728 357.311 113.658 356.791 112.718C356.291 111.778 355.591 111.058 354.691 110.558C353.811 110.038 352.821 109.778 351.721 109.778C350.601 109.778 349.591 110.038 348.691 110.558C347.811 111.058 347.111 111.778 346.591 112.718C346.091 113.658 345.841 114.728 345.841 115.928C345.841 117.128 346.091 118.198 346.591 119.138C347.111 120.078 347.811 120.808 348.691 121.328C349.591 121.828 350.601 122.078 351.721 122.078ZM365.603 108.038H367.733V123.818H365.603V108.038ZM366.683 104.588C366.243 104.588 365.873 104.438 365.573 104.138C365.273 103.838 365.123 103.478 365.123 103.058C365.123 102.658 365.273 102.308 365.573 102.008C365.873 101.708 366.243 101.558 366.683 101.558C367.123 101.558 367.493 101.708 367.793 102.008C368.093 102.288 368.243 102.628 368.243 103.028C368.243 103.468 368.093 103.838 367.793 104.138C367.493 104.438 367.123 104.588 366.683 104.588ZM381.699 107.918C383.679 107.918 385.249 108.498 386.409 109.658C387.589 110.798 388.179 112.468 388.179 114.668V123.818H386.049V114.878C386.049 113.238 385.639 111.988 384.819 111.128C383.999 110.268 382.829 109.838 381.309 109.838C379.609 109.838 378.259 110.348 377.259 111.368C376.279 112.368 375.789 113.758 375.789 115.538V123.818H373.659V108.038H375.699V110.948C376.279 109.988 377.079 109.248 378.099 108.728C379.139 108.188 380.339 107.918 381.699 107.918Z" fill="black"/>
</svg>
