<?xml version="1.0" encoding="utf-8"?>
<!-- Generator: Adobe Illustrator 16.0.0, SVG Export Plug-In . SVG Version: 6.00 Build 0)  -->
<!DOCTYPE svg PUBLIC "-//W3C//DTD SVG 1.1//EN" "http://www.w3.org/Graphics/SVG/1.1/DTD/svg11.dtd">
<svg version="1.1" id="Layer_1" xmlns="http://www.w3.org/2000/svg" xmlns:xlink="http://www.w3.org/1999/xlink" x="0px" y="0px"
	 width="50px" height="50px" viewBox="0 0 50 50" enable-background="new 0 0 50 50" xml:space="preserve">
<g>
	<path fill-rule="evenodd" clip-rule="evenodd" fill="#624D9D" d="M2.764,13.396c0.05-0.157,0.06-0.322,0.107-0.48
		c0.203-0.678,0.61-1.183,1.228-1.534c0.845-0.479,1.679-0.978,2.518-1.468c1.597-0.935,3.195-1.871,4.792-2.806
		c0.743-0.435,1.483-0.873,2.229-1.301c0.293-0.167,0.603-0.283,0.957-0.263c0.348,0.02,0.699,0.016,1.047,0.001
		c0.254-0.012,0.484,0.048,0.699,0.171c0.516,0.295,1.028,0.596,1.541,0.896c1.64,0.963,3.28,1.927,4.92,2.89
		c0.974,0.573,1.953,1.139,2.922,1.72c0.736,0.443,1.202,1.092,1.376,1.939c0.034,0.17,0.052,0.345,0.052,0.52
		c0,1.281-0.002,2.563,0.001,3.845c0.001,0.079-0.027,0.116-0.093,0.153c-1.391,0.803-2.781,1.608-4.17,2.414
		c-0.044,0.025-0.09,0.05-0.148,0.082c-0.002-0.048-0.005-0.086-0.005-0.125c0-1.196-0.003-2.393,0.001-3.589
		c0.002-0.705-0.194-1.339-0.635-1.894c-0.23-0.288-0.513-0.51-0.827-0.699c-1.614-0.973-3.225-1.951-4.839-2.922
		c-0.382-0.229-0.803-0.342-1.246-0.386c-0.546-0.054-1.062,0.037-1.545,0.292c-0.303,0.16-0.597,0.339-0.893,0.512
		c-1.204,0.699-2.408,1.399-3.61,2.101c-0.306,0.179-0.625,0.337-0.899,0.566C7.694,14.49,7.338,15.06,7.22,15.771
		c-0.027,0.165-0.042,0.33-0.042,0.497c0,1.898-0.002,3.797,0.002,5.695c0.002,1.102,0.468,1.953,1.413,2.526
		c1.632,0.992,3.266,1.981,4.903,2.963c0.368,0.22,0.777,0.327,1.205,0.372c0.541,0.057,1.057-0.023,1.537-0.275
		c0.336-0.177,0.658-0.383,0.984-0.578c1.835-1.101,3.664-2.21,5.506-3.298c0.894-0.526,1.81-1.018,2.722-1.512
		c1.228-0.665,2.434-1.368,3.635-2.079c1.511-0.894,3.022-1.786,4.537-2.67c0.321-0.188,0.678-0.285,1.046-0.337
		c0.761-0.11,1.436,0.106,2.088,0.495c1.354,0.809,2.724,1.588,4.088,2.38c1.466,0.851,2.932,1.702,4.396,2.553
		c0.301,0.175,0.612,0.33,0.885,0.549c0.581,0.464,0.948,1.056,1.07,1.794c0.033,0.203,0.043,0.404,0.043,0.609
		c-0.001,3.582,0,7.162-0.001,10.744c0,1.164-0.498,2.044-1.511,2.631c-2.729,1.58-5.454,3.165-8.184,4.746
		c-0.413,0.239-0.814,0.495-1.244,0.704c-0.237,0.115-0.482,0.185-0.756,0.172c-0.345-0.015-0.692-0.02-1.036,0.001
		c-0.324,0.02-0.603-0.088-0.87-0.243c-1.56-0.902-3.119-1.809-4.678-2.713c-1.565-0.909-3.135-1.812-4.694-2.732
		c-0.782-0.461-1.246-1.16-1.388-2.062c-0.02-0.122-0.028-0.249-0.028-0.376c0.002-1.244,0.002-2.489-0.001-3.733
		c0-0.083,0.029-0.122,0.097-0.162c1.347-0.776,2.692-1.557,4.038-2.336c0.089-0.051,0.178-0.102,0.281-0.162
		c0,0.057,0,0.095,0,0.134c0,1.174,0.002,2.349,0,3.521c-0.001,0.758,0.248,1.42,0.752,1.983c0.237,0.267,0.534,0.453,0.841,0.63
		c1.588,0.921,3.172,1.849,4.761,2.766c0.318,0.184,0.671,0.28,1.035,0.336c0.538,0.082,1.055,0.019,1.551-0.199
		c0.332-0.146,0.631-0.353,0.941-0.538c1.362-0.809,2.725-1.62,4.085-2.431c0.69-0.411,1.163-0.991,1.38-1.772
		c0.069-0.253,0.097-0.51,0.097-0.77c0.004-1.901,0.015-3.804-0.003-5.705c-0.01-1.146-0.536-1.996-1.536-2.569
		c-1.594-0.912-3.176-1.846-4.764-2.767c-0.367-0.212-0.77-0.328-1.192-0.375c-0.675-0.079-1.283,0.09-1.863,0.432
		c-1.521,0.896-3.05,1.779-4.575,2.665c-1.913,1.112-3.829,2.22-5.74,3.331c-2.08,1.207-4.157,2.417-6.234,3.628
		c-0.341,0.198-0.682,0.394-1.07,0.495c-0.804,0.208-1.562,0.119-2.283-0.304c-1.413-0.825-2.831-1.644-4.246-2.465
		c-1.462-0.85-2.926-1.698-4.388-2.551c-0.318-0.185-0.65-0.35-0.941-0.582c-0.573-0.456-0.935-1.037-1.064-1.76
		c-0.011-0.063-0.001-0.133-0.041-0.189C2.764,21.05,2.764,17.223,2.764,13.396z"/>
</g>
</svg>
