<?xml version="1.0" encoding="utf-8"?>
<!-- Generator: Adobe Illustrator 16.0.0, SVG Export Plug-In . SVG Version: 6.00 Build 0)  -->
<!DOCTYPE svg PUBLIC "-//W3C//DTD SVG 1.1//EN" "http://www.w3.org/Graphics/SVG/1.1/DTD/svg11.dtd">
<svg version="1.1" id="Layer_1" xmlns="http://www.w3.org/2000/svg" xmlns:xlink="http://www.w3.org/1999/xlink" x="0px" y="0px"
	 width="50px" height="50px" viewBox="0 0 50 50" enable-background="new 0 0 50 50" xml:space="preserve">
<g>
	<path fill-rule="evenodd" clip-rule="evenodd" fill="#6553A1" d="M12.33,35.635c1.484-0.002,2.969-0.008,4.454-0.008
		c1.073,0,2.146,0.006,3.22,0.008c0.389,0.197,0.667,0.531,0.992,0.809c0.798,0.682,1.584,1.375,2.375,2.064
		c0.547,0.477,1.118,0.926,1.646,1.424c0.423,0.4,0.886,0.752,1.323,1.135c0.387,0.34,0.783,0.668,1.158,1.023
		c0.527,0.5,1.135,0.91,1.645,1.43c0.459,0.467,1.018,0.814,1.484,1.275c0.215,0.213,0.467,0.393,0.686,0.609
		c0.086,0.084,0.178,0.176,0.105,0.314c-0.961,0.004-1.922,0.01-2.881,0.008c-1.598,0-3.197-0.004-4.794-0.008
		c-0.342-0.191-0.603-0.484-0.872-0.758c-0.125-0.127-0.277-0.186-0.411-0.281c-0.299-0.213-0.526-0.5-0.809-0.725
		c-0.502-0.398-0.945-0.863-1.443-1.271c-0.427-0.348-0.826-0.74-1.247-1.098c-0.531-0.453-1.015-0.969-1.618-1.338
		c-0.288-0.176-0.443-0.486-0.704-0.695c-0.488-0.393-0.939-0.828-1.424-1.223c-0.268-0.217-0.521-0.451-0.795-0.662
		c-0.059-0.045-0.118-0.09-0.154-0.152c-0.19-0.334-0.547-0.459-0.834-0.672c-0.057-0.041-0.144-0.053-0.186-0.109
		c-0.239-0.332-0.601-0.535-0.86-0.846C12.321,35.814,12.25,35.74,12.33,35.635z"/>
	<path fill-rule="evenodd" clip-rule="evenodd" fill="#6852A0" d="M12.33,35.635c0.113,0.197,0.274,0.359,0.45,0.492
		c0.138,0.102,0.271,0.199,0.367,0.342c0.188,0.277,0.523,0.354,0.766,0.559c0.152,0.129,0.346,0.205,0.427,0.41
		c0.017,0.043,0.058,0.078,0.094,0.109c0.369,0.313,0.728,0.641,1.114,0.934c0.44,0.33,0.809,0.742,1.252,1.068
		c0.246,0.184,0.376,0.488,0.652,0.646c0.337,0.191,0.644,0.439,0.907,0.711c0.275,0.281,0.626,0.475,0.864,0.795
		c0.112,0.152,0.298,0.238,0.444,0.359c0.326,0.273,0.593,0.621,0.985,0.818c0.161,0.08,0.25,0.248,0.374,0.373
		c0.378,0.375,0.82,0.68,1.179,1.08c0.142,0.158,0.325,0.342,0.572,0.379c0.168,0.025,0.15,0.207,0.266,0.291
		c0.27,0.197,0.533,0.414,0.699,0.717c-1.125,0.004-2.25,0.008-3.375,0.008c-1.513,0-3.027-0.004-4.54-0.008
		c-0.262-0.262-0.592-0.43-0.84-0.734c-0.253-0.311-0.527-0.672-0.97-0.785c-0.063-0.016-0.11-0.066-0.147-0.121
		c-0.305-0.434-0.725-0.74-1.149-1.039c-0.237-0.166-0.486-0.316-0.593-0.613c-0.063-0.174-0.267-0.195-0.389-0.313
		c-0.292-0.283-0.612-0.533-0.965-0.736c-0.029-0.018-0.057-0.037-0.069-0.066c-0.15-0.359-0.48-0.529-0.773-0.736
		c-0.114-0.08-0.19-0.197-0.286-0.293c-0.404-0.406-0.889-0.719-1.287-1.127c-0.208-0.213-0.47-0.361-0.664-0.588
		c-0.058-0.068-0.145-0.113-0.076-0.221c0.51-0.535,1.012-1.078,1.534-1.602c0.237-0.238,0.429-0.516,0.701-0.727
		c0.337-0.26,0.715-0.373,1.123-0.387C11.426,35.615,11.878,35.633,12.33,35.635z"/>
	<path fill-rule="evenodd" clip-rule="evenodd" fill="#6A519F" d="M7.617,38.346c0.181,0.141,0.333,0.309,0.518,0.449
		c0.225,0.17,0.425,0.381,0.639,0.572c0.144,0.131,0.265,0.281,0.443,0.367c0.233,0.115,0.363,0.342,0.542,0.514
		c0.256,0.244,0.55,0.434,0.814,0.664c0.062,0.055,0.127,0.1,0.154,0.182c0.038,0.111,0.039,0.273,0.237,0.186
		c0.013-0.006,0.052,0.016,0.059,0.033c0.136,0.33,0.51,0.389,0.722,0.641c0.201,0.236,0.508,0.354,0.637,0.693
		c0.066,0.174,0.33,0.307,0.533,0.387c0.247,0.1,0.364,0.322,0.555,0.469c0.191,0.15,0.431,0.266,0.5,0.535
		c0.006,0.027,0.047,0.066,0.066,0.064c0.254-0.041,0.341,0.252,0.563,0.277c0.062,0.008,0.095,0.061,0.112,0.117
		c0.045,0.15,0.218,0.211,0.273,0.316c0.202,0.385,0.7,0.482,0.844,0.906c-0.081,0.004-0.162,0.008-0.242,0.008
		c-4.287,0.002-8.573,0.002-12.859,0.002c-0.469,0-0.774-0.178-0.922-0.557c-0.154-0.391-0.022-0.713,0.258-1.006
		c1.66-1.734,3.314-3.473,4.971-5.209C7.226,38.752,7.422,38.551,7.617,38.346z"/>
	<path fill-rule="evenodd" clip-rule="evenodd" fill="#6454A1" d="M14.661,30.373c-1.277,0.002-2.555,0.02-3.832,0
		c-0.494-0.008-0.897-0.271-1.237-0.629c-1.313-1.383-2.63-2.762-3.946-4.141c-1.22-1.281-2.442-2.561-3.66-3.844
		c-0.255-0.269-0.326-0.595-0.181-0.937c0.148-0.348,0.429-0.533,0.813-0.542c0.162-0.004,0.323,0.004,0.484,0.007
		c0.359,0.105,0.569,0.416,0.851,0.626c0.511,0.383,0.955,0.843,1.433,1.264c0.332,0.293,0.701,0.545,1.024,0.848
		c0.446,0.417,0.901,0.827,1.368,1.218c0.693,0.58,1.383,1.164,2.058,1.765c0.553,0.492,1.106,0.99,1.671,1.467
		c0.856,0.727,1.679,1.49,2.543,2.207c0.167,0.139,0.338,0.273,0.507,0.41C14.645,30.166,14.748,30.236,14.661,30.373z"/>
	<path fill-rule="evenodd" clip-rule="evenodd" fill="#645CA6" d="M14.661,30.373c-0.075-0.217-0.291-0.297-0.446-0.422
		c-1.031-0.83-1.99-1.744-3.006-2.592c-0.382-0.318-0.782-0.623-1.134-0.979c-0.614-0.619-1.307-1.15-1.965-1.717
		c-0.375-0.323-0.713-0.695-1.136-0.966c-0.286-0.183-0.474-0.475-0.744-0.686c-0.564-0.441-1.107-0.913-1.63-1.402
		c-0.448-0.418-0.946-0.773-1.395-1.188c-0.041-0.038-0.068-0.089-0.102-0.134c0.906,0,1.813,0,2.718,0
		c0.336,0.12,0.508,0.438,0.774,0.645c0.719,0.559,1.379,1.188,2.067,1.785c0.431,0.374,0.864,0.749,1.321,1.095
		c0.296,0.224,0.532,0.514,0.823,0.747c0.59,0.473,1.139,0.996,1.726,1.476c0.221,0.18,0.429,0.387,0.644,0.58
		c0.233,0.209,0.468,0.422,0.715,0.611c0.374,0.285,0.679,0.646,1.054,0.928c0.648,0.484,1.194,1.086,1.829,1.586
		c0.138,0.109,0.26,0.236,0.411,0.334c0.096,0.063,0.201,0.148,0.146,0.299C16.44,30.373,15.551,30.373,14.661,30.373z"/>
	<path fill-rule="evenodd" clip-rule="evenodd" fill="#5FBD9D" d="M24.763,4.941c0.842,0,1.685,0,2.526,0
		c0.332,0.076,0.564,0.31,0.795,0.531c0.32,0.308,0.691,0.561,0.961,0.92c0.074,0.1,0.195,0.142,0.291,0.212
		c0.287,0.209,0.527,0.474,0.795,0.696c0.586,0.486,1.191,0.953,1.748,1.473c0.439,0.413,0.904,0.794,1.359,1.187
		c0.621,0.534,1.201,1.115,1.84,1.627c0.604,0.484,1.162,1.021,1.762,1.509c0.66,0.539,1.273,1.137,1.941,1.667
		c0.086,0.068,0.158,0.147,0.064,0.264c-0.873,0-1.748,0-2.621,0c-0.387-0.235-0.719-0.536-1.041-0.848
		c-0.174-0.168-0.338-0.346-0.537-0.489c-0.459-0.33-0.855-0.734-1.281-1.104c-0.586-0.507-1.168-1.014-1.766-1.506
		c-0.461-0.377-0.877-0.806-1.33-1.193c-0.746-0.641-1.484-1.292-2.232-1.933c-0.617-0.528-1.244-1.045-1.865-1.568
		c-0.242-0.203-0.494-0.413-0.702-0.66c-0.131-0.156-0.304-0.264-0.46-0.392C24.891,5.237,24.693,5.166,24.763,4.941z"/>
	<path fill-rule="evenodd" clip-rule="evenodd" fill="#61BD99" d="M38.846,15.026c0.002-0.17-0.164-0.183-0.252-0.267
		c-0.514-0.485-1.08-0.909-1.588-1.403c-0.287-0.28-0.625-0.529-0.947-0.782c-0.207-0.164-0.396-0.349-0.596-0.521
		c-0.408-0.35-0.826-0.689-1.225-1.05c-0.246-0.223-0.48-0.471-0.725-0.692c-0.258-0.232-0.543-0.45-0.814-0.674
		c-0.408-0.333-0.803-0.684-1.186-1.044c-0.262-0.244-0.533-0.469-0.834-0.659c-0.059-0.038-0.109-0.096-0.148-0.156
		c-0.084-0.133-0.178-0.245-0.34-0.29c-0.059-0.017-0.129-0.054-0.162-0.103c-0.373-0.55-1.002-0.813-1.443-1.297
		c-0.336-0.367-0.707-0.729-1.146-0.993c-0.059-0.036-0.102-0.103-0.15-0.155c0.857,0,1.715,0,2.574,0
		c0.383,0.176,0.719,0.408,1.023,0.712c0.295,0.294,0.648,0.53,0.951,0.821c0.719,0.695,1.557,1.252,2.252,1.972
		c0.063,0.064,0.135,0.115,0.205,0.168c0.609,0.451,1.139,0.993,1.711,1.484c0.531,0.457,1.035,0.948,1.615,1.345
		c0.297,0.202,0.502,0.504,0.795,0.708c0.357,0.25,0.643,0.581,0.977,0.86c0.379,0.318,0.771,0.629,1.115,0.993
		c0.072,0.077,0.102,0.161,0.107,0.26C40.164,14.842,39.574,15.097,38.846,15.026z"/>
	<path fill-rule="evenodd" clip-rule="evenodd" fill="#5ABDA3" d="M33.795,15.026c-0.842,0-1.684,0-2.525,0
		c-0.465-0.174-0.744-0.582-1.107-0.883c-0.615-0.51-1.195-1.063-1.816-1.564c-0.611-0.492-1.186-1.024-1.775-1.536
		c-0.512-0.443-1.023-0.889-1.533-1.335c-0.63-0.553-1.261-1.105-1.901-1.646c-0.48-0.407-0.939-0.838-1.42-1.244
		c-0.5-0.421-1.018-0.82-1.497-1.265c-0.125-0.116-0.251-0.229-0.364-0.355c-0.065-0.073-0.127-0.154-0.047-0.256
		c0.842,0,1.684,0,2.526,0c0.544,0.298,0.944,0.77,1.412,1.16c0.359,0.299,0.712,0.606,1.058,0.919
		c0.399,0.36,0.879,0.627,1.21,1.067c0.162,0.214,0.428,0.313,0.631,0.488c0.537,0.463,1.033,0.975,1.598,1.403
		c0.424,0.322,0.797,0.7,1.203,1.042c0.553,0.466,1.057,0.988,1.637,1.422c0.439,0.33,0.797,0.748,1.221,1.096
		c0.48,0.392,0.986,0.761,1.404,1.226C33.775,14.841,33.877,14.901,33.795,15.026z"/>
	<path fill-rule="evenodd" clip-rule="evenodd" fill="#65BE91" d="M32.873,4.941c1.197,0,2.395,0,3.594,0
		c0.369,0.234,0.688,0.522,0.998,0.831c0.318,0.314,0.682,0.585,1.029,0.872c0.283,0.236,0.594,0.445,0.832,0.729
		c0.18,0.213,0.408,0.37,0.619,0.54c0.508,0.409,0.967,0.872,1.465,1.292c0.652,0.55,1.318,1.085,1.947,1.665
		c0.1,0.093,0.213,0.186,0.16,0.351c-0.51,0.551-1.008,1.115-1.564,1.621c-0.115,0.008-0.221-0.001-0.316-0.085
		c-0.287-0.258-0.57-0.528-0.873-0.763c-0.346-0.269-0.633-0.589-0.949-0.884c-0.26-0.242-0.531-0.451-0.828-0.645
		c-0.232-0.152-0.406-0.407-0.635-0.583c-0.313-0.243-0.502-0.633-0.846-0.811c-0.301-0.156-0.52-0.395-0.791-0.577
		c-0.275-0.187-0.486-0.466-0.74-0.69c-0.066-0.059-0.131-0.117-0.211-0.159c-0.186-0.1-0.34-0.229-0.467-0.409
		c-0.164-0.23-0.449-0.338-0.629-0.562c-0.141-0.175-0.328-0.306-0.469-0.486c-0.072-0.095-0.172-0.17-0.291-0.212
		c-0.457-0.162-0.717-0.556-1.037-0.881C32.832,5.053,32.824,4.992,32.873,4.941z"/>
	<path fill-rule="evenodd" clip-rule="evenodd" fill="#54BCA9" d="M48.324,29.703c-0.145,0.455-0.434,0.676-0.889,0.678
		c-0.307,0-0.611-0.006-0.918-0.008c-0.377-0.164-0.652-0.471-0.953-0.732c-0.674-0.59-1.35-1.174-2.035-1.752
		c-0.369-0.311-0.715-0.652-1.088-0.959c-0.535-0.441-1.035-0.924-1.568-1.368c-0.555-0.466-1.1-0.948-1.646-1.424
		c-0.689-0.597-1.375-1.196-2.063-1.795c-0.541-0.472-1.107-0.914-1.627-1.41c-0.135-0.129-0.299-0.224-0.416-0.369
		c-0.068-0.081-0.148-0.16-0.063-0.275c0.793,0,1.586,0,2.379,0c0.273,0.114,0.494,0.301,0.695,0.511
		c0.363,0.381,0.813,0.664,1.191,1.027c0.639,0.615,1.34,1.159,1.996,1.757c0.434,0.395,0.881,0.778,1.342,1.145
		c0.359,0.286,0.674,0.627,1.037,0.912c0.646,0.507,1.225,1.093,1.867,1.609c0.406,0.328,0.783,0.699,1.186,1.035
		c0.469,0.393,0.895,0.836,1.381,1.207C48.207,29.547,48.295,29.602,48.324,29.703z"/>
	<path fill-rule="evenodd" clip-rule="evenodd" fill="#54BCA9" d="M19.808,4.941c0.018,0.104,0.1,0.164,0.167,0.231
		c0.504,0.501,1.068,0.933,1.605,1.396c0.433,0.374,0.873,0.74,1.297,1.124c0.479,0.432,0.958,0.869,1.454,1.276
		c0.697,0.573,1.358,1.186,2.055,1.756c0.598,0.488,1.156,1.025,1.74,1.53c0.738,0.637,1.488,1.258,2.223,1.898
		c0.285,0.248,0.527,0.544,0.852,0.75c0.035,0.023,0.047,0.082,0.068,0.124c-0.777,0-1.555,0-2.332,0
		c-0.354-0.113-0.578-0.407-0.854-0.627c-0.441-0.352-0.846-0.748-1.275-1.115c-0.434-0.371-0.87-0.745-1.292-1.13
		c-0.535-0.488-1.107-0.94-1.65-1.423c-0.519-0.461-1.041-0.92-1.568-1.371c-0.718-0.613-1.429-1.233-2.15-1.844
		c-0.455-0.386-0.891-0.796-1.344-1.186c-0.405-0.347-0.828-0.671-1.219-1.034c-0.1-0.092-0.259-0.169-0.156-0.354
		C18.222,4.941,19.015,4.941,19.808,4.941z"/>
	<path fill-rule="evenodd" clip-rule="evenodd" fill="#6ABF8C" d="M43.518,11.22c-0.215-0.323-0.537-0.533-0.818-0.784
		c-0.492-0.439-0.988-0.878-1.51-1.281c-0.445-0.343-0.814-0.767-1.266-1.106c-0.432-0.327-0.801-0.739-1.219-1.089
		c-0.281-0.236-0.561-0.477-0.855-0.7c-0.285-0.216-0.533-0.482-0.789-0.736c-0.076-0.075-0.16-0.133-0.242-0.197
		c-0.141-0.108-0.289-0.209-0.352-0.387c1.359,0,2.719,0,4.078,0c0.439,0.412,0.934,0.755,1.377,1.165
		c0.527,0.488,1.072,0.961,1.643,1.405c0.41,0.32,0.777,0.699,1.152,1.065c0.174,0.17,0.389,0.285,0.561,0.456
		c0.063,0.062,0.152,0.099,0.121,0.211c-0.434,0.465-0.867,0.931-1.305,1.394C43.906,10.835,43.709,11.026,43.518,11.22z"/>
	<path fill-rule="evenodd" clip-rule="evenodd" fill="#4ABBB0" d="M17.428,4.941c0.16,0.292,0.442,0.463,0.686,0.667
		c0.648,0.544,1.299,1.085,1.921,1.661c0.23,0.213,0.475,0.412,0.712,0.618c0.887,0.772,1.772,1.545,2.66,2.316
		c0.596,0.518,1.175,1.058,1.797,1.542c0.497,0.388,0.933,0.84,1.427,1.23c0.648,0.512,1.246,1.09,1.865,1.641
		c0.148,0.134,0.328,0.237,0.441,0.41c-0.695,0-1.391,0-2.088,0c-0.445-0.249-0.795-0.621-1.188-0.938
		c-0.358-0.289-0.717-0.577-1.044-0.9c-0.613-0.606-1.323-1.099-1.947-1.693c-0.289-0.274-0.604-0.529-0.91-0.788
		c-0.215-0.182-0.422-0.373-0.636-0.556c-0.74-0.636-1.465-1.289-2.204-1.925c-0.562-0.483-1.118-0.975-1.689-1.448
		c-0.613-0.509-1.237-1.009-1.8-1.577c-0.074-0.074-0.17-0.137-0.09-0.261C16.037,4.941,16.732,4.941,17.428,4.941z"/>
	<path fill-rule="evenodd" clip-rule="evenodd" fill="#4ABBB0" d="M35.059,20.288c0.148,0.314,0.457,0.472,0.697,0.692
		c0.541,0.495,1.107,0.963,1.664,1.443c0.701,0.607,1.402,1.213,2.104,1.822c0.68,0.593,1.357,1.192,2.039,1.785
		c0.492,0.43,0.99,0.852,1.484,1.277c0.459,0.396,0.9,0.811,1.373,1.186c0.502,0.395,0.945,0.854,1.439,1.254
		c0.23,0.189,0.514,0.342,0.658,0.627c-0.662,0-1.326,0-1.988,0c-0.309-0.232-0.637-0.438-0.908-0.719
		c-0.432-0.449-0.939-0.813-1.402-1.229c-0.508-0.459-1.02-0.916-1.557-1.342c-0.543-0.43-1.053-0.898-1.568-1.359
		c-0.66-0.591-1.336-1.163-1.998-1.75c-0.668-0.593-1.348-1.178-2.029-1.758c-0.6-0.51-1.199-1.024-1.783-1.552
		c-0.105-0.094-0.27-0.182-0.168-0.376C33.764,20.288,34.41,20.288,35.059,20.288z"/>
	<path fill-rule="evenodd" clip-rule="evenodd" fill="#645CA6" d="M21.509,35.635c0.631,0,1.263,0,1.894,0
		c0.396,0.137,0.669,0.447,0.97,0.709c0.754,0.656,1.521,1.299,2.263,1.967c0.365,0.33,0.727,0.668,1.109,0.969
		c0.641,0.504,1.186,1.111,1.855,1.586c0.4,0.285,0.766,0.641,1.105,1.008c0.117,0.125,0.24,0.24,0.383,0.334
		c0.352,0.232,0.65,0.529,0.973,0.799c0.494,0.414,0.941,0.879,1.453,1.275c0.363,0.281,0.697,0.602,1.029,0.918
		c0.09,0.084,0.184,0.158,0.277,0.234c0.084,0.07,0.182,0.154,0.09,0.285c-0.631,0-1.264,0-1.895,0
		c-0.381-0.168-0.621-0.512-0.939-0.758c-0.893-0.693-1.703-1.482-2.566-2.211c-0.814-0.686-1.588-1.418-2.434-2.068
		c-0.186-0.141-0.348-0.314-0.516-0.477c-0.555-0.543-1.213-0.965-1.75-1.527c-0.267-0.281-0.604-0.482-0.894-0.74
		c-0.396-0.355-0.778-0.729-1.191-1.066c-0.336-0.273-0.656-0.57-0.987-0.852C21.626,35.922,21.455,35.842,21.509,35.635z"/>
	<path fill-rule="evenodd" clip-rule="evenodd" fill="#6DBF87" d="M45.398,9.243c-0.635-0.418-1.152-0.973-1.709-1.48
		c-0.219-0.198-0.441-0.391-0.697-0.542c-0.141-0.083-0.229-0.224-0.348-0.333c-0.322-0.294-0.666-0.563-0.977-0.875
		c-0.244-0.246-0.523-0.465-0.82-0.656c-0.145-0.092-0.277-0.223-0.303-0.416c1.416-0.003,2.83-0.006,4.246-0.008
		c0.889-0.001,1.777-0.004,2.668,0.001c0.375,0.002,0.664,0.165,0.826,0.52c0.162,0.357,0.09,0.684-0.168,0.958
		c-0.875,0.929-1.762,1.849-2.643,2.771C45.453,9.206,45.424,9.223,45.398,9.243z"/>
	<path fill-rule="evenodd" clip-rule="evenodd" fill="#5F7EBE" d="M26.412,30.373c-0.566,0-1.133,0-1.7,0
		c-0.395-0.189-0.671-0.525-0.996-0.801c-0.16-0.135-0.313-0.277-0.482-0.402c-0.301-0.219-0.543-0.504-0.835-0.732
		c-0.483-0.377-0.917-0.814-1.401-1.191c-0.229-0.18-0.438-0.381-0.65-0.58c-0.71-0.658-1.459-1.271-2.19-1.906
		c-0.699-0.608-1.392-1.225-2.092-1.833c-0.639-0.555-1.277-1.111-1.945-1.633c-0.285-0.223-0.519-0.506-0.802-0.734
		c-0.079-0.064-0.153-0.155-0.066-0.272c0.567,0,1.134,0,1.701,0c0.239,0.07,0.381,0.274,0.546,0.431
		c0.662,0.631,1.412,1.156,2.071,1.791c0.551,0.531,1.158,1.004,1.749,1.492c0.361,0.298,0.686,0.638,1.048,0.936
		c0.43,0.354,0.836,0.733,1.265,1.09c0.559,0.463,1.093,0.955,1.637,1.438c0.804,0.711,1.636,1.391,2.432,2.111
		c0.202,0.184,0.444,0.324,0.616,0.543C26.375,30.195,26.459,30.26,26.412,30.373z"/>
	<path fill-rule="evenodd" clip-rule="evenodd" fill="#6458A4" d="M21.509,35.635c0.225,0.299,0.542,0.502,0.816,0.748
		c0.382,0.344,0.797,0.656,1.167,1.014c0.349,0.336,0.73,0.631,1.095,0.945c0.415,0.359,0.803,0.75,1.238,1.082
		c0.535,0.408,0.98,0.912,1.509,1.322c0.756,0.588,1.443,1.258,2.186,1.863c0.463,0.375,0.902,0.779,1.342,1.184
		c0.443,0.41,0.932,0.77,1.385,1.168c0.271,0.238,0.572,0.447,0.771,0.758c-0.535,0-1.068,0-1.602,0
		c-0.145-0.293-0.426-0.457-0.65-0.674c-0.5-0.479-1.076-0.867-1.578-1.348c-0.496-0.473-1.055-0.879-1.559-1.342
		c-1.035-0.949-2.13-1.824-3.175-2.76c-0.715-0.639-1.441-1.266-2.169-1.889c-0.723-0.621-1.415-1.275-2.158-1.871
		c-0.067-0.055-0.108-0.119-0.124-0.201C20.505,35.635,21.007,35.635,21.509,35.635z"/>
	<path fill-rule="evenodd" clip-rule="evenodd" fill="#5ABDA3" d="M48.324,29.703c-0.273-0.063-0.463-0.266-0.648-0.441
		c-0.492-0.463-1.006-0.9-1.52-1.34c-0.543-0.467-1.107-0.912-1.623-1.408c-0.6-0.578-1.256-1.089-1.875-1.642
		c-0.654-0.583-1.322-1.156-1.992-1.725c-0.379-0.322-0.77-0.636-1.135-0.971c-0.658-0.607-1.361-1.161-2.018-1.769
		c-0.033-0.031-0.051-0.08-0.076-0.12c0.686,0.006,1.373-0.062,2.055,0.039c0.381,0.056,0.693,0.254,0.955,0.53
		c1.896,1.987,3.793,3.975,5.688,5.962c0.652,0.686,1.309,1.365,1.955,2.055C48.307,29.104,48.443,29.371,48.324,29.703z"/>
	<path fill-rule="evenodd" clip-rule="evenodd" fill="#6369AF" d="M38.604,45.719c-0.486,0-0.971,0-1.457,0
		c-0.387-0.238-0.73-0.533-1.059-0.838c-1.063-0.98-2.182-1.893-3.277-2.832c-0.502-0.432-0.982-0.887-1.479-1.324
		c-0.494-0.438-1.01-0.854-1.502-1.295c-0.428-0.381-0.867-0.748-1.295-1.125c-0.453-0.402-0.916-0.789-1.383-1.176
		c-0.318-0.262-0.615-0.545-0.926-0.816c-0.15-0.135-0.338-0.221-0.464-0.385c-0.067-0.088-0.17-0.164-0.077-0.293
		c0.469,0,0.94,0,1.409,0c0.504,0.201,0.803,0.666,1.23,0.961c0.568,0.393,1.025,0.908,1.561,1.336
		c0.572,0.457,1.131,0.939,1.672,1.432c0.896,0.814,1.83,1.586,2.732,2.391c0.488,0.434,0.982,0.863,1.479,1.287
		c0.908,0.773,1.783,1.586,2.711,2.338C38.582,45.463,38.709,45.553,38.604,45.719z"/>
	<path fill-rule="evenodd" clip-rule="evenodd" fill="#636EB3" d="M38.604,45.719c-0.143-0.307-0.436-0.463-0.68-0.668
		C37.27,44.504,36.646,43.92,36,43.365c-0.41-0.35-0.789-0.734-1.221-1.061c-0.346-0.262-0.67-0.551-0.994-0.84
		c-0.646-0.572-1.316-1.119-1.955-1.693c-0.467-0.422-0.955-0.814-1.422-1.236c-0.598-0.539-1.186-1.092-1.814-1.59
		c-0.492-0.389-0.912-0.865-1.443-1.207c-0.029-0.02-0.039-0.068-0.057-0.104c0.486,0,0.973,0,1.457,0
		c0.285,0.072,0.449,0.313,0.658,0.486c0.576,0.477,1.121,0.992,1.697,1.467c0.506,0.414,0.959,0.889,1.49,1.275
		c0.42,0.307,0.771,0.705,1.178,1.035c0.615,0.496,1.164,1.072,1.795,1.549c0.375,0.283,0.67,0.648,1.037,0.939
		c0.58,0.461,1.148,0.941,1.709,1.426c0.348,0.299,0.676,0.621,1.008,0.938c0.209,0.203,0.471,0.34,0.664,0.563
		c0.057,0.068,0.137,0.115,0.125,0.221C39.502,45.781,39.051,45.73,38.604,45.719z"/>
	<path fill-rule="evenodd" clip-rule="evenodd" fill="#636AB0" d="M21.022,30.373c-0.469,0-0.938,0-1.408,0
		c-0.38-0.234-0.678-0.566-1.023-0.844c-0.61-0.488-1.175-1.033-1.781-1.527c-0.413-0.336-0.794-0.709-1.194-1.061
		c-0.375-0.33-0.767-0.641-1.144-0.969c-0.266-0.232-0.528-0.47-0.794-0.702c-0.676-0.587-1.366-1.158-2.032-1.756
		c-0.678-0.609-1.382-1.188-2.064-1.791c-0.429-0.378-0.874-0.739-1.29-1.131c-0.084-0.079-0.197-0.158-0.139-0.306
		c0.47,0,0.938,0,1.408,0c0.35,0.244,0.681,0.512,1.016,0.777c0.542,0.43,0.971,0.988,1.572,1.354
		c0.209,0.127,0.365,0.335,0.551,0.502c0.577,0.517,1.167,1.018,1.754,1.523c0.683,0.589,1.341,1.208,2.05,1.765
		c0.466,0.365,0.864,0.797,1.309,1.182c0.36,0.311,0.746,0.588,1.11,0.895c0.106,0.088,0.197,0.189,0.291,0.287
		c0.316,0.334,0.72,0.568,1.019,0.924c0.165,0.197,0.43,0.285,0.616,0.465C20.961,30.072,21.103,30.178,21.022,30.373z"/>
	<path fill-rule="evenodd" clip-rule="evenodd" fill="#5F7DBE" d="M41.719,43.797c-0.215,0.252-0.434,0.5-0.682,0.719
		c-0.111,0.047-0.203,0.012-0.289-0.063c-0.361-0.297-0.705-0.613-1.059-0.918c-0.396-0.342-0.756-0.725-1.209-1.004
		c-0.182-0.111-0.346-0.271-0.479-0.434c-0.424-0.512-0.994-0.85-1.463-1.305c-0.26-0.25-0.545-0.475-0.814-0.713
		c-0.381-0.334-0.77-0.662-1.146-1.002c-0.668-0.605-1.395-1.143-2.037-1.777c-0.211-0.207-0.477-0.363-0.691-0.566
		c-0.316-0.297-0.656-0.568-0.973-0.865c-0.063-0.061-0.119-0.139-0.043-0.234c0.533,0,1.068,0,1.602,0
		c0.369,0.141,0.598,0.463,0.879,0.709c0.59,0.514,1.199,1.004,1.771,1.537c0.428,0.396,0.891,0.748,1.322,1.141
		c0.34,0.307,0.703,0.594,1.041,0.904c0.992,0.914,2.072,1.727,3.049,2.658c0.35,0.332,0.758,0.602,1.102,0.943
		C41.68,43.607,41.74,43.68,41.719,43.797z"/>
	<path fill-rule="evenodd" clip-rule="evenodd" fill="#636EB3" d="M21.022,30.373c-0.123-0.26-0.332-0.43-0.573-0.572
		c-0.09-0.053-0.188-0.107-0.252-0.186c-0.361-0.436-0.848-0.734-1.233-1.146c-0.287-0.309-0.664-0.531-0.99-0.803
		c-0.347-0.289-0.685-0.588-0.989-0.926c-0.127-0.139-0.302-0.236-0.453-0.355c-0.46-0.367-0.871-0.792-1.331-1.155
		c-0.699-0.554-1.333-1.182-2.037-1.73c-0.335-0.261-0.621-0.584-0.941-0.865c-0.242-0.212-0.501-0.406-0.759-0.599
		c-0.183-0.137-0.325-0.307-0.477-0.474c-0.176-0.195-0.419-0.327-0.604-0.514c-0.233-0.237-0.569-0.346-0.756-0.633
		c-0.026-0.04-0.044-0.084-0.065-0.127c0.438,0,0.875,0,1.313,0c0.245,0.048,0.389,0.246,0.565,0.392
		c0.702,0.581,1.351,1.226,2.06,1.794c0.681,0.546,1.291,1.169,1.964,1.718c0.561,0.458,1.076,0.97,1.647,1.412
		c0.473,0.365,0.9,0.781,1.355,1.166c0.354,0.297,0.705,0.609,1.05,0.922c0.356,0.322,0.7,0.668,1.108,0.93
		c0.2,0.127,0.333,0.324,0.509,0.477c0.377,0.328,0.782,0.625,1.129,0.986c0.076,0.078,0.177,0.152,0.121,0.289
		C21.929,30.373,21.475,30.373,21.022,30.373z"/>
	<path fill-rule="evenodd" clip-rule="evenodd" fill="#63BE95" d="M32.873,4.941c0.244,0.307,0.539,0.569,0.832,0.825
		c0.158,0.136,0.424,0.133,0.561,0.315c0.158,0.214,0.342,0.409,0.549,0.563c0.402,0.301,0.678,0.734,1.139,0.982
		c0.275,0.149,0.438,0.495,0.707,0.67c0.271,0.177,0.438,0.484,0.768,0.581c0.219,0.063,0.387,0.244,0.49,0.411
		c0.15,0.242,0.371,0.407,0.572,0.56c0.324,0.246,0.514,0.683,0.984,0.734c0.102,0.011,0.088,0.152,0.158,0.201
		c0.408,0.288,0.658,0.738,1.096,1.011c0.318,0.199,0.545,0.538,0.859,0.769c0.121,0.09,0.238,0.192,0.365,0.277
		c-0.229,0.258-0.436,0.537-0.723,0.739c-0.227-0.003-0.385-0.164-0.527-0.295c-0.402-0.372-0.82-0.727-1.236-1.082
		c-0.213-0.181-0.41-0.386-0.654-0.531c-0.217-0.129-0.389-0.316-0.539-0.516c-0.217-0.287-0.545-0.45-0.773-0.721
		c-0.027-0.031-0.063-0.057-0.1-0.068c-0.395-0.107-0.607-0.434-0.869-0.706c-0.279-0.289-0.566-0.576-0.936-0.752
		c-0.15-0.072-0.203-0.226-0.318-0.327c-0.348-0.307-0.654-0.655-1.041-0.928c-0.213-0.15-0.398-0.383-0.604-0.538
		c-0.336-0.254-0.625-0.557-0.945-0.823c-0.418-0.347-0.881-0.643-1.238-1.06c-0.072-0.083-0.174-0.162-0.082-0.292
		C31.869,4.941,32.371,4.941,32.873,4.941z"/>
	<path fill-rule="evenodd" clip-rule="evenodd" fill="#5B84C3" d="M26.412,30.373c-0.439-0.51-1.013-0.871-1.49-1.34
		c-0.414-0.408-0.893-0.74-1.319-1.137c-0.584-0.543-1.206-1.047-1.81-1.568c-0.474-0.41-0.947-0.82-1.417-1.233
		c-0.587-0.517-1.149-1.065-1.762-1.549c-0.635-0.5-1.194-1.083-1.821-1.588c-0.472-0.38-0.924-0.78-1.383-1.174
		c-0.174-0.149-0.331-0.306-0.456-0.497c0.388,0,0.776,0,1.164,0c0.411,0.207,0.746,0.508,1.066,0.83
		c0.468,0.471,1.013,0.852,1.508,1.292c0.326,0.289,0.64,0.592,0.978,0.869c0.68,0.557,1.329,1.151,1.988,1.732
		c0.581,0.511,1.189,0.991,1.766,1.505c0.664,0.588,1.327,1.178,1.998,1.758c0.518,0.447,1.006,0.93,1.573,1.322
		c0.213,0.146,0.359,0.369,0.553,0.541c0.066,0.059,0.107,0.146,0.033,0.236C27.191,30.373,26.801,30.373,26.412,30.373z"/>
	<path fill-rule="evenodd" clip-rule="evenodd" fill="#63BE95" d="M31.367,4.941c0.014,0.086,0.078,0.137,0.135,0.195
		c0.479,0.488,1.041,0.88,1.553,1.328c0.217,0.188,0.443,0.372,0.65,0.558c0.166,0.146,0.35,0.309,0.512,0.471
		c0.197,0.195,0.443,0.343,0.645,0.547c0.225,0.228,0.479,0.422,0.668,0.688c0.113,0.158,0.336,0.192,0.498,0.318
		c0.369,0.287,0.652,0.646,0.979,0.968c0.105,0.104,0.213,0.195,0.365,0.221c0.107,0.018,0.193,0.079,0.252,0.173
		c0.043,0.07,0.098,0.132,0.172,0.167c0.303,0.145,0.465,0.435,0.688,0.661c0.09,0.093,0.178,0.186,0.281,0.264
		c0.59,0.441,1.152,0.914,1.686,1.422c0.246,0.237,0.559,0.393,0.781,0.657c-0.205,0.229-0.41,0.458-0.615,0.687
		c-0.324-0.289-0.656-0.572-0.963-0.873c-0.305-0.299-0.652-0.541-0.957-0.838c-0.391-0.378-0.779-0.772-1.234-1.083
		c-0.301-0.205-0.57-0.449-0.826-0.706c-0.156-0.156-0.348-0.256-0.508-0.407c-0.338-0.319-0.697-0.618-1.043-0.928
		c-0.813-0.732-1.641-1.449-2.479-2.147c-0.588-0.487-1.145-1.009-1.723-1.505c-0.334-0.287-0.742-0.486-1.02-0.839
		C30.365,4.941,30.865,4.941,31.367,4.941z"/>
	<path fill-rule="evenodd" clip-rule="evenodd" fill="#5CBDA0" d="M24.763,4.941c0.055,0.125,0.167,0.2,0.267,0.275
		c0.418,0.315,0.78,0.689,1.158,1.049c0.33,0.316,0.711,0.579,1.074,0.86c0.063,0.049,0.129,0.091,0.188,0.147
		c0.91,0.867,1.881,1.665,2.844,2.472c0.258,0.217,0.49,0.464,0.744,0.688c0.324,0.286,0.646,0.573,0.986,0.841
		c0.584,0.466,1.115,0.997,1.695,1.469c0.393,0.319,0.77,0.659,1.15,0.991c0.445,0.391,0.9,0.776,1.314,1.204
		c0.021,0.022,0.027,0.058,0.041,0.087c-0.455,0-0.908,0-1.361,0c-0.25-0.192-0.469-0.413-0.688-0.641
		c-0.184-0.193-0.375-0.392-0.621-0.52c-0.227-0.118-0.416-0.277-0.494-0.534c-0.043-0.115-0.143-0.145-0.25-0.16
		c-0.102-0.044-0.18-0.113-0.221-0.217c-0.018-0.128-0.064-0.224-0.217-0.219c-0.021-0.003-0.043-0.011-0.063-0.022
		c-0.076-0.083-0.16-0.155-0.266-0.197c-0.037-0.028-0.064-0.063-0.086-0.103c-0.027-0.069-0.078-0.11-0.152-0.121
		c-0.174-0.052-0.262-0.192-0.348-0.335c-0.029-0.158-0.141-0.203-0.283-0.206c-0.121-0.047-0.18-0.151-0.236-0.256
		c-0.068-0.17-0.162-0.31-0.367-0.326c-0.033-0.011-0.061-0.029-0.086-0.054c-0.059-0.122-0.162-0.19-0.287-0.233
		c-0.156-0.157-0.389-0.222-0.506-0.424c-0.021-0.051-0.014-0.118-0.068-0.151c-0.33-0.206-0.521-0.574-0.883-0.745
		c-0.037-0.029-0.064-0.064-0.086-0.106C28.572,9.23,28.35,9.186,28.17,9.088c-0.029-0.018-0.053-0.042-0.072-0.069
		c-0.041-0.09-0.117-0.121-0.209-0.132c-0.078-0.028-0.139-0.08-0.191-0.144c-0.049-0.094-0.133-0.142-0.227-0.178
		c-0.096-0.068-0.205-0.122-0.254-0.241c-0.072-0.18-0.23-0.279-0.373-0.394c-0.146-0.151-0.346-0.249-0.457-0.438
		c-0.053-0.099-0.119-0.175-0.248-0.133c-0.09-0.014-0.153-0.063-0.185-0.15c-0.015-0.076-0.016-0.156-0.102-0.199
		c-0.169-0.083-0.312-0.209-0.478-0.298c-0.174-0.087-0.333-0.188-0.42-0.377c-0.033-0.071-0.095-0.145-0.164-0.171
		c-0.231-0.086-0.349-0.296-0.524-0.442c-0.038-0.132-0.138-0.181-0.261-0.202c-0.034-0.01-0.064-0.026-0.092-0.047
		c-0.112-0.118-0.104-0.34-0.321-0.366c-0.043-0.058-0.044-0.113,0.005-0.167C23.985,4.941,24.374,4.941,24.763,4.941z"/>
	<path fill-rule="evenodd" clip-rule="evenodd" fill="#6178BA" d="M13.252,20.288c0.051,0.192,0.24,0.252,0.36,0.378
		c0.708,0.744,1.576,1.301,2.318,2.009c0.599,0.571,1.238,1.104,1.875,1.632c0.725,0.602,1.414,1.245,2.142,1.844
		c0.51,0.418,0.976,0.891,1.484,1.316c0.42,0.35,0.85,0.691,1.247,1.064c0.358,0.338,0.766,0.613,1.113,0.961
		c0.222,0.223,0.463,0.426,0.706,0.627c0.09,0.074,0.167,0.15,0.216,0.254c-0.388,0-0.777,0-1.166,0
		c-0.304-0.111-0.536-0.334-0.765-0.545c-0.361-0.334-0.721-0.674-1.103-0.979c-0.523-0.42-0.975-0.916-1.521-1.311
		c-0.237-0.172-0.45-0.389-0.669-0.59c-0.314-0.287-0.624-0.582-0.955-0.854c-0.667-0.546-1.333-1.097-1.965-1.686
		c-0.26-0.242-0.539-0.463-0.802-0.702c-0.4-0.363-0.852-0.671-1.237-1.042c-0.768-0.74-1.62-1.382-2.4-2.105
		c-0.079-0.073-0.152-0.152-0.09-0.273C12.443,20.288,12.848,20.288,13.252,20.288z"/>
	<path fill-rule="evenodd" clip-rule="evenodd" fill="#5CBDA0" d="M31.561,11.877c0.047,0.158,0.137,0.277,0.293,0.34
		c0.096,0.007,0.158,0.058,0.193,0.146c0.016,0.033,0.033,0.065,0.049,0.098c0.084,0.061,0.143,0.152,0.242,0.194
		c0.018,0,0.033,0,0.049,0c0.105,0.071,0.221,0.131,0.291,0.243c0.014,0.116,0.109,0.151,0.195,0.194
		c0.078,0.086,0.189,0.104,0.291,0.146c0.025,0.23,0.166,0.374,0.357,0.481c0.371,0.207,0.682,0.483,0.939,0.823
		c0.074,0.101,0.191,0.17,0.287,0.256c0.068,0.061,0.119,0.131,0.115,0.229c-0.355,0-0.713,0-1.068,0
		c-0.209-0.255-0.445-0.485-0.697-0.695c-0.633-0.526-1.273-1.039-1.852-1.631c-0.215-0.22-0.5-0.395-0.738-0.603
		c-0.248-0.214-0.533-0.389-0.727-0.66c-0.141-0.195-0.357-0.297-0.533-0.447c-0.23-0.198-0.43-0.429-0.676-0.613
		c-0.256-0.19-0.504-0.391-0.768-0.569c-0.092-0.061-0.115-0.165-0.199-0.236c-0.51-0.431-1.02-0.863-1.523-1.299
		c-0.375-0.322-0.733-0.678-1.116-0.99c-0.412-0.335-0.775-0.728-1.22-1.028c-0.187-0.125-0.337-0.313-0.511-0.466
		c-0.247-0.217-0.471-0.457-0.749-0.639c-0.072-0.048-0.137-0.116-0.152-0.211c0.421,0,0.842,0,1.263,0
		c0,0.051,0.009,0.1,0.048,0.137c0.143,0.074,0.165,0.252,0.292,0.34c0.033,0,0.064,0,0.097,0c0.133,0.038,0.212,0.14,0.292,0.243
		c0.243,0.28,0.647,0.388,0.805,0.761c0.056,0.131,0.229,0.109,0.312,0.21c0.048,0.147,0.16,0.229,0.285,0.307
		c0.105,0.066,0.249,0.086,0.298,0.227c0.014,0.083,0.08,0.114,0.146,0.146c0.133-0.08,0.168,0.141,0.291,0.097
		c0.096,0.194,0.309,0.273,0.436,0.438c0.154,0.124,0.225,0.322,0.389,0.437c0.059,0.093,0.16,0.132,0.244,0.194
		c0.088,0.054,0.152,0.14,0.242,0.194c0.049,0.049,0.096,0.097,0.145,0.146c0.074,0.062,0.17,0.085,0.244,0.146
		c0.016,0.016,0.033,0.033,0.049,0.049c0.172,0.138,0.361,0.25,0.533,0.389c0.018,0.032,0.033,0.064,0.049,0.097
		c0.293,0.216,0.463,0.574,0.82,0.714c0.094,0.037,0.102,0.138,0.152,0.208c0.137,0.16,0.371,0.2,0.484,0.389
		c0.145,0.023,0.195,0.161,0.291,0.243c0.016,0.016,0.033,0.032,0.049,0.049c0.195,0.05,0.297,0.219,0.438,0.34
		c0.063,0.082,0.086,0.197,0.193,0.243C31.342,11.736,31.459,11.792,31.561,11.877z"/>
	<path fill-rule="evenodd" clip-rule="evenodd" fill="#6374B7" d="M12.039,20.288c0.078,0.214,0.295,0.292,0.444,0.433
		c0.405,0.378,0.852,0.71,1.268,1.078c0.24,0.213,0.489,0.417,0.704,0.661c0.142,0.161,0.327,0.286,0.499,0.418
		c0.723,0.555,1.375,1.19,2.064,1.785c0.621,0.538,1.259,1.055,1.875,1.598c0.274,0.24,0.562,0.475,0.812,0.752
		c0.149,0.164,0.333,0.326,0.525,0.453c0.318,0.213,0.603,0.463,0.863,0.736c0.242,0.252,0.542,0.432,0.792,0.674
		c0.388,0.373,0.807,0.715,1.205,1.076c0.153,0.141,0.368,0.215,0.457,0.422c-0.388,0-0.777,0-1.165,0
		c-0.417-0.486-0.975-0.82-1.415-1.275c-0.367-0.379-0.815-0.654-1.181-1.029c-0.329-0.338-0.715-0.621-1.074-0.928
		c-0.322-0.277-0.641-0.557-0.963-0.834c-0.488-0.42-0.982-0.835-1.468-1.259c-0.453-0.395-0.881-0.819-1.351-1.191
		c-0.499-0.396-0.907-0.891-1.447-1.244c-0.346-0.226-0.634-0.543-0.937-0.831c-0.393-0.373-0.821-0.704-1.228-1.061
		c-0.155-0.137-0.297-0.289-0.445-0.433C11.262,20.288,11.65,20.288,12.039,20.288z"/>
	<path fill-rule="evenodd" clip-rule="evenodd" fill="#3FBAB8" d="M13.106,4.941c0.389,0,0.778,0,1.167,0
		c0.294,0.171,0.542,0.404,0.805,0.617c0.671,0.542,1.285,1.149,1.949,1.7c0.501,0.416,1.014,0.824,1.477,1.289
		c0.301,0.302,0.639,0.567,0.979,0.827c0.2,0.152,0.376,0.328,0.552,0.506c0.307,0.312,0.67,0.556,0.998,0.843
		c0.467,0.409,0.938,0.813,1.399,1.229c0.527,0.476,1.084,0.915,1.612,1.388c0.539,0.484,1.106,0.936,1.631,1.435
		c0.07,0.067,0.14,0.144,0.06,0.251c-0.388,0-0.776,0-1.165,0c-0.296-0.125-0.512-0.36-0.746-0.566
		c-0.664-0.585-1.329-1.17-2.005-1.742c-0.628-0.531-1.22-1.105-1.857-1.625c-0.907-0.739-1.758-1.542-2.648-2.3
		c-0.656-0.559-1.339-1.086-1.962-1.686c-0.65-0.625-1.351-1.196-2.023-1.796C13.222,5.22,13.008,5.163,13.106,4.941z"/>
	<path fill-rule="evenodd" clip-rule="evenodd" fill="#3FBAB8" d="M43.459,30.373c-0.387,0-0.775,0-1.164,0
		c-0.467-0.246-0.838-0.617-1.225-0.967c-0.248-0.229-0.51-0.447-0.771-0.66c-0.367-0.297-0.711-0.625-1.064-0.939
		c-0.133-0.117-0.262-0.24-0.4-0.352c-0.449-0.365-0.891-0.74-1.32-1.131c-0.369-0.336-0.762-0.645-1.133-0.981
		c-0.447-0.406-0.912-0.794-1.367-1.193c-0.334-0.292-0.66-0.593-1.014-0.864c-0.215-0.167-0.418-0.352-0.613-0.537
		c-0.701-0.659-1.469-1.236-2.182-1.881c-0.113-0.103-0.227-0.208-0.326-0.324c-0.064-0.074-0.127-0.154-0.045-0.257
		c0.371,0,0.744,0,1.117,0c0.531,0.314,0.955,0.766,1.43,1.152c0.551,0.448,1.051,0.954,1.623,1.38
		c0.215,0.162,0.414,0.36,0.604,0.556c0.277,0.287,0.611,0.502,0.902,0.77c0.332,0.306,0.662,0.614,1.014,0.898
		c0.602,0.487,1.174,1.01,1.754,1.522c0.533,0.469,1.068,0.932,1.605,1.396c0.787,0.68,1.561,1.377,2.359,2.045
		C43.354,30.102,43.512,30.178,43.459,30.373z"/>
	<path fill-rule="evenodd" clip-rule="evenodd" fill="#6373B7" d="M39.912,45.533c-0.412-0.297-0.799-0.627-1.162-0.979
		c-0.539-0.518-1.111-0.99-1.688-1.467c-0.377-0.311-0.762-0.613-1.119-0.945c-0.281-0.262-0.553-0.535-0.852-0.775
		c-0.727-0.586-1.371-1.27-2.127-1.82c-0.166-0.119-0.285-0.299-0.449-0.432c-0.492-0.4-0.949-0.846-1.443-1.242
		c-0.383-0.307-0.752-0.633-1.111-0.959c-0.471-0.426-1.008-0.779-1.41-1.279c0.404,0,0.809,0,1.215,0
		c0.404,0.256,0.723,0.617,1.088,0.92c0.545,0.455,1.086,0.916,1.621,1.383c0.32,0.279,0.637,0.566,0.947,0.859
		c0.146,0.137,0.314,0.25,0.469,0.379c0.76,0.637,1.492,1.305,2.244,1.949c0.58,0.498,1.176,0.982,1.74,1.502
		c0.502,0.465,1.029,0.906,1.547,1.355c0.303,0.262,0.633,0.496,0.906,0.795c0.084,0.092,0.154,0.186,0.156,0.316
		C40.334,45.291,40.148,45.445,39.912,45.533z"/>
	<path fill-rule="evenodd" clip-rule="evenodd" fill="#43BAB5" d="M25.733,15.026c-0.132-0.238-0.356-0.396-0.558-0.555
		c-0.321-0.255-0.609-0.547-0.937-0.796c-0.264-0.2-0.501-0.45-0.756-0.671c-0.931-0.809-1.865-1.613-2.797-2.419
		c-0.633-0.548-1.265-1.099-1.899-1.646c-0.756-0.652-1.496-1.322-2.271-1.953c-0.498-0.406-0.952-0.866-1.443-1.283
		c-0.154-0.13-0.303-0.266-0.466-0.385c-0.139-0.102-0.259-0.219-0.333-0.377c0.356,0,0.712,0,1.067,0
		c0.057,0.165,0.215,0.237,0.333,0.34c1.006,0.882,2.013,1.763,3.036,2.625c0.63,0.531,1.209,1.119,1.854,1.629
		c0.322,0.255,0.625,0.533,0.942,0.793c0.321,0.262,0.605,0.568,0.925,0.832c0.502,0.415,0.973,0.865,1.496,1.257
		c0.319,0.239,0.598,0.532,0.892,0.805c0.466,0.433,0.964,0.828,1.451,1.237c0.205,0.173,0.439,0.327,0.58,0.568
		C26.479,15.026,26.105,15.026,25.733,15.026z"/>
	<path fill-rule="evenodd" clip-rule="evenodd" fill="#6361AA" d="M17.331,30.373c-0.357-0.311-0.714-0.621-1.07-0.932
		c-0.255-0.225-0.504-0.451-0.762-0.672c-0.697-0.6-1.369-1.229-2.075-1.814c-0.658-0.547-1.29-1.123-1.954-1.663
		c-0.697-0.568-1.339-1.202-2.035-1.774c-0.824-0.678-1.625-1.386-2.422-2.095c-0.359-0.318-0.75-0.599-1.075-0.956
		c-0.049-0.054-0.104-0.103-0.117-0.179c0.373,0,0.745,0,1.117,0c0.362,0.253,0.71,0.518,1.019,0.842
		c0.226,0.237,0.472,0.459,0.736,0.661c0.538,0.41,1.027,0.877,1.525,1.335c0.368,0.338,0.769,0.639,1.154,0.957
		c0.275,0.226,0.505,0.5,0.789,0.715c0.428,0.325,0.799,0.716,1.239,1.032c0.257,0.182,0.468,0.438,0.715,0.645
		c0.264,0.223,0.507,0.475,0.792,0.672c0.315,0.219,0.538,0.533,0.834,0.771c0.691,0.553,1.301,1.201,2.018,1.725
		c0.184,0.133,0.33,0.309,0.504,0.453c0.079,0.064,0.144,0.158,0.086,0.277C18.011,30.373,17.671,30.373,17.331,30.373z"/>
	<path fill-rule="evenodd" clip-rule="evenodd" fill="#6361AA" d="M34.912,45.719c-0.096-0.252-0.357-0.334-0.529-0.512
		c-0.473-0.486-1.031-0.877-1.527-1.338c-0.361-0.332-0.754-0.631-1.094-0.986c-0.088-0.092-0.197-0.166-0.301-0.24
		c-0.504-0.365-0.955-0.793-1.398-1.223c-0.5-0.484-1.094-0.846-1.576-1.352c-0.346-0.359-0.768-0.648-1.148-0.979
		c-0.461-0.402-0.914-0.814-1.374-1.217c-0.655-0.572-1.315-1.137-1.97-1.709c-0.199-0.174-0.426-0.316-0.591-0.529
		c0.356,0,0.713,0,1.068,0c0.231,0.066,0.411,0.207,0.583,0.373c0.424,0.41,0.9,0.758,1.34,1.148
		c0.914,0.807,1.824,1.613,2.746,2.408c0.555,0.479,1.104,0.961,1.662,1.436c0.855,0.732,1.693,1.484,2.555,2.211
		c0.641,0.541,1.25,1.119,1.896,1.652c0.213,0.176,0.428,0.346,0.621,0.541c0.086,0.086,0.178,0.176,0.105,0.314
		C35.625,45.719,35.268,45.719,34.912,45.719z"/>
	<path fill-rule="evenodd" clip-rule="evenodd" fill="#42B2BC" d="M28.842,20.288c0.34,0,0.68,0,1.021,0
		c0.203,0.056,0.357,0.194,0.5,0.332c0.664,0.637,1.414,1.174,2.088,1.801c0.764,0.709,1.592,1.343,2.361,2.043
		c0.525,0.479,1.057,0.952,1.6,1.409c0.559,0.471,1.088,0.981,1.684,1.409c0.125,0.09,0.24,0.197,0.338,0.311
		c0.385,0.443,0.883,0.756,1.297,1.16c0.469,0.457,1.008,0.832,1.469,1.299c0.086,0.086,0.219,0.162,0.125,0.322
		c-0.324,0-0.648,0-0.973,0c-0.365-0.104-0.602-0.398-0.863-0.633c-0.301-0.268-0.604-0.537-0.914-0.791
		c-0.375-0.307-0.711-0.656-1.086-0.961c-0.748-0.613-1.463-1.264-2.211-1.875c-0.461-0.377-0.887-0.796-1.334-1.189
		c-0.662-0.579-1.324-1.156-1.99-1.728c-0.824-0.707-1.637-1.427-2.467-2.127c-0.184-0.155-0.357-0.322-0.545-0.476
		C28.854,20.52,28.748,20.431,28.842,20.288z"/>
	<path fill-rule="evenodd" clip-rule="evenodd" fill="#6178BA" d="M40.484,45.094c-0.918-0.914-1.947-1.705-2.898-2.582
		c-0.629-0.578-1.322-1.082-1.955-1.656c-0.475-0.434-0.986-0.824-1.438-1.285c-0.217-0.223-0.49-0.391-0.73-0.594
		c-0.25-0.211-0.492-0.432-0.734-0.654c-0.768-0.703-1.58-1.352-2.359-2.039c-0.221-0.195-0.48-0.361-0.604-0.648
		c0.355,0,0.711,0,1.068,0c0.184,0.27,0.475,0.428,0.695,0.654c0.369,0.379,0.82,0.66,1.188,1.037
		c0.225,0.23,0.479,0.432,0.721,0.645c0.441,0.383,0.91,0.732,1.338,1.131c0.316,0.295,0.662,0.563,0.98,0.85
		c0.379,0.346,0.754,0.697,1.156,1.01c0.498,0.387,0.922,0.848,1.404,1.246c0.48,0.396,0.965,0.787,1.42,1.211
		c0.354,0.326,0.713,0.643,1.08,0.951c0.066,0.057,0.146,0.098,0.221,0.146C40.859,44.715,40.689,44.922,40.484,45.094z"/>
	<path fill-rule="evenodd" clip-rule="evenodd" fill="#43AEBE" d="M28.842,20.288c0.014,0.086,0.072,0.144,0.133,0.196
		c0.469,0.405,0.943,0.801,1.402,1.216c0.449,0.408,0.92,0.792,1.375,1.193c0.479,0.423,0.965,0.845,1.461,1.251
		c0.365,0.301,0.725,0.614,1.08,0.93c0.551,0.492,1.094,0.993,1.668,1.462c0.377,0.309,0.742,0.641,1.115,0.959
		c0.5,0.428,0.98,0.881,1.488,1.301c0.338,0.279,0.68,0.563,0.998,0.871c0.252,0.244,0.545,0.447,0.789,0.705
		c-0.342,0-0.682,0-1.02,0c-0.369-0.15-0.621-0.457-0.92-0.697c-0.617-0.492-1.205-1.023-1.795-1.549
		c-0.52-0.459-1.047-0.908-1.568-1.365c-0.523-0.455-1.045-0.915-1.572-1.365c-0.436-0.373-0.863-0.751-1.301-1.124
		c-0.602-0.513-1.178-1.053-1.787-1.558c-0.553-0.457-1.084-0.942-1.627-1.412c-0.236-0.205-0.459-0.428-0.713-0.616
		c-0.121-0.088-0.301-0.185-0.227-0.4C28.162,20.288,28.502,20.288,28.842,20.288z"/>
	<path fill-rule="evenodd" clip-rule="evenodd" fill="#45AABF" d="M9.748,5.448c0.162-0.179,0.351-0.315,0.589-0.374
		c0.075,0.029,0.155,0.041,0.219,0.099c0.535,0.492,1.121,0.926,1.64,1.436c0.386,0.38,0.86,0.661,1.24,1.044
		c0.535,0.541,1.168,0.964,1.704,1.502c0.198,0.199,0.427,0.369,0.643,0.551c0.819,0.693,1.634,1.391,2.435,2.104
		c0.487,0.435,0.983,0.86,1.478,1.286c0.592,0.51,1.165,1.044,1.771,1.54c0.112,0.092,0.293,0.179,0.188,0.389
		c-0.323,0-0.647,0-0.971,0c-0.484-0.268-0.891-0.636-1.293-1.01c-0.46-0.428-0.956-0.814-1.427-1.229
		c-0.351-0.309-0.71-0.607-1.061-0.916c-0.708-0.625-1.414-1.251-2.128-1.868c-0.475-0.41-0.94-0.834-1.42-1.239
		c-0.351-0.295-0.701-0.595-1.05-0.891c-0.472-0.4-0.934-0.816-1.4-1.227c-0.339-0.298-0.664-0.612-1.021-0.89
		C9.785,5.681,9.701,5.591,9.748,5.448z"/>
	<path fill-rule="evenodd" clip-rule="evenodd" fill="#42B2BC" d="M23.645,15.026c-0.34,0-0.68,0-1.019,0
		c-0.555-0.439-1.12-0.865-1.644-1.346c-0.32-0.294-0.665-0.563-0.99-0.854c-0.751-0.67-1.523-1.318-2.275-1.989
		c-0.571-0.51-1.156-1.004-1.744-1.495c-0.269-0.226-0.548-0.445-0.784-0.716c-0.203-0.232-0.472-0.41-0.717-0.604
		C14.024,7.664,13.601,7.28,13.173,6.9c-0.608-0.542-1.253-1.041-1.832-1.615c-0.09-0.09-0.23-0.176-0.129-0.344
		c0.308,0,0.615,0,0.923,0c0.406,0.238,0.751,0.552,1.098,0.867c0.377,0.341,0.773,0.661,1.153,1
		c0.433,0.387,0.881,0.755,1.312,1.145c0.532,0.481,1.085,0.938,1.631,1.404c0.726,0.617,1.439,1.249,2.162,1.87
		c0.661,0.567,1.32,1.138,1.972,1.714c0.701,0.621,1.43,1.208,2.111,1.852C23.64,14.855,23.696,14.926,23.645,15.026z"/>
	<path fill-rule="evenodd" clip-rule="evenodd" fill="#3EB6BA" d="M23.645,15.026c-0.085-0.176-0.267-0.254-0.402-0.375
		c-0.884-0.789-1.793-1.55-2.675-2.341c-0.69-0.619-1.402-1.211-2.096-1.826c-0.537-0.475-1.079-0.946-1.638-1.396
		c-0.474-0.382-0.912-0.811-1.368-1.215c-0.41-0.363-0.83-0.717-1.249-1.071c-0.517-0.438-1.018-0.894-1.529-1.338
		c-0.191-0.167-0.446-0.266-0.552-0.522c0.324,0,0.647,0,0.971,0c0.038,0.15,0.185,0.195,0.282,0.287
		c0.252,0.237,0.503,0.479,0.779,0.686c0.433,0.323,0.817,0.702,1.207,1.069c0.388,0.366,0.805,0.696,1.202,1.05
		c0.427,0.38,0.876,0.734,1.309,1.107c0.36,0.312,0.7,0.647,1.066,0.951c1.06,0.882,2.085,1.805,3.123,2.712
		c0.702,0.614,1.419,1.21,2.117,1.828c0.134,0.119,0.316,0.202,0.377,0.395C24.26,15.026,23.953,15.026,23.645,15.026z"/>
	<path fill-rule="evenodd" clip-rule="evenodd" fill="#43AFBD" d="M11.212,4.941c0.135,0.278,0.389,0.45,0.606,0.647
		c0.512,0.465,1.048,0.903,1.573,1.354c0.378,0.326,0.752,0.656,1.135,0.976c0.322,0.27,0.646,0.542,0.952,0.836
		c0.498,0.479,1.05,0.901,1.575,1.352c0.482,0.415,0.964,0.829,1.435,1.256c0.423,0.385,0.88,0.73,1.293,1.123
		c0.462,0.438,0.965,0.828,1.423,1.27c0.374,0.361,0.807,0.661,1.219,0.98c0.102,0.079,0.175,0.166,0.201,0.291
		c-0.324,0-0.648,0-0.972,0c-0.097-0.262-0.355-0.367-0.54-0.541c-0.369-0.346-0.755-0.674-1.137-1.006
		c-0.516-0.449-1.035-0.893-1.55-1.342c-0.461-0.402-0.919-0.81-1.379-1.213c-0.157-0.138-0.311-0.28-0.477-0.407
		c-0.506-0.386-0.979-0.813-1.45-1.237c-0.621-0.56-1.252-1.111-1.89-1.647c-0.821-0.69-1.585-1.446-2.44-2.097
		c-0.17-0.129-0.34-0.271-0.453-0.462C10.614,4.93,10.911,4.92,11.212,4.941z"/>
	<path fill-rule="evenodd" clip-rule="evenodd" fill="#45AABF" d="M27.822,20.288c0.207,0.316,0.539,0.501,0.809,0.751
		c0.551,0.509,1.107,1.013,1.691,1.483c0.553,0.446,1.07,0.933,1.611,1.391c0.438,0.37,0.869,0.748,1.301,1.124
		c0.529,0.46,1.063,0.918,1.588,1.383c0.586,0.52,1.191,1.014,1.768,1.545c0.504,0.465,1.051,0.883,1.559,1.344
		c0.395,0.355,0.855,0.635,1.184,1.064c-0.309,0-0.615,0-0.924,0c-0.484-0.186-0.795-0.596-1.178-0.91
		c-0.664-0.549-1.303-1.131-1.959-1.689c-0.57-0.486-1.131-0.986-1.697-1.479c-0.523-0.455-1.049-0.906-1.568-1.365
		c-0.568-0.501-1.154-0.982-1.721-1.483c-0.76-0.672-1.533-1.33-2.297-1.998c-0.328-0.286-0.666-0.563-0.988-0.856
		c-0.086-0.079-0.197-0.16-0.102-0.305C27.207,20.288,27.514,20.288,27.822,20.288z"/>
	<path fill-rule="evenodd" clip-rule="evenodd" fill="#578AC8" d="M17.041,20.288c0.292,0,0.583,0,0.875,0
		c0.297,0.087,0.491,0.321,0.723,0.502c0.285,0.224,0.54,0.48,0.813,0.717c0.565,0.489,1.139,0.968,1.697,1.465
		c0.763,0.68,1.577,1.303,2.322,2.001c0.499,0.467,1.045,0.875,1.548,1.336c0.5,0.457,1.032,0.875,1.517,1.35
		c0.135,0.129,0.287,0.236,0.434,0.348c0.453,0.348,0.82,0.795,1.297,1.115c0.203,0.139,0.383,0.322,0.563,0.494
		c0.158,0.152,0.307,0.309,0.49,0.43c0.107,0.072,0.244,0.152,0.154,0.328c-0.324,0-0.646,0-0.971,0
		c-0.361-0.191-0.658-0.467-0.959-0.732c-0.605-0.535-1.219-1.059-1.827-1.588c-0.572-0.496-1.133-1.006-1.707-1.5
		c-0.714-0.615-1.438-1.22-2.15-1.837c-0.567-0.491-1.124-0.995-1.692-1.485c-0.818-0.706-1.625-1.424-2.442-2.13
		c-0.177-0.152-0.353-0.307-0.533-0.456C17.09,20.56,16.934,20.472,17.041,20.288z"/>
	<path fill-rule="evenodd" clip-rule="evenodd" fill="#3EB6BA" d="M41.324,30.373c-0.176-0.275-0.43-0.477-0.674-0.68
		c-0.547-0.451-1.055-0.947-1.6-1.398c-0.684-0.568-1.316-1.193-2.021-1.74c-0.373-0.289-0.729-0.621-1.084-0.94
		c-0.781-0.697-1.578-1.377-2.367-2.066c-0.67-0.583-1.332-1.172-2.002-1.751c-0.32-0.277-0.668-0.525-0.98-0.81
		c-0.25-0.227-0.521-0.432-0.732-0.7c0.322,0,0.646,0,0.971,0c0.139,0.287,0.414,0.443,0.635,0.652
		c0.654,0.623,1.367,1.178,2.043,1.778c0.926,0.823,1.875,1.619,2.811,2.433c0.363,0.317,0.754,0.61,1.104,0.938
		c0.402,0.379,0.832,0.73,1.246,1.1c0.326,0.293,0.676,0.57,0.996,0.871c0.51,0.473,1.076,0.879,1.57,1.373
		c0.277,0.277,0.6,0.512,0.902,0.766c0.063,0.049,0.143,0.084,0.154,0.176C41.971,30.373,41.646,30.373,41.324,30.373z"/>
	<path fill-rule="evenodd" clip-rule="evenodd" fill="#5B83C3" d="M41.719,43.797c-0.332-0.373-0.744-0.658-1.117-0.99
		c-0.492-0.439-0.99-0.875-1.492-1.307c-0.457-0.396-0.918-0.787-1.379-1.178c-0.455-0.387-0.893-0.791-1.352-1.174
		c-0.719-0.598-1.418-1.221-2.121-1.838c-0.586-0.514-1.166-1.035-1.748-1.555c-0.033-0.031-0.049-0.08-0.074-0.121
		c0.373,0,0.744,0,1.117,0c0.514,0.254,0.893,0.682,1.32,1.045c0.777,0.654,1.529,1.338,2.316,1.984
		c0.217,0.18,0.42,0.379,0.623,0.574c0.541,0.51,1.152,0.936,1.686,1.453c0.572,0.559,1.248,1,1.803,1.58
		c0.24,0.25,0.535,0.441,0.781,0.688c0.082,0.082,0.152,0.168,0.152,0.291C42.115,43.48,41.834,43.561,41.719,43.797z"/>
	<path fill-rule="evenodd" clip-rule="evenodd" fill="#5291C7" d="M18.837,20.288c0.292,0,0.583,0,0.875,0
		c0.385,0.196,0.687,0.501,1.013,0.774c0.543,0.456,1.064,0.938,1.599,1.404c0.473,0.412,0.971,0.797,1.423,1.233
		c0.215,0.208,0.462,0.377,0.68,0.582c0.439,0.415,0.896,0.806,1.363,1.189c0.531,0.432,1.042,0.889,1.554,1.346
		c0.678,0.607,1.395,1.172,2.066,1.787c0.367,0.336,0.758,0.645,1.137,0.967c0.219,0.188,0.408,0.412,0.637,0.592
		c0.064,0.049,0.105,0.127,0.037,0.211c-0.307,0-0.615,0-0.922,0c-0.275-0.098-0.453-0.318-0.666-0.502
		c-0.275-0.232-0.555-0.465-0.824-0.707c-0.855-0.76-1.723-1.508-2.594-2.25c-0.859-0.732-1.676-1.51-2.556-2.217
		c-0.376-0.302-0.749-0.612-1.103-0.938c-0.395-0.362-0.806-0.706-1.198-1.072c-0.43-0.4-0.91-0.75-1.33-1.159
		c-0.364-0.354-0.828-0.594-1.132-1.012C18.846,20.447,18.761,20.389,18.837,20.288z"/>
	<path fill-rule="evenodd" clip-rule="evenodd" fill="#548EC9" d="M18.837,20.288c0.195,0.269,0.451,0.472,0.703,0.683
		c0.486,0.407,0.957,0.832,1.438,1.246c0.28,0.241,0.597,0.446,0.844,0.716c0.303,0.332,0.657,0.601,0.99,0.891
		c0.513,0.448,1.026,0.899,1.561,1.324c0.547,0.435,1.038,0.937,1.567,1.394c0.646,0.559,1.324,1.08,1.953,1.656
		c0.457,0.418,0.924,0.826,1.387,1.234c0.289,0.256,0.566,0.521,0.867,0.766c0.061,0.049,0.141,0.082,0.152,0.176
		c-0.275,0-0.551,0-0.826,0c-0.109-0.277-0.416-0.338-0.6-0.543c-0.355-0.404-0.811-0.701-1.215-1.053
		c-0.268-0.232-0.512-0.488-0.793-0.705c-0.58-0.447-1.082-0.984-1.662-1.436c-0.341-0.264-0.664-0.559-0.964-0.868
		c-0.173-0.179-0.421-0.239-0.575-0.437c-0.278-0.357-0.664-0.602-0.981-0.918c-0.271-0.27-0.609-0.471-0.893-0.729
		c-0.544-0.494-1.095-0.983-1.651-1.461c-0.295-0.254-0.596-0.51-0.899-0.758c-0.456-0.375-0.884-0.784-1.324-1.179
		C18.223,20.287,18.53,20.288,18.837,20.288z"/>
	<path fill-rule="evenodd" clip-rule="evenodd" fill="#47A5C1" d="M25.296,20.288c0.26,0,0.519,0,0.78,0
		c0.324,0.071,0.541,0.318,0.764,0.527c0.404,0.382,0.846,0.722,1.252,1.1c0.396,0.366,0.814,0.709,1.227,1.056
		c0.66,0.553,1.316,1.113,1.951,1.695c0.695,0.638,1.422,1.237,2.131,1.858c0.563,0.494,1.125,0.988,1.697,1.473
		c0.711,0.604,1.455,1.174,2.117,1.836c0.109,0.109,0.248,0.182,0.346,0.303c0.057,0.07,0.119,0.137,0.07,0.238
		c-0.275,0-0.551,0-0.824,0c-0.414-0.125-0.68-0.459-0.986-0.723c-0.959-0.826-1.93-1.641-2.873-2.482
		c-0.711-0.635-1.436-1.252-2.148-1.883c-0.682-0.603-1.387-1.182-2.07-1.784c-0.58-0.512-1.15-1.036-1.752-1.521
		c-0.465-0.375-0.861-0.827-1.357-1.166c-0.106-0.073-0.193-0.172-0.277-0.271C25.279,20.47,25.215,20.391,25.296,20.288z"/>
	<path fill-rule="evenodd" clip-rule="evenodd" fill="#6364AC" d="M8.153,20.288c0.31,0.375,0.726,0.633,1.071,0.968
		c0.7,0.681,1.507,1.238,2.195,1.934c0.322,0.325,0.701,0.593,1.051,0.891c0.398,0.34,0.781,0.699,1.189,1.026
		c0.597,0.477,1.124,1.031,1.737,1.488c0.354,0.264,0.663,0.588,0.996,0.881c0.695,0.611,1.381,1.234,2.105,1.814
		c0.345,0.275,0.658,0.59,0.984,0.887c0.06,0.055,0.12,0.111,0.133,0.197c-0.259,0-0.519,0-0.778,0
		c-0.373-0.131-0.624-0.43-0.902-0.682c-0.408-0.369-0.861-0.684-1.255-1.066c-0.441-0.428-0.947-0.775-1.383-1.211
		c-0.496-0.494-1.06-0.918-1.577-1.391c-0.416-0.38-0.863-0.723-1.275-1.108c-0.405-0.377-0.842-0.726-1.27-1.081
		c-0.415-0.344-0.829-0.694-1.231-1.055c-0.521-0.468-1.052-0.926-1.59-1.374c-0.323-0.269-0.618-0.569-0.933-0.845
		c-0.083-0.073-0.14-0.165-0.044-0.273C7.635,20.288,7.894,20.288,8.153,20.288z"/>
	<path fill-rule="evenodd" clip-rule="evenodd" fill="#48A3C2" d="M25.296,20.288c0.075,0.2,0.239,0.331,0.398,0.445
		c0.372,0.264,0.67,0.606,1.022,0.891c0.418,0.34,0.816,0.705,1.23,1.047c0.443,0.365,0.848,0.771,1.287,1.139
		c0.75,0.626,1.494,1.259,2.23,1.898c0.6,0.517,1.182,1.052,1.779,1.572c0.756,0.654,1.529,1.291,2.273,1.957
		c0.428,0.383,0.891,0.723,1.289,1.137c-0.293,0-0.582,0-0.875,0c-0.355-0.18-0.619-0.48-0.93-0.719
		c-0.387-0.295-0.746-0.619-1.105-0.939c-0.514-0.455-1.031-0.902-1.551-1.35c-0.643-0.553-1.262-1.131-1.922-1.664
		c-0.363-0.294-0.688-0.635-1.049-0.933c-0.654-0.539-1.277-1.114-1.93-1.653c-0.447-0.37-0.867-0.773-1.311-1.148
		c-0.523-0.442-1.025-0.908-1.539-1.362c-0.094-0.083-0.216-0.16-0.125-0.318C24.746,20.288,25.021,20.288,25.296,20.288z"/>
	<path fill-rule="evenodd" clip-rule="evenodd" fill="#6364AC" d="M25.685,35.635c0.054,0.174,0.195,0.281,0.327,0.379
		c0.559,0.412,1.029,0.928,1.582,1.346c0.49,0.369,0.928,0.801,1.398,1.191c0.576,0.479,1.105,1.012,1.684,1.484
		c0.514,0.418,0.996,0.867,1.492,1.305c0.85,0.752,1.707,1.5,2.582,2.219c0.697,0.574,1.318,1.236,2.051,1.768
		c0.141,0.1,0.285,0.215,0.346,0.393c-0.26,0-0.52,0-0.779,0c-0.277-0.078-0.463-0.297-0.654-0.486
		c-0.445-0.436-0.965-0.781-1.418-1.211c-0.662-0.627-1.396-1.172-2.066-1.787c-0.982-0.9-2.008-1.75-3.014-2.621
		c-0.666-0.574-1.314-1.166-1.977-1.742c-0.547-0.475-1.088-0.959-1.657-1.41c-0.2-0.16-0.396-0.332-0.578-0.516
		c-0.082-0.084-0.192-0.168-0.096-0.311C25.167,35.635,25.426,35.635,25.685,35.635z"/>
	<path fill-rule="evenodd" clip-rule="evenodd" fill="#578AC8" d="M43.217,42.23c-0.174,0.18-0.348,0.359-0.52,0.539
		c-0.123,0.068-0.211,0.008-0.305-0.07c-1.043-0.852-2.031-1.766-3.057-2.641c-0.926-0.787-1.842-1.59-2.76-2.389
		c-0.656-0.57-1.299-1.154-1.953-1.729c-0.086-0.076-0.193-0.164-0.1-0.307c0.373,0,0.746,0,1.119,0
		c0.18,0.063,0.316,0.176,0.443,0.322c0.209,0.244,0.523,0.371,0.73,0.629s0.479,0.451,0.752,0.641
		c0.285,0.197,0.512,0.465,0.771,0.693c0.664,0.588,1.354,1.146,2.018,1.732c0.41,0.363,0.836,0.709,1.238,1.08
		c0.418,0.387,0.865,0.746,1.297,1.119C43.02,41.961,43.154,42.066,43.217,42.23z"/>
	<path fill-rule="evenodd" clip-rule="evenodd" fill="#5193C7" d="M31.221,30.373c-0.012-0.07-0.063-0.105-0.113-0.15
		c-0.373-0.328-0.721-0.688-1.119-0.982c-0.596-0.443-1.1-0.988-1.684-1.447c-0.582-0.455-1.1-0.992-1.672-1.461
		c-0.379-0.311-0.742-0.638-1.125-0.944c-0.308-0.244-0.623-0.486-0.893-0.78c-0.168-0.183-0.364-0.34-0.553-0.503
		c-0.657-0.568-1.313-1.139-1.974-1.703c-0.748-0.639-1.455-1.325-2.233-1.928c-0.066-0.051-0.128-0.099-0.144-0.186
		c0.275,0,0.55,0,0.826,0c0.452,0.323,0.869,0.689,1.286,1.056c0.423,0.373,0.834,0.757,1.272,1.115
		c0.443,0.361,0.877,0.734,1.283,1.139c0.315,0.314,0.682,0.567,1.021,0.852c0.235,0.197,0.484,0.378,0.702,0.592
		c0.578,0.565,1.211,1.064,1.822,1.59c0.488,0.42,0.965,0.855,1.451,1.277c0.676,0.584,1.316,1.211,2.039,1.74
		c0.211,0.156,0.367,0.363,0.547,0.547c0.045,0.047,0.072,0.109,0.037,0.178C31.738,30.373,31.48,30.373,31.221,30.373z"/>
	<path fill-rule="evenodd" clip-rule="evenodd" fill="#4D9BC4" d="M34.377,30.373c-0.242,0-0.486,0-0.729,0
		c-0.139-0.051-0.254-0.131-0.365-0.229c-0.572-0.51-1.15-1.008-1.723-1.516c-0.84-0.742-1.719-1.441-2.551-2.191
		c-0.467-0.422-0.955-0.819-1.422-1.241c-0.543-0.49-1.082-0.986-1.642-1.455c-0.865-0.724-1.729-1.446-2.556-2.214
		c-0.329-0.306-0.699-0.571-1.033-0.875c-0.105-0.096-0.233-0.188-0.167-0.365c0.242,0,0.485,0,0.728,0
		c0.41,0.175,0.686,0.524,1.023,0.792c0.499,0.397,0.938,0.867,1.434,1.263c0.661,0.528,1.282,1.104,1.932,1.646
		c0.648,0.543,1.275,1.113,1.914,1.668c0.541,0.469,1.08,0.944,1.623,1.411c0.906,0.777,1.816,1.549,2.701,2.35
		c0.238,0.217,0.494,0.416,0.727,0.639C34.359,30.141,34.449,30.232,34.377,30.373z"/>
	<path fill-rule="evenodd" clip-rule="evenodd" fill="#47A6C1" d="M20.003,15.026c-0.276,0-0.551,0-0.827,0
		c-0.315-0.125-0.533-0.377-0.792-0.579c-0.497-0.388-0.966-0.809-1.429-1.23c-0.816-0.744-1.669-1.445-2.499-2.173
		c-0.927-0.812-1.879-1.596-2.8-2.414c-0.627-0.556-1.292-1.068-1.888-1.66c-0.195-0.194-0.445-0.322-0.627-0.53
		C9.08,6.369,8.983,6.314,9.026,6.194C9.138,6.048,9.27,5.922,9.409,5.804C9.507,5.763,9.578,5.808,9.65,5.869
		c0.585,0.495,1.165,0.997,1.74,1.502c0.514,0.452,1.03,0.902,1.559,1.337c0.466,0.383,0.914,0.792,1.365,1.195
		c0.359,0.322,0.739,0.621,1.106,0.935c0.111,0.095,0.214,0.197,0.32,0.296c0.565,0.528,1.157,1.026,1.768,1.5
		c0.249,0.193,0.456,0.43,0.689,0.638c0.559,0.499,1.169,0.939,1.692,1.479C19.963,14.827,20.09,14.882,20.003,15.026z"/>
	<path fill-rule="evenodd" clip-rule="evenodd" fill="#48A2C2" d="M9.026,6.194c0.813,0.699,1.646,1.376,2.432,2.104
		c0.627,0.581,1.284,1.127,1.93,1.684c0.83,0.714,1.649,1.441,2.49,2.143c0.357,0.297,0.704,0.617,1.053,0.926
		c0.481,0.427,0.965,0.855,1.461,1.268c0.268,0.223,0.573,0.417,0.783,0.708c-0.275,0-0.55,0-0.826,0
		c-0.438-0.19-0.763-0.53-1.117-0.835c-0.492-0.425-0.937-0.904-1.478-1.271c-0.067-0.046-0.137-0.09-0.185-0.154
		c-0.232-0.309-0.59-0.475-0.848-0.747c-0.395-0.416-0.885-0.716-1.273-1.144c-0.24-0.266-0.528-0.517-0.846-0.709
		c-0.078-0.048-0.128-0.124-0.196-0.178c-0.48-0.378-0.938-0.779-1.352-1.229c-0.115-0.124-0.288-0.177-0.417-0.29
		c-0.52-0.455-1.046-0.901-1.536-1.388c-0.082-0.081-0.177-0.14-0.27-0.204C8.737,6.812,8.648,6.744,8.62,6.625
		C8.755,6.481,8.891,6.337,9.026,6.194z"/>
	<path fill-rule="evenodd" clip-rule="evenodd" fill="#5A86C5" d="M34.523,35.635c0.154,0.295,0.451,0.451,0.674,0.68
		c0.18,0.182,0.381,0.342,0.568,0.518c0.305,0.287,0.639,0.539,0.957,0.811c0.348,0.299,0.691,0.605,1.039,0.904
		c0.658,0.57,1.322,1.133,1.977,1.707c0.418,0.365,0.875,0.689,1.256,1.096c0.479,0.508,1.094,0.854,1.572,1.363
		c0.029,0.031,0.086,0.039,0.131,0.057c-0.115,0.197-0.33,0.299-0.463,0.48c-1.012-0.963-2.104-1.834-3.137-2.775
		c-0.363-0.33-0.781-0.6-1.139-0.936c-0.334-0.314-0.666-0.633-1.014-0.932c-0.777-0.67-1.563-1.326-2.33-2.006
		c-0.318-0.283-0.646-0.555-0.977-0.824c-0.047-0.037-0.076-0.086-0.086-0.143C33.877,35.635,34.199,35.635,34.523,35.635z"/>
	<path fill-rule="evenodd" clip-rule="evenodd" fill="#46A8C0" d="M20.003,15.026c-0.241-0.231-0.469-0.479-0.725-0.693
		c-0.363-0.305-0.726-0.609-1.08-0.926c-0.532-0.477-1.085-0.931-1.631-1.392c-0.546-0.461-1.07-0.946-1.593-1.432
		c-0.159-0.148-0.333-0.281-0.503-0.416c-0.509-0.405-0.986-0.846-1.468-1.282C12.686,8.6,12.341,8.349,12.02,8.066
		c-0.507-0.446-1.014-0.893-1.52-1.341c-0.356-0.315-0.726-0.614-1.09-0.921c0.095-0.136,0.207-0.256,0.338-0.356
		c0.277,0.364,0.678,0.591,0.997,0.912c0.299,0.303,0.641,0.564,0.965,0.842c0.604,0.518,1.21,1.033,1.811,1.553
		c0.492,0.426,0.979,0.858,1.468,1.289c0.822,0.725,1.64,1.456,2.469,2.174c0.563,0.488,1.153,0.945,1.709,1.441
		c0.343,0.306,0.686,0.613,1.029,0.919c0.165,0.146,0.419,0.198,0.487,0.448C20.456,15.026,20.229,15.026,20.003,15.026z"/>
	<path fill-rule="evenodd" clip-rule="evenodd" fill="#44BAB4" d="M33.115,20.288c0.146,0.303,0.441,0.462,0.676,0.677
		c0.393,0.365,0.814,0.701,1.223,1.05c0.686,0.586,1.338,1.207,2.041,1.772c0.395,0.317,0.748,0.686,1.125,1.024
		c0.15,0.133,0.338,0.227,0.477,0.367c0.549,0.552,1.164,1.033,1.74,1.55c0.482,0.434,0.992,0.848,1.492,1.266
		c0.557,0.463,1.105,0.936,1.643,1.422c0.25,0.227,0.488,0.467,0.771,0.652c0.113,0.074,0.186,0.178,0.227,0.305
		c-0.195,0-0.389,0-0.584,0c-0.338-0.141-0.563-0.424-0.834-0.65c-0.645-0.537-1.266-1.102-1.898-1.65
		c-0.438-0.379-0.916-0.713-1.301-1.154c-0.021-0.023-0.043-0.051-0.068-0.066c-0.443-0.246-0.77-0.637-1.16-0.945
		c-0.34-0.267-0.643-0.585-0.979-0.861c-0.41-0.338-0.803-0.698-1.199-1.05c-0.574-0.508-1.162-0.998-1.746-1.493
		c-0.357-0.303-0.703-0.618-1.047-0.932c-0.371-0.335-0.752-0.658-1.135-0.979c-0.09-0.074-0.199-0.155-0.141-0.305
		C32.662,20.288,32.889,20.288,33.115,20.288z"/>
	<path fill-rule="evenodd" clip-rule="evenodd" fill="#5096C6" d="M6.809,8.526C6.961,8.327,7.135,8.15,7.326,7.987
		c0.079,0.007,0.132,0.057,0.183,0.109c0.567,0.589,1.238,1.058,1.84,1.608c0.452,0.414,0.903,0.833,1.38,1.215
		c0.327,0.262,0.623,0.556,0.949,0.818c0.324,0.26,0.626,0.552,0.941,0.828c0.327,0.286,0.68,0.54,1,0.837
		c0.266,0.246,0.503,0.527,0.807,0.73c0.229,0.154,0.41,0.362,0.617,0.54c0.101,0.086,0.252,0.169,0.201,0.353
		c-0.308,0-0.616,0-0.923,0c-0.397-0.236-0.719-0.566-1.067-0.863c-0.336-0.289-0.666-0.585-1.006-0.87
		c-0.476-0.397-0.929-0.824-1.414-1.208c-0.353-0.28-0.639-0.631-1.022-0.881c-0.294-0.191-0.542-0.458-0.797-0.703
		c-0.362-0.346-0.78-0.623-1.133-0.98C7.576,9.214,7.244,8.931,6.896,8.668C6.848,8.632,6.828,8.58,6.809,8.526z"/>
	<path fill-rule="evenodd" clip-rule="evenodd" fill="#5291C7" d="M36.467,35.635c0.307,0,0.615,0,0.922,0
		c0.541,0.289,0.961,0.732,1.406,1.137c0.467,0.422,0.951,0.824,1.422,1.24c0.705,0.627,1.416,1.246,2.133,1.857
		c0.459,0.393,0.916,0.787,1.363,1.193c0.109,0.1,0.322,0.166,0.234,0.395c-0.123,0.131-0.246,0.262-0.371,0.393
		c-0.129,0.043-0.234,0-0.33-0.09c-0.625-0.57-1.297-1.09-1.914-1.67c-0.637-0.598-1.33-1.127-1.975-1.715
		c-0.457-0.42-0.947-0.805-1.41-1.221c-0.377-0.34-0.754-0.68-1.152-0.996c-0.102-0.082-0.197-0.17-0.281-0.268
		C36.447,35.818,36.385,35.738,36.467,35.635z"/>
	<path fill-rule="evenodd" clip-rule="evenodd" fill="#4F99C5" d="M15.243,15.026c-0.505-0.542-1.11-0.977-1.646-1.487
		c-0.407-0.387-0.83-0.764-1.288-1.084c-0.34-0.238-0.602-0.553-0.919-0.811c-0.419-0.342-0.834-0.703-1.238-1.07
		C9.454,9.94,8.75,9.313,8.014,8.721c-0.261-0.21-0.527-0.426-0.688-0.734c0.091-0.098,0.182-0.196,0.273-0.294
		c0.093-0.04,0.164-0.015,0.239,0.054c0.463,0.423,0.933,0.84,1.416,1.239c0.477,0.393,0.944,0.798,1.405,1.208
		c0.443,0.394,0.908,0.762,1.344,1.167c0.499,0.464,1.019,0.909,1.539,1.354c0.647,0.554,1.32,1.081,1.923,1.687
		c0.093,0.094,0.211,0.148,0.307,0.232c0.114,0.099,0.289,0.191,0.151,0.393C15.696,15.026,15.469,15.026,15.243,15.026z"/>
	<path fill-rule="evenodd" clip-rule="evenodd" fill="#5291C7" d="M6.063,9.303C6.19,9.172,6.317,9.041,6.445,8.911
		C6.548,8.869,6.627,8.91,6.708,8.977c0.644,0.535,1.304,1.049,1.904,1.637c0.303,0.296,0.666,0.534,0.976,0.827
		c0.609,0.574,1.271,1.086,1.897,1.641c0.627,0.555,1.267,1.097,1.904,1.641c0.089,0.077,0.196,0.159,0.105,0.304
		c-0.308,0-0.616,0-0.924,0c-0.338-0.099-0.528-0.393-0.774-0.607c-0.81-0.703-1.644-1.38-2.44-2.1
		c-0.717-0.649-1.474-1.252-2.188-1.904c-0.31-0.283-0.655-0.525-0.945-0.829C6.146,9.505,6.05,9.435,6.063,9.303z"/>
	<path fill-rule="evenodd" clip-rule="evenodd" fill="#5193C7" d="M13.495,15.026c-0.033-0.164-0.186-0.214-0.292-0.309
		c-0.63-0.566-1.294-1.094-1.923-1.659c-0.58-0.521-1.198-0.999-1.765-1.535c-0.245-0.232-0.512-0.443-0.769-0.662
		c-0.478-0.406-0.928-0.846-1.417-1.241C7.035,9.384,6.74,9.147,6.445,8.911c0.102-0.147,0.229-0.269,0.364-0.385
		c0.159,0.046,0.282,0.145,0.408,0.25c0.556,0.463,1.056,0.989,1.637,1.425c0.203,0.153,0.384,0.34,0.578,0.509
		c0.727,0.631,1.452,1.262,2.181,1.892c0.549,0.474,1.126,0.917,1.648,1.419c0.267,0.257,0.584,0.45,0.837,0.72
		c0.083,0.089,0.169,0.173,0.221,0.285C14.044,15.026,13.77,15.026,13.495,15.026z"/>
	<path fill-rule="evenodd" clip-rule="evenodd" fill="#43BAB5" d="M32.438,20.288c0.217,0.301,0.551,0.47,0.813,0.721
		c0.389,0.372,0.795,0.725,1.199,1.079c0.355,0.312,0.723,0.614,1.084,0.919c0.496,0.419,1.018,0.811,1.48,1.263
		c0.391,0.384,0.83,0.709,1.219,1.094c0.279,0.274,0.604,0.502,0.895,0.763c0.18,0.158,0.352,0.322,0.545,0.467
		c0.391,0.295,0.729,0.658,1.107,0.967c0.283,0.234,0.559,0.479,0.84,0.717c0.354,0.305,0.709,0.609,1.061,0.918
		c0.383,0.332,0.762,0.672,1.143,1.004c0.057,0.051,0.111,0.096,0.123,0.174c-0.162,0-0.324,0-0.486,0
		c-0.34-0.369-0.748-0.66-1.123-0.992c-0.795-0.705-1.594-1.406-2.398-2.104c-1.051-0.912-2.121-1.804-3.158-2.733
		c-0.6-0.536-1.201-1.074-1.809-1.596c-0.709-0.607-1.395-1.246-2.133-1.82c-0.248-0.193-0.482-0.404-0.719-0.61
		c-0.072-0.063-0.152-0.126-0.168-0.23C32.111,20.288,32.273,20.288,32.438,20.288z"/>
	<path fill-rule="evenodd" clip-rule="evenodd" fill="#5B83C3" d="M4.314,11.143c0.165-0.203,0.344-0.395,0.54-0.568
		c0.138-0.029,0.227,0.053,0.317,0.138c0.807,0.753,1.67,1.441,2.497,2.172c0.543,0.479,1.1,0.945,1.638,1.43
		c0.162,0.146,0.345,0.268,0.484,0.437c0.066,0.081,0.148,0.16,0.062,0.275c-0.421,0-0.842,0-1.263,0
		c-0.396-0.188-0.656-0.542-0.987-0.81c-0.958-0.772-1.84-1.635-2.797-2.409c-0.137-0.111-0.263-0.238-0.398-0.352
		C4.313,11.377,4.23,11.282,4.314,11.143z"/>
	<path fill-rule="evenodd" clip-rule="evenodd" fill="#548EC9" d="M36.467,35.635c0.049,0.166,0.188,0.26,0.307,0.365
		c0.859,0.752,1.723,1.5,2.588,2.248c0.736,0.637,1.492,1.252,2.211,1.908c0.576,0.525,1.195,1.002,1.762,1.537
		c0.072,0.068,0.152,0.119,0.242,0.156c-0.119,0.127-0.24,0.254-0.359,0.381c-0.232-0.031-0.326-0.25-0.486-0.377
		c-0.676-0.529-1.318-1.104-1.957-1.678c-0.814-0.734-1.686-1.4-2.48-2.158c-0.418-0.398-0.9-0.732-1.318-1.131
		c-0.439-0.422-0.965-0.756-1.332-1.252C35.916,35.635,36.191,35.635,36.467,35.635z"/>
	<path fill-rule="evenodd" clip-rule="evenodd" fill="#5F7EBE" d="M4.314,11.143c0.129,0.298,0.424,0.431,0.643,0.639
		c0.264,0.25,0.549,0.474,0.824,0.712c0.659,0.569,1.313,1.145,1.978,1.708c0.252,0.214,0.456,0.482,0.744,0.657
		c0.056,0.034,0.075,0.104,0.087,0.168c-0.454,0-0.907,0-1.361,0c-0.283-0.064-0.475-0.273-0.672-0.454
		c-0.908-0.831-1.871-1.598-2.787-2.421c-0.09-0.081-0.152-0.162-0.153-0.284C3.842,11.62,4.056,11.36,4.314,11.143z"/>
	<path fill-rule="evenodd" clip-rule="evenodd" fill="#568AC8" d="M5.285,10.124c0.134-0.16,0.268-0.32,0.431-0.451
		c0.26,0.066,0.46,0.24,0.647,0.409c0.37,0.335,0.749,0.661,1.118,0.997c0.564,0.515,1.17,0.98,1.729,1.499
		c0.577,0.536,1.178,1.041,1.78,1.549c0.269,0.228,0.541,0.454,0.801,0.694c0.06,0.056,0.121,0.115,0.052,0.206
		c-0.34,0-0.68,0-1.02,0c-0.326-0.099-0.508-0.386-0.753-0.588c-0.626-0.517-1.247-1.042-1.855-1.578
		c-0.471-0.415-0.946-0.826-1.415-1.243c-0.409-0.363-0.843-0.698-1.246-1.068C5.432,10.437,5.206,10.372,5.285,10.124z"/>
	<path fill-rule="evenodd" clip-rule="evenodd" fill="#4AA0C3" d="M24.471,20.288c0.121,0.26,0.374,0.398,0.576,0.572
		c0.329,0.282,0.642,0.582,0.974,0.86c0.816,0.682,1.609,1.394,2.412,2.09c0.59,0.512,1.197,1.007,1.771,1.539
		c0.627,0.58,1.301,1.109,1.932,1.685c0.537,0.486,1.109,0.93,1.631,1.436c0.379,0.369,0.822,0.674,1.215,1.031
		c0.316,0.291,0.699,0.512,0.949,0.873c-0.146,0-0.291,0-0.438,0c-0.24-0.086-0.443-0.227-0.627-0.402
		c-0.561-0.535-1.158-1.027-1.744-1.531c-0.943-0.811-1.871-1.637-2.818-2.441c-1.008-0.856-1.975-1.758-3.004-2.59
		c-0.494-0.4-0.945-0.856-1.432-1.268c-0.59-0.499-1.174-1.005-1.74-1.532c-0.096-0.09-0.208-0.17-0.095-0.32
		C24.18,20.288,24.325,20.288,24.471,20.288z"/>
	<path fill-rule="evenodd" clip-rule="evenodd" fill="#5987C5" d="M27.58,30.373c-0.154-0.293-0.426-0.484-0.66-0.693
		c-0.373-0.328-0.773-0.627-1.143-0.965c-0.352-0.32-0.733-0.607-1.079-0.936c-0.415-0.393-0.87-0.738-1.285-1.133
		c-0.448-0.428-0.962-0.785-1.435-1.186c-0.257-0.218-0.486-0.468-0.75-0.682c-0.514-0.415-0.978-0.884-1.503-1.288
		c-0.451-0.348-0.831-0.789-1.28-1.14c-0.744-0.584-1.391-1.279-2.152-1.841c-0.079-0.059-0.155-0.118-0.175-0.223
		c0.163,0,0.325,0,0.487,0c0.268,0.122,0.487,0.316,0.691,0.516c0.359,0.351,0.741,0.673,1.138,0.975
		c0.272,0.207,0.496,0.462,0.754,0.683c0.411,0.35,0.823,0.699,1.232,1.05c0.447,0.384,0.89,0.773,1.333,1.16
		c0.711,0.62,1.412,1.252,2.125,1.87c0.591,0.512,1.194,1.01,1.779,1.529c0.745,0.666,1.485,1.34,2.26,1.973
		c0.104,0.084,0.244,0.156,0.146,0.33C27.902,30.373,27.742,30.373,27.58,30.373z"/>
	<path fill-rule="evenodd" clip-rule="evenodd" fill="#5193C7" d="M43.947,41.457c-0.172-0.262-0.438-0.426-0.66-0.631
		c-0.449-0.414-0.926-0.799-1.387-1.199c-0.797-0.693-1.572-1.41-2.385-2.082c-0.664-0.553-1.258-1.184-1.961-1.688
		c-0.078-0.055-0.17-0.105-0.166-0.223c0.275,0,0.551,0,0.826,0c0.408,0.195,0.707,0.531,1.041,0.818
		c0.527,0.453,1.033,0.93,1.561,1.381c0.813,0.699,1.637,1.385,2.432,2.105c0.322,0.291,0.684,0.541,0.992,0.852
		c0.076,0.076,0.16,0.143,0.092,0.264C44.221,41.207,44.096,41.342,43.947,41.457z"/>
	<path fill-rule="evenodd" clip-rule="evenodd" fill="#6364AC" d="M7.376,20.288c0,0.078,0.034,0.132,0.094,0.186
		c0.409,0.363,0.79,0.765,1.229,1.087c0.396,0.292,0.708,0.679,1.123,0.943c0.135,0.086,0.237,0.218,0.352,0.33
		c0.29,0.282,0.625,0.507,0.919,0.785c0.414,0.391,0.897,0.71,1.306,1.105c0.475,0.459,1,0.856,1.484,1.303
		c0.527,0.484,1.115,0.906,1.614,1.416c0.363,0.373,0.797,0.65,1.165,1.014c0.452,0.445,0.966,0.826,1.444,1.246
		c0.248,0.217,0.524,0.406,0.73,0.67c-0.162,0-0.323,0-0.485,0c-0.225-0.311-0.521-0.553-0.825-0.775
		c-0.409-0.301-0.793-0.633-1.163-0.973c-0.663-0.607-1.33-1.209-2.005-1.805c-0.324-0.285-0.627-0.605-0.967-0.854
		c-0.408-0.297-0.736-0.686-1.168-0.951c-0.145-0.089-0.263-0.234-0.387-0.358c-0.497-0.499-1.08-0.896-1.598-1.366
		c-0.404-0.366-0.809-0.73-1.215-1.094c-0.342-0.306-0.697-0.599-1.058-0.882c-0.106-0.083-0.155-0.202-0.25-0.29
		c-0.217-0.203-0.487-0.341-0.678-0.576c-0.042-0.051-0.088-0.096-0.099-0.163C7.084,20.288,7.23,20.288,7.376,20.288z"/>
	<path fill-rule="evenodd" clip-rule="evenodd" fill="#548EC9" d="M11.844,15.026c-0.106-0.169-0.283-0.278-0.429-0.387
		c-0.706-0.522-1.327-1.144-2.003-1.701c-0.434-0.358-0.853-0.752-1.274-1.133c-0.558-0.505-1.146-0.978-1.69-1.498
		c-0.235-0.225-0.564-0.336-0.731-0.635c0.106-0.132,0.211-0.266,0.347-0.37c0.604,0.566,1.27,1.064,1.867,1.641
		c0.283,0.273,0.604,0.506,0.901,0.764c0.56,0.485,1.114,0.976,1.673,1.461c0.657,0.57,1.344,1.107,1.956,1.729
		c0.04,0.04,0.074,0.085,0.111,0.128C12.329,15.026,12.086,15.026,11.844,15.026z"/>
	<path fill-rule="evenodd" clip-rule="evenodd" fill="#5196C6" d="M20.877,20.288c0.146,0,0.291,0,0.437,0
		c0.39,0.176,0.667,0.498,0.984,0.769c0.312,0.267,0.635,0.523,0.937,0.801c0.393,0.36,0.798,0.706,1.206,1.046
		c0.587,0.491,1.131,1.029,1.733,1.506c0.504,0.4,0.951,0.872,1.453,1.28c0.432,0.35,0.844,0.721,1.268,1.083
		c0.471,0.402,0.92,0.83,1.398,1.221c0.494,0.4,0.939,0.855,1.441,1.246c0.344,0.266,0.648,0.582,0.982,0.863
		c0.078,0.066,0.16,0.146,0.107,0.271c-0.18,0-0.355,0-0.535,0c-0.375-0.23-0.643-0.588-0.99-0.846
		c-0.514-0.383-0.963-0.836-1.445-1.248c-0.393-0.334-0.777-0.68-1.17-1.012c-0.609-0.516-1.164-1.094-1.807-1.575
		c-0.482-0.36-0.903-0.805-1.371-1.185c-0.634-0.513-1.241-1.058-1.845-1.601c-0.564-0.507-1.163-0.971-1.722-1.484
		c-0.312-0.286-0.601-0.61-0.972-0.832C20.861,20.528,20.78,20.426,20.877,20.288z"/>
	<path fill-rule="evenodd" clip-rule="evenodd" fill="#5987C6" d="M5.285,10.124c0.026,0.039,0.046,0.087,0.081,0.117
		c0.741,0.633,1.501,1.245,2.222,1.901c0.541,0.493,1.095,0.971,1.646,1.45c0.486,0.423,0.989,0.827,1.458,1.271
		c0.052,0.05,0.121,0.083,0.132,0.164c-0.324,0-0.647,0-0.971,0c-0.158-0.328-0.476-0.5-0.73-0.73
		c-0.544-0.492-1.109-0.961-1.666-1.44c-0.69-0.595-1.382-1.19-2.07-1.788c-0.183-0.158-0.355-0.329-0.532-0.493
		C4.978,10.405,5.125,10.258,5.285,10.124z"/>
	<path fill-rule="evenodd" clip-rule="evenodd" fill="#4F99C5" d="M22.189,20.288c0.146,0.239,0.362,0.414,0.576,0.581
		c0.624,0.486,1.191,1.037,1.78,1.563c0.224,0.199,0.496,0.334,0.692,0.562c0.301,0.351,0.706,0.58,1.033,0.901
		c0.189,0.186,0.393,0.362,0.613,0.509c0.295,0.197,0.484,0.496,0.773,0.708c0.516,0.381,0.965,0.846,1.451,1.268
		c0.627,0.545,1.266,1.076,1.895,1.623c0.605,0.529,1.186,1.088,1.811,1.592c0.301,0.242,0.574,0.502,0.836,0.779
		c-0.129,0-0.258,0-0.387,0c-0.273-0.1-0.477-0.299-0.693-0.479c-0.725-0.604-1.4-1.266-2.141-1.854
		c-0.189-0.15-0.371-0.313-0.547-0.48c-0.609-0.588-1.273-1.113-1.926-1.652c-0.322-0.266-0.65-0.533-0.936-0.842
		c-0.051-0.1-0.123-0.177-0.232-0.213c-0.189-0.102-0.316-0.277-0.475-0.415c-0.045-0.059-0.102-0.104-0.172-0.13
		c-0.234-0.159-0.46-0.327-0.634-0.556c-0.039-0.08-0.1-0.135-0.184-0.164c-0.2-0.094-0.341-0.256-0.484-0.416
		c-0.066-0.128-0.156-0.229-0.297-0.278c-0.409-0.309-0.802-0.635-1.164-0.999c-0.041-0.073-0.097-0.129-0.178-0.156
		c-0.346-0.244-0.644-0.545-0.97-0.812c-0.104-0.085-0.198-0.184-0.298-0.276c-0.044-0.065-0.102-0.119-0.162-0.171
		c-0.045-0.061-0.079-0.124-0.018-0.194C21.897,20.288,22.043,20.288,22.189,20.288z"/>
	<path fill-rule="evenodd" clip-rule="evenodd" fill="#5987C6" d="M28.064,30.373c-0.018-0.096-0.084-0.152-0.154-0.209
		c-0.584-0.457-1.123-0.967-1.684-1.449c-0.698-0.6-1.37-1.227-2.085-1.805c-0.555-0.449-1.075-0.939-1.613-1.409
		c-0.583-0.509-1.179-1.004-1.752-1.523c-0.65-0.589-1.34-1.131-1.988-1.724c-0.611-0.559-1.26-1.076-1.885-1.619
		c-0.115-0.099-0.199-0.231-0.298-0.348c0.146,0,0.291,0,0.437,0c0.114,0.279,0.389,0.402,0.592,0.59
		c0.608,0.564,1.259,1.079,1.872,1.64c0.594,0.543,1.231,1.041,1.826,1.583c0.548,0.5,1.123,0.968,1.679,1.458
		c0.374,0.329,0.757,0.65,1.137,0.974c0.36,0.307,0.716,0.619,1.074,0.93c0.548,0.475,1.1,0.945,1.645,1.424
		c0.496,0.436,0.979,0.889,1.502,1.291c0.064,0.049,0.121,0.109,0.135,0.195C28.355,30.373,28.211,30.373,28.064,30.373z"/>
	<path fill-rule="evenodd" clip-rule="evenodd" fill="#4F99C5" d="M23.451,21.833c0.381,0.333,0.741,0.69,1.165,0.972
		c0.08,0.115,0.177,0.212,0.292,0.292c0.159,0.132,0.259,0.341,0.485,0.388c0.05,0.08,0.115,0.145,0.195,0.194
		c0.173,0.222,0.377,0.408,0.63,0.535c0.037,0.061,0.086,0.109,0.146,0.146c0.184,0.102,0.27,0.329,0.484,0.389
		c0.064,0.098,0.146,0.179,0.244,0.243c0.502,0.478,1.037,0.916,1.578,1.35c0.355,0.287,0.701,0.59,1.033,0.904
		c0.395,0.373,0.811,0.715,1.223,1.066c0.582,0.498,1.148,1.014,1.725,1.518c0.207,0.178,0.453,0.313,0.609,0.545
		c-0.146,0-0.293,0-0.438,0c-0.42-0.398-0.852-0.783-1.303-1.146c-0.332-0.266-0.629-0.572-0.945-0.855
		c-0.221-0.199-0.436-0.406-0.676-0.58c-0.438-0.318-0.793-0.723-1.219-1.053c-0.436-0.338-0.846-0.709-1.26-1.078
		c-0.365-0.325-0.75-0.63-1.096-0.981c-0.258-0.263-0.563-0.481-0.866-0.693c-0.178-0.125-0.284-0.307-0.441-0.445
		c-0.564-0.492-1.138-0.972-1.699-1.467c-0.456-0.402-0.928-0.792-1.39-1.189c-0.213-0.183-0.476-0.333-0.616-0.597
		c0.146,0,0.292,0,0.437,0c0.009,0.063,0.042,0.108,0.098,0.138c0.036,0.061,0.084,0.109,0.145,0.146
		c0.36,0.32,0.721,0.639,1.08,0.959c0.055,0.048,0.106,0.1,0.183,0.109C23.336,21.689,23.401,21.754,23.451,21.833z"/>
	<path fill-rule="evenodd" clip-rule="evenodd" fill="#46A8C0" d="M37.631,30.373c-0.482-0.486-1.002-0.934-1.521-1.379
		c-0.629-0.539-1.254-1.084-1.893-1.609c-0.287-0.234-0.559-0.488-0.834-0.732c-0.41-0.361-0.824-0.721-1.242-1.07
		c-0.555-0.464-1.072-0.967-1.631-1.425c-0.396-0.325-0.775-0.676-1.162-1.015c-0.496-0.436-1.016-0.847-1.496-1.298
		c-0.352-0.331-0.748-0.609-1.09-0.955c-0.211-0.214-0.467-0.392-0.686-0.603c0.176,0,0.354,0,0.531,0
		c0.219,0.1,0.377,0.279,0.547,0.436c0.52,0.473,1.078,0.898,1.584,1.388c0.164,0.16,0.313,0.343,0.506,0.476
		c0.09,0.146,0.201,0.265,0.375,0.307c0.098,0.044,0.18,0.108,0.244,0.195c0.031,0.08,0.072,0.151,0.162,0.177
		c0.436,0.278,0.791,0.656,1.191,0.978c0.316,0.256,0.615,0.537,0.934,0.793c0.051,0.041,0.092,0.089,0.125,0.146
		c0.047,0.19,0.18,0.286,0.359,0.334c0.223,0.147,0.434,0.309,0.6,0.522c0.029,0.082,0.078,0.141,0.17,0.146
		c0.213,0.121,0.381,0.299,0.549,0.469c0.113,0.115,0.23,0.223,0.361,0.314c0.063,0.074,0.127,0.148,0.217,0.191
		c0.197,0.15,0.381,0.314,0.551,0.498c0.131,0.176,0.26,0.355,0.496,0.402c0.133,0.063,0.219,0.176,0.32,0.273
		c0.055,0.111,0.125,0.207,0.252,0.244c0.438,0.342,0.875,0.686,1.279,1.068c0.152,0.145,0.336,0.254,0.48,0.408
		c0.082,0.088,0.172,0.178,0.109,0.318C37.891,30.373,37.762,30.373,37.631,30.373z"/>
	<path fill-rule="evenodd" clip-rule="evenodd" fill="#5096C6" d="M44.332,41.055c-0.115-0.195-0.301-0.332-0.471-0.473
		c-0.754-0.627-1.48-1.289-2.225-1.93c-0.465-0.4-0.941-0.793-1.406-1.197c-0.564-0.49-1.131-0.98-1.686-1.482
		c-0.115-0.104-0.289-0.158-0.33-0.338c0.26,0,0.52,0,0.777,0c0.389,0.121,0.627,0.445,0.916,0.693
		c0.641,0.553,1.281,1.102,1.916,1.658c0.496,0.436,0.982,0.879,1.479,1.313c0.416,0.365,0.859,0.703,1.268,1.078
		c0.082,0.074,0.16,0.137,0.162,0.256C44.621,40.793,44.475,40.922,44.332,41.055z"/>
	<path fill-rule="evenodd" clip-rule="evenodd" fill="#4C9EC4" d="M34.377,30.373c-0.178-0.334-0.496-0.529-0.771-0.758
		c-0.432-0.354-0.816-0.756-1.256-1.1c-0.424-0.332-0.826-0.695-1.229-1.055c-0.385-0.342-0.791-0.66-1.164-1.021
		c-0.467-0.451-1.004-0.828-1.465-1.29c-0.305-0.303-0.656-0.546-0.982-0.823c-0.262-0.223-0.529-0.446-0.781-0.678
		c-0.611-0.563-1.287-1.051-1.882-1.626c-0.534-0.516-1.146-0.941-1.666-1.469c-0.087-0.089-0.247-0.107-0.263-0.266
		c0.146,0,0.291,0,0.437,0c0.72,0.533,1.375,1.141,2.044,1.733c0.402,0.357,0.817,0.703,1.237,1.042
		c0.33,0.266,0.635,0.571,0.957,0.85c0.668,0.577,1.326,1.169,2,1.741c0.396,0.336,0.775,0.702,1.18,1.032
		c0.541,0.443,1.055,0.918,1.594,1.365c0.508,0.422,1.004,0.857,1.494,1.303c0.285,0.26,0.604,0.48,0.877,0.756
		c0.07,0.072,0.172,0.141,0.078,0.264C34.67,30.373,34.523,30.373,34.377,30.373z"/>
	<path fill-rule="evenodd" clip-rule="evenodd" fill="#5096C6" d="M20.877,20.288c0.024,0.118,0.081,0.204,0.202,0.25
		c0.253,0.095,0.379,0.342,0.578,0.505c0.614,0.505,1.243,0.998,1.815,1.548c0.512,0.491,1.094,0.895,1.592,1.402
		c0.314,0.32,0.698,0.569,1.027,0.879c0.695,0.656,1.484,1.205,2.168,1.88c0.443,0.439,0.941,0.822,1.422,1.225
		c0.389,0.326,0.75,0.678,1.125,1.016c0.215,0.191,0.467,0.34,0.678,0.541c0.227,0.215,0.43,0.457,0.697,0.629
		c0.066,0.043,0.092,0.131,0.107,0.211c-0.098,0-0.193,0-0.291,0c-0.48-0.574-1.123-0.965-1.664-1.473
		c-0.572-0.539-1.186-1.031-1.76-1.568c-0.529-0.496-1.096-0.953-1.662-1.406c-0.475-0.378-0.873-0.839-1.354-1.207
		c-0.339-0.259-0.666-0.534-0.988-0.813c-0.419-0.363-0.836-0.729-1.241-1.108c-0.178-0.166-0.379-0.301-0.56-0.461
		c-0.489-0.432-0.967-0.875-1.458-1.304c-0.206-0.18-0.446-0.318-0.625-0.531c-0.057-0.067-0.134-0.119-0.149-0.215
		C20.65,20.288,20.764,20.288,20.877,20.288z"/>
	<path fill-rule="evenodd" clip-rule="evenodd" fill="#4AA0C3" d="M17.817,15.026c-0.146,0-0.292,0-0.437,0
		c-0.337-0.171-0.594-0.446-0.869-0.692c-0.571-0.511-1.17-0.99-1.736-1.507c-0.417-0.381-0.869-0.724-1.274-1.118
		c-0.203-0.198-0.435-0.361-0.649-0.546c-0.42-0.362-0.822-0.746-1.239-1.11c-0.29-0.253-0.598-0.488-0.88-0.752
		c-0.47-0.44-0.993-0.819-1.46-1.264C9.004,7.782,8.697,7.568,8.424,7.315C8.326,7.224,8.202,7.133,8.297,6.967
		C8.36,6.9,8.424,6.833,8.487,6.767c0.092-0.005,0.175,0.013,0.244,0.082c0.452,0.458,0.937,0.88,1.426,1.294
		c0.392,0.333,0.772,0.68,1.17,1.005c0.549,0.448,1.087,0.905,1.599,1.396c0.454,0.436,0.991,0.776,1.435,1.225
		c0.42,0.425,0.917,0.764,1.351,1.173c0.357,0.336,0.761,0.62,1.123,0.949c0.304,0.276,0.636,0.521,0.917,0.821
		C17.837,14.804,17.926,14.895,17.817,15.026z"/>
	<path fill-rule="evenodd" clip-rule="evenodd" fill="#49A1C3" d="M17.817,15.026c0-0.087-0.042-0.148-0.104-0.208
		c-0.34-0.331-0.688-0.663-1.06-0.945c-0.592-0.45-1.112-0.978-1.693-1.438c-0.436-0.345-0.836-0.734-1.255-1.1
		c-0.317-0.275-0.659-0.52-0.972-0.8c-0.117-0.104-0.196-0.237-0.312-0.335c-0.381-0.322-0.774-0.63-1.149-0.959
		c-0.247-0.217-0.505-0.42-0.73-0.665c-0.173-0.188-0.414-0.295-0.603-0.478C9.464,7.644,8.946,7.237,8.487,6.767
		C8.531,6.719,8.576,6.671,8.62,6.625c0.211,0.088,0.409,0.213,0.554,0.381c0.357,0.418,0.858,0.676,1.194,1.119
		c0.096,0.127,0.26,0.22,0.401,0.304c0.411,0.245,0.675,0.646,1.037,0.93c0.317,0.249,0.621,0.515,0.938,0.763
		c0.317,0.249,0.652,0.489,0.911,0.812c0.11,0.137,0.249,0.26,0.396,0.355c0.319,0.206,0.537,0.528,0.851,0.732
		c0.468,0.304,0.784,0.781,1.269,1.069c0.266,0.158,0.444,0.439,0.688,0.628c0.292,0.227,0.547,0.491,0.825,0.731
		c0.223,0.192,0.502,0.319,0.667,0.577C18.173,15.026,17.995,15.026,17.817,15.026z"/>
	<path fill-rule="evenodd" clip-rule="evenodd" fill="#6363AB" d="M24.908,35.635c0.048,0.168,0.188,0.262,0.308,0.365
		c0.499,0.432,1.023,0.836,1.507,1.283c0.668,0.619,1.361,1.213,2.047,1.811c0.594,0.518,1.193,1.031,1.795,1.539
		c0.516,0.438,1.027,0.877,1.521,1.34c0.48,0.447,0.979,0.885,1.51,1.275c0.357,0.262,0.633,0.613,0.982,0.887
		c0.629,0.492,1.248,0.996,1.789,1.584c-0.129,0-0.258,0-0.387,0c-0.121-0.258-0.35-0.43-0.563-0.594
		c-0.654-0.51-1.246-1.088-1.873-1.629c-0.248-0.217-0.525-0.404-0.76-0.633c-0.393-0.381-0.846-0.691-1.232-1.08
		c-0.15-0.152-0.344-0.281-0.525-0.41c-0.229-0.162-0.441-0.365-0.648-0.563c-0.336-0.324-0.686-0.627-1.051-0.918
		c-0.303-0.24-0.578-0.514-0.867-0.77c-0.283-0.252-0.604-0.473-0.857-0.742c-0.42-0.441-0.922-0.777-1.357-1.193
		c-0.391-0.377-0.838-0.697-1.237-1.072c-0.175-0.164-0.358-0.32-0.538-0.48C24.617,35.635,24.763,35.635,24.908,35.635z"/>
	<path fill-rule="evenodd" clip-rule="evenodd" fill="#4D9BC4" d="M39.818,35.635c0.275,0,0.551,0,0.826,0
		c0.352,0.109,0.539,0.426,0.809,0.639c0.398,0.316,0.781,0.648,1.156,0.99c0.76,0.697,1.564,1.344,2.324,2.039
		c0.125,0.115,0.27,0.207,0.385,0.334c0.072,0.082,0.133,0.164,0.094,0.281c-0.074,0.117-0.168,0.215-0.295,0.277
		c-0.137,0.055-0.252,0.006-0.355-0.082c-0.418-0.354-0.855-0.684-1.258-1.053c-0.582-0.531-1.189-1.027-1.771-1.557
		c-0.352-0.318-0.725-0.615-1.066-0.945c-0.225-0.217-0.465-0.418-0.699-0.625C39.879,35.855,39.766,35.785,39.818,35.635z"/>
	<path fill-rule="evenodd" clip-rule="evenodd" fill="#6179BB" d="M3.617,11.867c0.548,0.473,1.098,0.946,1.646,1.419
		c0.376,0.325,0.762,0.642,1.123,0.983c0.275,0.26,0.594,0.469,0.843,0.756c-0.421,0-0.841,0-1.263,0
		c-0.334-0.154-0.573-0.427-0.844-0.664c-0.561-0.491-1.12-0.983-1.703-1.449c-0.154-0.123-0.378-0.235-0.32-0.507
		C3.272,12.227,3.444,12.047,3.617,11.867z"/>
	<path fill-rule="evenodd" clip-rule="evenodd" fill="#4AA0C3" d="M24.034,20.288c-0.01,0.165,0.143,0.194,0.229,0.283
		c0.806,0.828,1.75,1.498,2.583,2.293c0.689,0.657,1.457,1.224,2.158,1.867c0.736,0.673,1.498,1.317,2.254,1.969
		c0.896,0.775,1.807,1.535,2.693,2.322c0.342,0.305,0.732,0.561,1.029,0.916c0.145,0.176,0.395,0.229,0.514,0.436
		c-0.129,0-0.258,0-0.387,0c-0.289-0.127-0.482-0.375-0.717-0.57c-0.6-0.5-1.182-1.021-1.771-1.533
		c-0.443-0.385-0.881-0.777-1.334-1.148c-0.715-0.59-1.395-1.215-2.105-1.808c-0.771-0.643-1.514-1.323-2.268-1.989
		c-0.475-0.422-0.988-0.8-1.447-1.238c-0.578-0.551-1.208-1.042-1.785-1.592c-0.06-0.056-0.121-0.112-0.083-0.207
		C23.743,20.288,23.888,20.288,24.034,20.288z"/>
	<path fill-rule="evenodd" clip-rule="evenodd" fill="#47A6C1" d="M47.045,38.199c-0.15,0.203-0.332,0.379-0.516,0.553
		c-0.291-0.02-0.445-0.254-0.627-0.422c-0.641-0.592-1.344-1.107-1.977-1.703c-0.234-0.223-0.492-0.412-0.734-0.623
		c-0.104-0.092-0.223-0.195-0.168-0.369c0.389,0,0.777,0,1.164,0c0.441,0.271,0.834,0.615,1.205,0.961
		c0.49,0.453,1.037,0.842,1.484,1.342C46.947,38.018,47.014,38.098,47.045,38.199z"/>
	<path fill-rule="evenodd" clip-rule="evenodd" fill="#46A8C0" d="M29.813,23.145c-0.084-0.043-0.137-0.137-0.242-0.146
		c-0.146-0.093-0.242-0.247-0.389-0.34c-0.225-0.089-0.332-0.31-0.5-0.462c-0.396-0.36-0.807-0.702-1.209-1.053
		c-0.303-0.265-0.664-0.485-0.865-0.856c0.098,0,0.193,0,0.291,0c0.016,0.096,0.084,0.159,0.152,0.213
		c0.764,0.596,1.432,1.301,2.201,1.89c0.391,0.298,0.734,0.657,1.105,0.98c0.486,0.424,0.98,0.84,1.469,1.262
		c0.563,0.484,1.123,0.969,1.684,1.455c0.693,0.604,1.379,1.217,2.08,1.811c0.541,0.459,1.072,0.932,1.609,1.396
		c0.408,0.354,0.807,0.719,1.209,1.078c-0.129,0-0.258,0-0.389,0c-0.262-0.418-0.691-0.66-1.039-0.988
		c-0.277-0.264-0.582-0.496-0.902-0.703c-0.066-0.109-0.178-0.182-0.242-0.291c-0.098-0.082-0.195-0.162-0.291-0.244
		c-0.207-0.109-0.359-0.287-0.535-0.436c-0.178-0.162-0.355-0.324-0.535-0.486c-0.078-0.049-0.145-0.115-0.193-0.193
		c-0.314-0.063-0.412-0.389-0.656-0.541c-0.1-0.061-0.178-0.156-0.266-0.238c-0.082-0.027-0.15-0.068-0.195-0.145
		c-0.178-0.182-0.35-0.372-0.584-0.486c-0.145-0.113-0.281-0.234-0.387-0.388c-0.291-0.301-0.629-0.546-0.943-0.82
		c-0.422-0.369-0.834-0.748-1.291-1.074C29.875,23.301,29.861,23.21,29.813,23.145z"/>
	<path fill-rule="evenodd" clip-rule="evenodd" fill="#4B9EC4" d="M8.297,6.967C8.438,7.286,8.738,7.462,8.99,7.659
		c0.326,0.253,0.598,0.563,0.926,0.808c0.529,0.395,0.977,0.881,1.483,1.299c0.915,0.756,1.793,1.555,2.692,2.329
		c0.768,0.661,1.55,1.307,2.308,1.979c0.283,0.251,0.566,0.503,0.847,0.756c0.06,0.054,0.12,0.11,0.133,0.196c-0.13,0-0.26,0-0.39,0
		c-0.265-0.098-0.447-0.315-0.648-0.492c-0.784-0.693-1.589-1.362-2.376-2.052c-0.707-0.621-1.389-1.272-2.131-1.851
		c-0.365-0.284-0.663-0.636-1.021-0.927c-0.387-0.315-0.782-0.619-1.146-0.964c-0.18-0.17-0.376-0.326-0.553-0.502
		C8.881,8.004,8.595,7.833,8.347,7.616C8.214,7.5,8.022,7.401,8.103,7.164C8.167,7.098,8.232,7.033,8.297,6.967z"/>
	<path fill-rule="evenodd" clip-rule="evenodd" fill="#4B9EC4" d="M45.412,39.918c-0.242-0.342-0.602-0.559-0.896-0.844
		c-0.475-0.459-1.008-0.85-1.488-1.307c-0.561-0.537-1.191-1-1.771-1.52c-0.213-0.191-0.443-0.373-0.611-0.613
		c0.26,0,0.518,0,0.777,0c0.334,0.145,0.568,0.422,0.83,0.656c0.771,0.693,1.58,1.346,2.355,2.033
		c0.361,0.32,0.729,0.633,1.066,0.977c0.057,0.061,0.102,0.125,0.109,0.209C45.695,39.678,45.553,39.799,45.412,39.918z"/>
	<path fill-rule="evenodd" clip-rule="evenodd" fill="#4AA1C3" d="M45.783,39.51c-0.336-0.293-0.682-0.578-1.008-0.883
		c-0.324-0.301-0.66-0.586-1.008-0.861c-0.354-0.285-0.689-0.596-1.031-0.896c-0.387-0.34-0.771-0.684-1.158-1.021
		c-0.068-0.063-0.115-0.135-0.156-0.213c0.258,0,0.518,0,0.775,0c0.381,0.23,0.713,0.521,1.047,0.816
		c0.469,0.416,0.979,0.789,1.428,1.229c0.352,0.342,0.758,0.623,1.088,0.988c0.139,0.152,0.381,0.188,0.465,0.404
		C46.076,39.219,45.932,39.365,45.783,39.51z"/>
	<path fill-rule="evenodd" clip-rule="evenodd" fill="#4B9EC4" d="M23.597,20.288c0.56,0.479,1.106,0.976,1.656,1.466
		c0.468,0.417,0.973,0.793,1.426,1.22c0.697,0.656,1.455,1.24,2.141,1.911c0.395,0.386,0.848,0.71,1.27,1.069
		c0.555,0.475,1.104,0.951,1.654,1.43c0.51,0.443,1.01,0.9,1.543,1.318c0.209,0.164,0.395,0.355,0.596,0.531
		c0.361,0.316,0.725,0.631,1.088,0.947c0.063,0.053,0.121,0.107,0.137,0.193c-0.098,0-0.195,0-0.293,0
		c-0.146-0.314-0.445-0.484-0.695-0.689c-0.6-0.49-1.156-1.031-1.756-1.514c-0.523-0.42-1.018-0.869-1.527-1.299
		c-0.416-0.35-0.842-0.693-1.232-1.078c-0.379-0.371-0.809-0.688-1.207-1.039c-0.594-0.521-1.16-1.073-1.771-1.574
		c-0.504-0.414-0.995-0.842-1.482-1.275c-0.548-0.486-1.105-0.962-1.685-1.411c-0.069-0.053-0.105-0.121-0.104-0.208
		C23.435,20.288,23.516,20.288,23.597,20.288z"/>
	<path fill-rule="evenodd" clip-rule="evenodd" fill="#45AABF" d="M47.045,38.199c-0.252-0.094-0.398-0.326-0.576-0.5
		c-0.266-0.26-0.582-0.455-0.838-0.723c-0.414-0.438-0.918-0.773-1.367-1.172c-0.053-0.047-0.072-0.104-0.076-0.17
		c0.391,0,0.779,0,1.168,0c0.424,0.15,0.719,0.479,1.041,0.768c0.357,0.322,0.742,0.617,1.084,0.961
		c0.076,0.078,0.156,0.143,0.113,0.266C47.451,37.857,47.203,37.986,47.045,38.199z"/>
	<path fill-rule="evenodd" clip-rule="evenodd" fill="#6374B7" d="M3.1,12.406c0.301,0.426,0.762,0.677,1.126,1.033
		c0.363,0.355,0.798,0.624,1.14,1.003c0.187,0.206,0.45,0.337,0.6,0.584c-0.404,0-0.81,0-1.214,0
		c-0.306-0.11-0.515-0.35-0.738-0.566c-0.445-0.431-0.962-0.778-1.396-1.221c-0.06-0.061-0.105-0.119-0.112-0.204
		C2.689,12.813,2.887,12.602,3.1,12.406z"/>
	<path fill-rule="evenodd" clip-rule="evenodd" fill="#4C9DC4" d="M8.103,7.164c0.108,0.273,0.358,0.417,0.571,0.58
		c0.531,0.407,1.008,0.871,1.5,1.318c0.226,0.205,0.495,0.356,0.717,0.57c0.674,0.649,1.408,1.229,2.118,1.837
		c0.475,0.406,0.923,0.844,1.401,1.246c0.492,0.413,0.984,0.827,1.46,1.255c0.38,0.341,0.829,0.618,1.119,1.057
		c-0.097,0-0.194,0-0.292,0c-0.192-0.051-0.334-0.176-0.483-0.302c-0.857-0.718-1.684-1.472-2.542-2.188
		c-0.513-0.428-1.003-0.884-1.5-1.332c-0.61-0.549-1.249-1.068-1.873-1.602C9.85,9.218,9.406,8.826,8.964,8.433
		C8.67,8.17,8.354,7.935,8.065,7.667C7.98,7.587,7.822,7.534,7.91,7.362C7.957,7.278,8.027,7.219,8.103,7.164z"/>
	<path fill-rule="evenodd" clip-rule="evenodd" fill="#48A3C2" d="M46.225,39.072c-0.209-0.033-0.375-0.17-0.506-0.303
		c-0.35-0.355-0.75-0.648-1.107-0.996c-0.445-0.438-0.949-0.811-1.42-1.219c-0.285-0.248-0.557-0.512-0.879-0.713
		c-0.072-0.047-0.098-0.127-0.115-0.207c0.275,0,0.551,0,0.826,0c0.172,0.25,0.416,0.414,0.65,0.6
		c0.26,0.209,0.49,0.459,0.748,0.676c0.689,0.582,1.367,1.176,2.047,1.766c0.025,0.02,0.041,0.051,0.061,0.076
		C46.428,38.859,46.326,38.967,46.225,39.072z"/>
	<path fill-rule="evenodd" clip-rule="evenodd" fill="#4D9BC4" d="M7.91,7.362c0.21,0.256,0.469,0.464,0.73,0.658
		c0.209,0.155,0.391,0.335,0.587,0.5c0.446,0.376,0.853,0.796,1.329,1.14c0.188,0.135,0.344,0.314,0.516,0.472
		c0.534,0.492,1.117,0.926,1.652,1.418c0.472,0.435,0.945,0.873,1.459,1.263c0.352,0.268,0.662,0.59,0.997,0.881
		c0.363,0.315,0.734,0.62,1.098,0.934c0.146,0.126,0.281,0.265,0.42,0.398c-0.129,0-0.259,0-0.388,0
		c-0.403-0.213-0.718-0.537-1.051-0.837c-0.725-0.651-1.481-1.266-2.212-1.91c-0.56-0.494-1.106-1.004-1.671-1.49
		c-0.395-0.339-0.797-0.674-1.19-1.018c-0.7-0.614-1.439-1.183-2.104-1.837C7.959,7.813,7.767,7.756,7.746,7.547
		C7.8,7.485,7.855,7.424,7.91,7.362z"/>
	<path fill-rule="evenodd" clip-rule="evenodd" fill="#4D9BC4" d="M7.746,7.547C8.17,7.865,8.55,8.232,8.938,8.592
		C9.259,8.89,9.627,9.137,9.963,9.42c0.288,0.243,0.571,0.495,0.835,0.763c0.312,0.316,0.706,0.529,1.019,0.845
		c0.366,0.37,0.779,0.694,1.143,1.065c0.183,0.188,0.4,0.325,0.596,0.491c0.699,0.592,1.39,1.194,2.074,1.804
		c0.232,0.207,0.495,0.38,0.68,0.638c-0.129,0-0.258,0-0.388,0c0.005-0.13-0.077-0.216-0.171-0.276
		c-0.418-0.268-0.725-0.661-1.105-0.971c-0.416-0.339-0.84-0.672-1.229-1.043c-0.547-0.522-1.145-0.985-1.7-1.498
		c-0.601-0.556-1.237-1.073-1.856-1.609C9.134,9,8.379,8.402,7.686,7.734C7.664,7.713,7.628,7.707,7.599,7.693
		C7.648,7.645,7.697,7.596,7.746,7.547z"/>
	<path fill-rule="evenodd" clip-rule="evenodd" fill="#636FB3" d="M2.506,13.036c0.331,0.18,0.541,0.503,0.845,0.714
		c0.458,0.317,0.812,0.753,1.254,1.088c0.068,0.051,0.108,0.118,0.146,0.188c-0.421,0-0.841,0-1.262,0
		c-0.2-0.074-0.351-0.215-0.504-0.359c-0.292-0.274-0.598-0.534-0.925-0.769c-0.09-0.064-0.151-0.145-0.123-0.266
		C2.099,13.406,2.313,13.23,2.506,13.036z"/>
	<path fill-rule="evenodd" clip-rule="evenodd" fill="#4F99C5" d="M39.818,35.635c0.406,0.375,0.807,0.758,1.221,1.123
		c0.549,0.484,1.107,0.957,1.66,1.436c0.465,0.404,0.906,0.832,1.393,1.207c0.342,0.264,0.611,0.625,1.025,0.795
		c-0.068,0.078-0.141,0.158-0.209,0.238c-0.172,0.102-0.279-0.035-0.379-0.123c-0.732-0.645-1.477-1.275-2.207-1.92
		c-0.609-0.537-1.203-1.096-1.834-1.605c-0.338-0.273-0.646-0.58-0.992-0.844c-0.1-0.076-0.182-0.164-0.115-0.307
		C39.527,35.635,39.672,35.635,39.818,35.635z"/>
	<path fill-rule="evenodd" clip-rule="evenodd" fill="#4F98C5" d="M39.381,35.635c0.057,0.119,0.146,0.207,0.248,0.291
		c0.385,0.316,0.752,0.654,1.143,0.965c0.402,0.32,0.779,0.67,1.166,1.008c0.617,0.539,1.227,1.09,1.852,1.621
		c0.367,0.311,0.699,0.666,1.119,0.914c-0.029,0.092-0.107,0.143-0.176,0.199c-0.375-0.318-0.744-0.643-1.127-0.949
		c-0.473-0.377-0.896-0.811-1.357-1.199c-0.572-0.48-1.137-0.969-1.701-1.459c-0.375-0.324-0.787-0.611-1.109-0.996
		c-0.129-0.152-0.367-0.186-0.445-0.395C39.123,35.635,39.252,35.635,39.381,35.635z"/>
	<path fill-rule="evenodd" clip-rule="evenodd" fill="#43AEBE" d="M47.594,37.629c-0.043-0.094-0.137-0.133-0.207-0.199
		c-0.629-0.582-1.277-1.139-1.936-1.686c-0.037-0.029-0.064-0.072-0.096-0.109c0.355,0,0.711,0,1.066,0
		c0.441,0.211,0.75,0.58,1.084,0.914c0.193,0.193,0.438,0.324,0.615,0.533C47.977,37.295,47.752,37.428,47.594,37.629z"/>
	<path fill-rule="evenodd" clip-rule="evenodd" fill="#42B2BC" d="M48.121,37.082c-0.266,0.006-0.414-0.199-0.578-0.35
		c-0.336-0.307-0.635-0.652-1.004-0.922c-0.059-0.043-0.104-0.1-0.117-0.176c0.363-0.002,0.727-0.021,1.088-0.004
		c0.363,0.018,0.645,0.197,0.785,0.545C48.432,36.51,48.377,36.818,48.121,37.082z"/>
	<path fill-rule="evenodd" clip-rule="evenodd" fill="#636AB0" d="M1.938,13.633c0.241,0.199,0.483,0.396,0.722,0.599
		c0.292,0.248,0.585,0.496,0.83,0.794c-0.299,0.003-0.598,0.019-0.896,0.004c-0.344-0.017-0.612-0.176-0.763-0.502
		C1.682,14.207,1.708,13.908,1.938,13.633z"/>
	<path fill-rule="evenodd" clip-rule="evenodd" fill="#5CBDA0" d="M29.766,10.42c-0.256-0.209-0.545-0.377-0.756-0.644
		c-0.072-0.093-0.191-0.148-0.217-0.279c0.193,0.127,0.391,0.245,0.523,0.446c0.072,0.105,0.178,0.184,0.299,0.233
		C29.727,10.221,29.775,10.302,29.766,10.42z"/>
	<path fill-rule="evenodd" clip-rule="evenodd" fill="#5CBDA0" d="M26.025,7.167c-0.193-0.028-0.325-0.171-0.487-0.255
		c-0.12-0.063-0.09-0.177-0.097-0.279c0.133,0.103,0.26,0.209,0.421,0.277C25.954,6.947,26.072,7.018,26.025,7.167z"/>
	<path fill-rule="evenodd" clip-rule="evenodd" fill="#5CBDA0" d="M23.937,5.418c-0.176-0.046-0.253-0.177-0.292-0.34
		C23.874,5.079,23.903,5.25,23.937,5.418z"/>
	<path fill-rule="evenodd" clip-rule="evenodd" fill="#5CBDA0" d="M28.744,9.401c-0.215-0.078-0.402-0.195-0.533-0.389
		C28.42,9.097,28.617,9.202,28.744,9.401z"/>
	<path fill-rule="evenodd" clip-rule="evenodd" fill="#5CBDA0" d="M27.287,8.284c-0.232-0.054-0.262-0.289-0.389-0.437
		C27.066,7.958,27.209,8.093,27.287,8.284z"/>
	<path fill-rule="evenodd" clip-rule="evenodd" fill="#5CBDA0" d="M31.027,11.44c-0.178-0.071-0.287-0.23-0.438-0.34
		C30.83,11.093,30.93,11.265,31.027,11.44z"/>
	<path fill-rule="evenodd" clip-rule="evenodd" fill="#5CBDA0" d="M26.463,7.409c-0.133,0.075-0.197-0.06-0.291-0.097
		c0.031-0.096,0.088-0.107,0.16-0.042C26.379,7.313,26.418,7.363,26.463,7.409z"/>
	<path fill-rule="evenodd" clip-rule="evenodd" fill="#5CBDA0" d="M32.678,12.897c-0.115-0.057-0.242-0.104-0.291-0.243
		C32.549,12.658,32.652,12.731,32.678,12.897z"/>
	<path fill-rule="evenodd" clip-rule="evenodd" fill="#5CBDA0" d="M31.561,11.877c-0.129-0.035-0.256-0.077-0.34-0.194
		C31.381,11.667,31.484,11.749,31.561,11.877z"/>
	<path fill-rule="evenodd" clip-rule="evenodd" fill="#5CBDA0" d="M28.162,8.963c-0.117,0.011-0.201-0.032-0.244-0.146
		C28.025,8.824,28.125,8.84,28.162,8.963z"/>
	<path fill-rule="evenodd" clip-rule="evenodd" fill="#5CBDA0" d="M24.325,5.661c-0.124-0.05-0.189-0.167-0.292-0.243
		C24.193,5.424,24.286,5.511,24.325,5.661z"/>
	<path fill-rule="evenodd" clip-rule="evenodd" fill="#5CBDA0" d="M30.541,11.052c-0.125-0.048-0.182-0.176-0.291-0.243
		C30.42,10.804,30.482,10.926,30.541,11.052z"/>
	<path fill-rule="evenodd" clip-rule="evenodd" fill="#5CBDA0" d="M33.164,13.237c-0.125,0.008-0.24-0.002-0.291-0.146
		C32.982,13.115,33.082,13.16,33.164,13.237z"/>
	<path fill-rule="evenodd" clip-rule="evenodd" fill="#5CBDA0" d="M32.338,12.654c-0.141,0.009-0.195-0.087-0.242-0.194
		C32.213,12.479,32.277,12.563,32.338,12.654z"/>
	<path fill-rule="evenodd" clip-rule="evenodd" fill="#5CBDA0" d="M32.047,12.363c-0.064-0.048-0.129-0.097-0.193-0.146
		C32.006,12.148,32.041,12.236,32.047,12.363z"/>
	<path fill-rule="evenodd" clip-rule="evenodd" fill="#5CBDA0" d="M27.773,8.672c-0.117-0.019-0.184-0.103-0.242-0.194
		C27.646,8.497,27.713,8.581,27.773,8.672z"/>
	<path fill-rule="evenodd" clip-rule="evenodd" fill="#4F99C5" d="M24.908,23.097c-0.15-0.044-0.247-0.142-0.292-0.292
		C24.732,22.884,24.829,22.981,24.908,23.097z"/>
	<path fill-rule="evenodd" clip-rule="evenodd" fill="#4F99C5" d="M27.094,24.99c-0.131-0.031-0.213-0.112-0.244-0.243
		C26.949,24.811,27.029,24.892,27.094,24.99z"/>
	<path fill-rule="evenodd" clip-rule="evenodd" fill="#4F99C5" d="M25.588,23.679c-0.11-0.02-0.175-0.083-0.195-0.194
		C25.475,23.533,25.54,23.598,25.588,23.679z"/>
	<path fill-rule="evenodd" clip-rule="evenodd" fill="#4F99C5" d="M23.451,21.833c-0.082-0.048-0.146-0.113-0.195-0.194
		C23.367,21.659,23.431,21.724,23.451,21.833z"/>
	<path fill-rule="evenodd" clip-rule="evenodd" fill="#4F99C5" d="M26.365,24.359c-0.086-0.012-0.135-0.061-0.146-0.146
		C26.283,24.248,26.33,24.296,26.365,24.359z"/>
	<path fill-rule="evenodd" clip-rule="evenodd" fill="#4F99C5" d="M21.994,20.571c-0.085-0.012-0.133-0.061-0.145-0.146
		C21.911,20.459,21.96,20.508,21.994,20.571z"/>
	<path fill-rule="evenodd" clip-rule="evenodd" fill="#46A8C0" d="M35.01,27.711c0.201,0.115,0.377,0.264,0.535,0.436
		C35.293,28.09,35.148,27.902,35.01,27.711z"/>
	<path fill-rule="evenodd" clip-rule="evenodd" fill="#46A8C0" d="M32.193,25.233c0.148,0.11,0.277,0.24,0.387,0.388
		C32.402,25.542,32.246,25.438,32.193,25.233z"/>
	<path fill-rule="evenodd" clip-rule="evenodd" fill="#46A8C0" d="M29.182,22.659c0.182,0.055,0.277,0.207,0.389,0.34
		C29.389,22.945,29.293,22.793,29.182,22.659z"/>
	<path fill-rule="evenodd" clip-rule="evenodd" fill="#46A8C0" d="M35.836,28.391c0.104,0.076,0.213,0.15,0.242,0.291
		C35.973,28.604,35.865,28.531,35.836,28.391z"/>
	<path fill-rule="evenodd" clip-rule="evenodd" fill="#46A8C0" d="M33.164,26.107c0.074,0.037,0.152,0.066,0.195,0.145
		C33.225,26.299,33.189,26.209,33.164,26.107z"/>
	<path fill-rule="evenodd" clip-rule="evenodd" fill="#46A8C0" d="M34.281,27.031c0.08,0.047,0.146,0.113,0.193,0.193
		C34.365,27.205,34.301,27.141,34.281,27.031z"/>
	<path fill-rule="evenodd" clip-rule="evenodd" fill="#46A8C0" d="M29.813,23.145c0.08,0.042,0.109,0.121,0.146,0.195
		C29.846,23.322,29.813,23.246,29.813,23.145z"/>
</g>
</svg>
